<svg width="512" height="512" viewBox="0 0 512 512" fill="none" xmlns="http://www.w3.org/2000/svg">
<circle cx="256" cy="256" r="256" fill="#CFCFC9"/>
<g clip-path="url(#clip0_32_1020)">
<path d="M105.098 209H73.0809V302H113.102C138.291 302.148 156.403 284.623 156.419 257.136C156.395 222.81 134.164 209.117 105.098 209Z" fill="#585858"/>
<path d="M106.51 274.427H104.627V238.442H106.51C118.006 238.232 124.99 243.785 124.873 256.668C124.99 269.076 116.971 274.256 106.51 274.427Z" fill="#CFCFC9"/>
<path d="M219.04 254.332L245.877 209H211.506L196.44 238.91C194.831 242.306 192.877 245.631 192.202 249.658H191.731L192.202 209H161.598V302H192.202L191.731 263.211H192.202C192.877 266.981 195.631 270.431 197.381 273.96L212.448 302H248.702L219.04 254.332ZM255.757 209H285.89L314.14 260.874H315.082C313.944 252.914 312.571 244.899 312.728 237.04V209H342.382V302H312.736L284.956 253.397H284.015C285.074 259.698 285.984 265.742 285.898 272.09V302H255.765V209H255.757ZM383.832 209L393.248 233.302H394.19C395.312 230.459 396.112 227.499 397.486 224.889L403.607 209H438.919L409.257 262.276V302H378.652V262.276L348.519 209H383.832Z" fill="#585858"/>
</g>
<defs>
<clipPath id="clip0_32_1020">
<rect width="366" height="93" fill="white" transform="translate(73 209)"/>
</clipPath>
</defs>
</svg>
