<svg width="512" height="512" viewBox="0 0 512 512" fill="none" xmlns="http://www.w3.org/2000/svg">
<circle cx="256" cy="256" r="256" fill="#CFCFC9"/>
<g clip-path="url(#clip0_32_1151)">
<path d="M188.635 217.179C193.884 215.18 199.459 214.177 205.074 214.222C212.145 214.228 219.127 215.811 225.511 218.858C231.895 221.904 237.521 226.337 241.981 231.835C243.183 233.297 243.854 235.124 243.885 237.017C243.9 238.254 243.62 239.476 243.068 240.582C242.516 241.688 241.708 242.646 240.712 243.376V243.534C239.002 244.792 236.874 245.342 234.771 245.07C232.667 244.797 230.749 243.724 229.414 242.072C227.664 239.896 225.624 237.971 223.353 236.35C218.056 232.561 211.709 230.526 205.201 230.532C201.513 230.512 197.854 231.18 194.411 232.503C187.874 234.885 182.299 239.353 178.544 245.219C174.394 251.976 172.968 260.062 174.555 267.835C176.141 275.607 180.622 282.483 187.087 287.065C193.552 291.647 201.515 293.591 209.359 292.503C217.203 291.416 224.34 287.377 229.319 281.208C229.945 280.249 230.764 279.433 231.724 278.811C232.683 278.189 233.763 277.776 234.892 277.597C236.021 277.418 237.174 277.478 238.279 277.773C239.383 278.068 240.414 278.591 241.305 279.309C242.195 280.027 242.925 280.924 243.449 281.942C243.972 282.96 244.277 284.076 244.344 285.22C244.411 286.363 244.238 287.507 243.836 288.579C243.435 289.652 242.814 290.628 242.013 291.445C234.319 300.64 223.448 306.592 211.568 308.113C199.688 309.634 187.672 306.614 177.917 299.653C168.162 292.692 161.384 282.304 158.936 270.559C156.487 258.814 158.548 246.576 164.707 236.286C170.362 227.429 178.721 220.638 188.54 216.925M287.012 217.179C292.262 215.185 297.836 214.182 303.451 214.222C310.528 214.223 317.515 215.804 323.905 218.851C330.295 221.897 335.927 226.333 340.39 231.835C341.578 233.302 342.238 235.128 342.262 237.017C342.272 238.253 341.99 239.473 341.438 240.578C340.887 241.684 340.081 242.642 339.089 243.376C337.664 244.429 335.94 244.997 334.17 244.997C332.941 244.98 331.732 244.686 330.633 244.135C329.534 243.585 328.573 242.792 327.823 241.818C324.883 238.212 321.18 235.306 316.981 233.31C312.782 231.314 308.193 230.278 303.546 230.277C299.859 230.266 296.202 230.934 292.756 232.248C286.219 234.63 280.644 239.099 276.889 244.965C272.854 251.609 271.428 259.518 272.889 267.156C274.349 274.793 278.591 281.615 284.791 286.294C290.153 290.329 296.681 292.505 303.387 292.494C308.046 292.467 312.641 291.404 316.839 289.38C321.038 287.357 324.735 284.424 327.664 280.794C328.29 279.836 329.109 279.02 330.069 278.398C331.029 277.776 332.108 277.362 333.237 277.183C334.366 277.004 335.52 277.064 336.624 277.359C337.729 277.654 338.759 278.178 339.65 278.896C340.54 279.614 341.271 280.511 341.794 281.529C342.318 282.547 342.623 283.663 342.689 284.806C342.756 285.949 342.583 287.094 342.181 288.166C341.78 289.238 341.159 290.214 340.358 291.031C332.657 300.195 321.796 306.119 309.935 307.627C298.073 309.135 286.079 306.115 276.339 299.169C266.598 292.222 259.823 281.858 257.361 270.136C254.9 258.414 256.931 246.194 263.053 235.904C268.699 227.053 277.047 220.262 286.854 216.543M365.143 291.667C372.804 300.967 383.698 307.014 395.63 308.59C407.563 310.167 419.649 307.157 429.455 300.166C439.262 293.174 446.061 282.721 448.483 270.91C450.905 259.099 448.772 246.807 442.511 236.508C441.77 235.321 440.741 234.34 439.521 233.657C438.3 232.973 436.928 232.609 435.53 232.598C433.364 232.606 431.289 233.474 429.761 235.012C428.232 236.549 427.374 238.63 427.374 240.8C427.41 242.441 427.881 244.043 428.739 245.442C431.368 249.688 432.93 254.51 433.289 259.494C433.648 264.477 432.795 269.474 430.801 274.055C428.638 279.079 425.217 283.459 420.868 286.771C414.422 291.631 406.345 293.796 398.337 292.812C390.329 291.828 383.015 287.77 377.932 281.494C373.411 275.965 370.963 269.025 371.013 261.878C371.005 257.772 371.806 253.704 373.371 249.909C374.936 246.114 377.233 242.665 380.132 239.762C383.03 236.858 386.472 234.556 390.261 232.989C394.049 231.421 398.11 230.619 402.208 230.627C405.896 230.609 409.555 231.277 412.998 232.598C415.039 233.344 417.293 233.248 419.262 232.33C421.232 231.411 422.758 229.747 423.502 227.702C424.247 225.657 424.151 223.4 423.234 221.427C422.318 219.453 420.656 217.925 418.615 217.179C413.375 215.192 407.811 214.2 402.208 214.254C393.257 214.279 384.493 216.832 376.924 221.62C369.355 226.408 363.287 233.238 359.417 241.324C355.546 249.411 354.031 258.427 355.044 267.337C356.056 276.248 359.557 284.691 365.143 291.699M90.5121 217.179C88.711 217.846 87.2011 219.126 86.2465 220.795C85.2919 222.464 84.9532 224.416 85.2897 226.31C85.6262 228.204 86.6165 229.919 88.0874 231.156C89.5583 232.392 91.4163 233.072 93.3365 233.075C94.2908 233.081 95.2379 232.908 96.1291 232.566C99.5855 231.251 103.253 230.583 106.951 230.595C113.506 230.636 119.885 232.725 125.198 236.572L78.3578 274.182C76.3908 269.595 75.5515 264.603 75.9104 259.624C76.2694 254.645 77.8161 249.825 80.4205 245.569C81.2953 244.176 81.7777 242.573 81.8169 240.928C81.8204 239.147 81.2429 237.413 80.1723 235.991C79.1018 234.569 77.5968 233.537 75.8864 233.051C74.1761 232.565 72.3541 232.652 70.6978 233.299C69.0415 233.946 67.6416 235.118 66.7112 236.636C60.5899 246.925 58.5581 259.146 61.0197 270.867C63.4813 282.589 70.2561 292.954 79.997 299.9C89.738 306.846 101.732 309.866 113.593 308.358C125.455 306.85 136.316 300.926 144.017 291.763C145.2 290.31 145.84 288.488 145.825 286.612C145.83 285.534 145.621 284.466 145.211 283.469C144.801 282.471 144.198 281.566 143.437 280.803C142.676 280.041 141.771 279.437 140.776 279.026C139.781 278.615 138.714 278.406 137.638 278.41C136.408 278.417 135.195 278.708 134.095 279.259C132.994 279.81 132.035 280.608 131.291 281.589C128.358 285.212 124.659 288.137 120.461 290.154C116.263 292.172 111.67 293.232 107.014 293.257C100.293 293.204 93.7687 290.974 88.4176 286.898L142.525 243.344C143.516 242.609 144.32 241.65 144.871 240.545C145.422 239.44 145.706 238.221 145.698 236.985C145.673 235.091 145.001 233.262 143.794 231.803C139.345 226.284 133.717 221.833 127.324 218.78C120.932 215.726 113.937 214.147 106.855 214.159C101.241 214.119 95.6672 215.122 90.4169 217.115" fill="#585858"/>
</g>
<defs>
<clipPath id="clip0_32_1151">
<rect width="392" height="106" fill="white" transform="translate(60 203)"/>
</clipPath>
</defs>
</svg>
