<svg width="512" height="512" viewBox="0 0 512 512" fill="none" xmlns="http://www.w3.org/2000/svg">
<circle cx="256" cy="256" r="256" fill="#CFCFC9"/>
<g clip-path="url(#clip0_32_576)">
<path d="M166.263 198.378C175.108 198.378 182.28 205.553 182.28 214.406C182.28 223.261 175.108 230.436 166.263 230.436H93.017C84.1708 230.436 77 223.261 77 214.406C77 205.553 84.1708 198.378 93.017 198.378H166.263Z" fill="#8C8C8C"/>
<path d="M158.901 240.379C167.747 240.379 174.918 247.555 174.918 256.409C174.918 265.261 167.747 272.437 158.901 272.437H117.212C113.656 272.45 110.745 275.265 110.609 278.787V299.679C110.609 308.531 103.438 315.707 94.595 315.707C85.7487 315.707 78.578 308.531 78.578 299.679V264.126C78.578 251.012 89.2009 240.379 102.305 240.379H158.901Z" fill="#585858"/>
<path d="M189.553 211.029C189.553 202.177 196.724 195 205.569 195C214.416 195 221.586 202.177 221.586 211.029V299.792C221.586 308.645 214.416 315.822 205.569 315.822C196.724 315.822 189.553 308.645 189.553 299.792V211.029Z" fill="#585858"/>
<path d="M386.679 284.029L393.116 284.012C394.431 284.012 395.499 282.943 395.499 281.628C395.504 281.293 395.449 280.995 395.33 280.714L371.397 240.465L334.008 305.256C331.12 310.266 325.934 313.124 320.552 313.267C320.393 313.289 320.234 313.301 320.067 313.301H259.22C246.114 313.301 235.491 302.669 235.491 289.555V211.029C235.491 202.177 242.662 195 251.509 195C260.353 195 267.525 202.177 267.525 211.029V274.634C267.536 278.194 270.347 281.109 273.87 281.242H307.907C308.783 280.972 311.46 280.061 312.276 278.793L355.029 204.725C358.273 199.151 364.308 195.397 371.215 195.397C378.126 195.397 384.162 199.156 387.392 204.742L429.052 274.743C432.153 278.785 433.997 283.841 433.997 289.33C433.997 302.569 423.273 313.301 410.046 313.301H361.484C353.405 313.301 346.86 306.747 346.86 298.663C346.86 290.581 353.405 284.029 361.484 284.029H386.679Z" fill="#585858"/>
</g>
<defs>
<clipPath id="clip0_32_576">
<rect width="357" height="121" fill="white" transform="translate(77 195)"/>
</clipPath>
</defs>
</svg>
