<svg width="512" height="512" viewBox="0 0 512 512" fill="none" xmlns="http://www.w3.org/2000/svg">
<circle cx="256" cy="256" r="256" fill="#CFCFC9"/>
<g clip-path="url(#clip0_32_687)">
<mask id="mask0_32_687" style="mask-type:luminance" maskUnits="userSpaceOnUse" x="65" y="224" width="381" height="64">
<path d="M446 224H65V288H446V224Z" fill="white"/>
</mask>
<g mask="url(#mask0_32_687)">
<mask id="mask1_32_687" style="mask-type:luminance" maskUnits="userSpaceOnUse" x="65" y="224" width="381" height="64">
<path d="M65 224V288H446V224H65Z" fill="white"/>
</mask>
<g mask="url(#mask1_32_687)">
<path d="M437.051 224.53L428.104 224.5V234.118L437.051 234.071V287.486H446V224.53H437.051ZM417.003 239.833C417.003 231.432 413.052 224 403.745 224C396.282 224 390.317 230.183 390.317 237.709V242.659H399.264V237.521C399.264 234.602 401.013 233.009 403.653 233.009C408.039 233.009 408.039 236.803 408.039 239.989C408.039 243.439 408.039 245.203 406.463 248.295L390.317 278.975V287.47H417.003V278.445H400.857L414.02 252.886C416.831 247.514 417.003 245.921 417.003 239.833ZM332.792 252.652H327.701V233.025H332.356C338.945 233.025 339.991 236.475 339.991 242.845C339.991 249.107 339.039 252.652 332.792 252.652ZM348.954 243.017C348.954 230.808 343.769 224.53 333.152 224.53H318.754V287.486H327.701V260.614H333.058L341.397 287.502H350.874L341.225 258.756C346.924 255.57 348.954 250.262 348.954 243.017ZM278.265 287.486H304.952V278.461H287.228V259.99H302.672V251.496H287.228V233.025H304.952V224.53H278.265V287.486ZM248.207 268.483H248.035L240.93 224.53H231.453L244.179 287.486H252.08L264.899 224.53H255.422L248.207 268.483ZM193.274 287.486H219.96V278.461H202.222V259.99H217.665V251.496H202.222V233.025H219.945V224.53H193.274V287.486ZM162.67 252.652H157.58V233.025H162.232C168.823 233.025 169.869 236.475 169.869 242.845C169.853 249.107 168.901 252.652 162.67 252.652ZM178.816 243.017C178.816 230.808 173.632 224.53 163.014 224.53H148.617V287.486H157.564V260.614H162.92L171.258 287.502H180.737L171.086 258.756C176.802 255.57 178.816 250.262 178.816 243.017ZM125.273 272.637C125.273 276.977 122.461 279.007 119.215 279.007C115.966 279.007 113.156 276.977 113.156 272.637V239.379C113.156 235.039 115.966 233.009 119.215 233.009C122.461 233.009 125.273 235.039 125.273 239.379V272.637ZM119.215 224C111.922 224 104.209 229.121 104.209 239.379V272.621C104.209 282.879 111.938 288 119.215 288C126.506 288 134.221 282.879 134.221 272.621V239.379C134.221 229.121 126.506 224 119.215 224ZM65 287.486H73.9472V260.614H89.3909V252.12H73.9472V233.025H91.6695V224.53H65V287.486Z" fill="#585858"/>
</g>
</g>
</g>
<defs>
<clipPath id="clip0_32_687">
<rect width="381" height="64" fill="white" transform="translate(65 224)"/>
</clipPath>
</defs>
</svg>
