<svg width="512" height="512" viewBox="0 0 512 512" fill="none" xmlns="http://www.w3.org/2000/svg">
<circle cx="256" cy="256" r="256" fill="#CFCFC9"/>
<path fill-rule="evenodd" clip-rule="evenodd" d="M413 256C413 316.179 364.124 365 303.878 365C286.521 365 270.164 361.017 255.402 353.642C240.836 360.818 224.279 365 207.125 365C146.876 365 98 316.179 98 256C98 195.821 146.876 147 207.122 147C224.479 147 240.836 150.986 255.399 158.159C269.964 150.986 286.521 147 303.878 147C364.124 147 413 195.821 413 256ZM391.456 256C391.456 207.778 352.154 168.522 303.878 168.522C294.701 168.522 285.725 169.917 277.545 172.508C294.302 186.455 306.472 205.186 312.454 226.709H289.912C283.58 208.742 271.528 193.343 255.601 182.869C239.84 193.229 227.87 208.576 221.488 226.709H198.945C204.849 205.485 217.013 186.529 233.855 172.309C225.26 169.662 216.316 168.318 207.322 168.323C159.046 168.323 119.746 207.578 119.746 255.8C119.746 304.022 159.046 343.281 207.322 343.281C216.499 343.281 225.275 341.887 233.455 339.295C211.712 321.163 197.549 294.46 195.355 264.57H247.221V285.89L221.884 286.289C228.469 303.826 240.24 318.574 255.601 328.735C270.96 318.571 282.731 303.826 289.315 286.289L263.978 285.89V264.57H315.848C313.453 294.46 299.091 320.963 277.345 339.096C285.725 341.687 294.701 343.281 303.878 343.281C352.354 343.481 391.456 304.422 391.456 256Z" fill="#585858"/>
</svg>
