<svg width="512" height="512" viewBox="0 0 512 512" fill="none" xmlns="http://www.w3.org/2000/svg">
<circle cx="256" cy="256" r="256" fill="#CFCFC9"/>
<path d="M318.255 161.158C329.432 155.668 334.971 156.389 335.096 161.953C335.245 169.181 334.177 178.793 333.407 185.748C329.258 223.55 322.328 254.439 321.807 293.252C340.063 245.989 355.364 213.14 375.086 172.683C381.345 159.792 385.344 162.201 390.486 159.916C410.506 150.999 411.251 156.463 408.642 167.368C398.931 207.755 374.067 334.919 370.267 354.499C369.174 360.165 363.015 357.763 361.424 355.548C354.296 345.687 346.248 345.533 347.142 338.975C351.613 306.329 367.708 224.422 371.907 205.122C350.52 248.967 328.339 303.779 316.938 334.857C314.529 341.456 310.132 340.972 307.401 336.144C303.55 329.36 296.074 325.897 294.832 317.882C290.932 292.398 299.303 243.823 300.47 213.093C288.821 246.662 269.273 311.836 260.703 341.282C257.177 353.466 245.403 351.478 248.532 339.604C261.547 290.187 289.591 202.787 301.712 171.366C304.57 163.964 312.045 164.212 318.255 161.158Z" fill="#585858"/>
<path d="M247.267 155.097C243.492 154.178 232.538 160.089 225.806 161.257C223.67 161.629 221.633 163.889 220.913 165.504C210.133 190.268 200.471 213.875 192.1 235.38C181.395 237.208 168.876 239.615 154.867 242.762C164.902 217.022 175.036 191.634 184.922 167.218C189.79 155.196 176.974 154.053 172.006 166.224C165.547 182.047 153.451 211.691 140.063 246.244C130.227 248.656 119.795 251.413 108.89 254.563C100.967 256.851 100.644 258.962 104.072 263.714C105.959 266.359 109.859 266.093 111.647 267.978C116.268 272.864 119.074 278.708 127.345 279.593C119.968 299.327 112.591 319.677 105.909 339.273C101.712 351.573 113.659 354.088 118.254 341.073C125.656 320.092 133.456 298.857 141.479 277.685C148.16 276.132 164.33 272.65 179.258 269.411C167.41 301.884 159.61 326.547 156.655 338.552C156.108 340.861 157.027 342.143 157.524 343.085C161.523 348.904 165.323 349.143 170.465 356.338C171.856 358.3 176.526 359.359 178.115 354.527C189.094 321.365 200.396 290.25 210.927 262.356C215.298 261.4 223.172 259.5 227.991 252.309C236.56 239.546 239.019 242.135 241.081 238.255C243.664 233.384 241.95 228.811 232.81 229.941C232.81 229.941 229.357 230.187 222.974 230.915C233.108 204.822 241.975 182.691 248.359 165.826C250.546 160.114 250.819 155.941 247.267 155.097Z" fill="#585858"/>
<path d="M232.314 324.332C234.674 330.295 242.051 328.489 239.244 321.292C236.387 313.959 229.284 291.885 227.421 284.773C224.887 275.191 235.866 277.811 230.302 284.076C225.533 289.463 222.354 291.622 213.536 301.865C205.017 311.753 207.327 324.585 216.442 327.42C226.725 330.619 235.792 319.287 241.405 310.974C246.845 302.924 241.579 298.202 236.09 302.961C232.562 306.021 228.489 310.72 224.365 313.254C221.012 315.293 218.379 313.103 222.85 306.948C228.042 299.822 233.854 293.851 238.176 287.117C246.994 273.393 229.557 265.482 222.055 274.397C218.031 279.148 219.05 283.813 220.143 287.817C221.907 294.23 228.464 314.702 232.314 324.332Z" fill="#585858"/>
</svg>
