<svg width="512" height="512" viewBox="0 0 512 512" fill="none" xmlns="http://www.w3.org/2000/svg">
<circle cx="256" cy="256" r="256" fill="#CFCFC9"/>
<path d="M256.004 373.189C213.198 373.189 175.697 350.108 155.244 315.753H178.488L178.982 256.163L204.808 315.753H230.128L256 256.163V315.753H283.755L284.75 275.033L293.687 267.585L332.919 315.753H356.756C336.303 350.108 298.807 373.189 256.004 373.189ZM152.662 200.791V311.205C143.835 294.736 138.811 275.948 138.811 255.996C138.811 236.047 143.835 217.249 152.662 200.791ZM256.004 138.81C298.944 138.81 336.54 162.038 356.948 196.574H328.451L285.246 236.798V196.574H248.504L218.214 270.564L189.413 196.574H155.05C175.464 162.038 213.063 138.81 256.004 138.81ZM373.189 255.996C373.189 274.608 368.809 292.209 361.059 307.858L315.536 249.211L360.61 203.271C368.635 219.135 373.189 237.036 373.189 255.996ZM256.004 111C175.92 111 111 175.923 111 255.996C111 336.077 175.92 401 256.004 401C336.077 401 401 336.077 401 255.996C401 175.923 336.077 111 256.004 111Z" fill="#585858"/>
</svg>
