<svg width="512" height="512" viewBox="0 0 512 512" fill="none" xmlns="http://www.w3.org/2000/svg">
<circle cx="256" cy="256" r="256" fill="#CFCFC9"/>
<g clip-path="url(#clip0_32_525)">
<path d="M73 267.654V223.838H97.46C111.216 223.838 123.294 224.573 125.06 225.518C127.986 227.082 128.201 229.187 128.201 256.236C128.201 291.361 128.716 290.374 110.399 290.374C95.9783 290.374 95.7297 290.596 95.7297 303.489V311.471H84.3649H73V267.654ZM103.847 257.279C103.847 239.556 103.403 235.374 101.437 234.62C97.301 233.034 95.7297 239.159 95.7297 256.866C95.7297 276.051 96.4045 279.014 100.774 279.014C103.637 279.014 103.847 277.523 103.847 257.279ZM137.999 308.332C136.969 306.407 136.318 289.452 136.318 264.515V223.838H148.495H160.672V259.23C160.672 286.358 161.183 295.321 162.861 297.614C167.896 304.497 168.79 298.987 168.79 261.067V223.838H180.966H193.143V265.707C193.143 296.108 192.609 308.109 191.195 309.523C189.849 310.868 181.574 311.471 164.463 311.471C141.622 311.471 139.548 311.225 137.999 308.332ZM201.261 269.602C201.261 239.201 201.794 227.199 203.209 225.785C205.978 223.018 282.592 223.018 285.36 225.785C286.775 227.199 287.309 239.201 287.309 269.602V311.471H275.132H262.955V273.215C262.955 237.655 262.755 234.998 260.114 235.506C257.521 236.004 257.235 239.338 256.837 273.761L256.401 311.471H244.255H232.108V274.344C232.108 245.519 231.627 236.819 229.959 235.435C224.833 231.183 223.99 236.693 223.99 274.47V311.471H212.625H201.261V269.602ZM297.05 269.334C297.05 229.336 297.209 227.112 300.19 225.518C304.731 223.089 347.835 223.319 350.303 225.785C351.717 227.199 352.251 239.201 352.251 269.602V311.471H340.148H328.046L327.566 300.517C327.196 292.075 326.527 289.562 324.65 289.562C322.774 289.562 322.105 292.075 321.735 300.517L321.255 311.471H309.152H297.05V269.334ZM327.086 256.971C327.086 239.42 326.689 236.009 324.65 236.009C322.647 236.009 322.133 239.449 321.755 255.388C321.267 275.935 321.802 279.693 325.057 278.608C326.54 278.114 327.086 272.293 327.086 256.971Z" fill="#585858"/>
<path d="M401.72 273.434C400.693 272.197 398.897 267.895 398.541 263.387C397.915 255.467 399.546 256.044 389.838 246.3C382.01 238.443 376.917 233.281 373.398 222.931C367.855 206.631 360.602 202.359 351.721 202.359C343.497 202.359 330.402 199.722 323.397 196.656C320.077 195.202 313.634 190.655 309.079 186.551L300.798 179.088L296.994 182.079C291.943 186.05 284.832 185.851 274.12 181.441C264.149 177.335 262.267 177.587 262.267 180.474C262.267 183.876 259.624 184.03 255.85 181.559C247.911 176.359 254.616 167.894 267.961 168.558C275.907 168.95 276.282 169.019 276.282 165.775C276.282 161.938 273.914 160.578 267.235 160.578C264.367 160.578 261.868 159.626 259.373 157.236C257.842 156.315 256.475 155.597 255.6 153.496C256.329 150.83 257.078 149.133 258.498 147.851C259.88 145.158 261.52 142.251 264.435 140.412C266.112 139.353 267.747 136.055 269.025 134.755C270.156 133.604 270.108 133.244 272.055 134.85C274.056 136.502 274.834 136.51 276.769 134.905C278.721 133.286 279.349 133.34 280.743 135.245C281.653 136.489 284.947 139.858 289.486 140.924C302.134 143.896 313.316 150.573 333.685 167.368C359.635 188.765 362.221 187.843 374.543 189.079C389.005 190.529 394.444 185.156 404.817 162.288C411.628 147.273 416.04 141.515 424.273 136.321C431.266 131.908 437.369 131.743 437.855 136.73C438.321 141.512 438.269 143.798 427.962 150.015C416.501 156.93 413.104 160.456 405.895 175.38C402.183 183.066 397.676 189.93 394.399 192.889L389.009 197.756L392.59 204.989C395.241 210.343 396.348 215.338 396.85 224.218C397.782 240.7 396.674 239.153 402.242 244.435C404.831 246.891 405.847 244.926 406.9 249.872C407.899 254.566 408.158 256.904 410.338 262.807C411.701 266.5 410.452 264.368 409.936 269.587C409.544 273.558 410.477 272.073 408.741 276.213C407.984 278.018 402.747 274.67 401.72 273.434Z" fill="#585858"/>
</g>
<defs>
<clipPath id="clip0_32_525">
<rect width="365" height="186" fill="white" transform="translate(73 133)"/>
</clipPath>
</defs>
</svg>
