<svg width="512" height="512" viewBox="0 0 512 512" fill="none" xmlns="http://www.w3.org/2000/svg">
<circle cx="256" cy="256" r="256" fill="#CFCFC9"/>
<path d="M165.562 265.061C165.562 243.222 171.023 225.251 183.235 211.071V201.972C183.235 200.228 183.615 198.939 184.297 198.029C184.98 197.119 186.345 196.361 188.166 195.83V193.1H157.142V195.83C158.962 196.361 160.328 197.119 161.01 198.029C161.693 198.939 162.072 200.304 162.072 202.048V259.677C162.072 266.35 161.693 271.203 161.086 274.464C160.404 277.648 159.19 280.302 157.445 282.426C152.515 288.189 144.019 291.07 132.035 291.07C120.126 291.07 111.63 288.189 106.7 282.426C104.88 280.302 103.514 277.573 102.907 274.464C102.225 271.279 101.921 266.35 101.921 259.677V201.972C101.921 200.228 102.301 198.939 103.059 197.953C103.818 196.967 105.107 196.285 106.928 195.754V193.024H74.0076V195.754C75.828 196.285 77.1934 197.043 77.876 197.953C78.5587 198.863 78.938 200.152 78.938 201.896V266.653C78.938 274.767 79.9241 281.819 81.8962 287.658C83.9443 293.648 87.5093 298.274 92.6673 301.762C101.618 307.752 114.361 310.71 131.2 310.71C149.557 310.71 162.983 307.297 171.402 300.473C166.927 290.008 165.562 278.179 165.562 265.061ZM428.922 257.99C429.68 257.004 431.121 256.322 433.094 255.715V252.985H378.1C376.356 252.985 375.066 252.53 374.156 251.772C373.246 251.014 372.563 249.497 371.956 247.298H369.226V275.355H371.956C372.487 273.231 373.246 271.791 374.156 270.957C375.066 270.198 376.356 269.743 378.1 269.743H406.849V286.046C406.849 286.046 401.691 296.207 368.695 297.876C349.125 298.937 336.761 289.989 336.761 289.989C336.685 290.52 336.685 290.217 336.685 290.748V313.117C336.685 313.117 347.228 318.046 369.302 318.046C390.009 318.046 413.524 311.98 433.321 295.222V293.023C431.197 292.416 429.832 291.733 428.998 290.748C428.163 289.762 427.86 288.473 427.86 286.653V262.085C427.708 260.265 428.163 258.9 428.922 257.99ZM340.326 221.82C348.29 214.844 358.379 211.28 370.439 211.28C376.432 211.28 382.727 212.265 389.327 214.085C396.002 215.981 401.084 218.256 404.573 220.91C406.166 222.123 407.228 223.185 407.607 223.943C408.062 224.853 408.29 226.142 408.366 228.038L410.793 229.327L424.371 200.664L422.019 199.375C420.426 200.664 419.061 201.422 417.847 201.422C416.178 201.422 413.448 200.664 409.579 199.071C402.146 196.114 395.471 193.991 389.63 192.702C383.789 191.413 377.569 191.109 370.894 190.806C345.939 189.593 332.741 197.403 332.741 197.403L313.702 238.35L305.813 235.772C305.813 235.772 305.737 231.905 305.206 231.678C303.386 233.27 301.869 241.687 301.338 252.682C301.262 255.108 301.717 261.933 301.717 261.933H326.748C326.748 261.933 326.141 256.473 326.141 253.061C326.369 240.17 331.299 229.782 340.326 221.82Z" fill="#585858"/>
<path d="M305.745 287.544H268.88C266.605 287.544 264.936 288.075 263.798 289.212C262.661 290.35 261.674 292.245 260.992 295.051H257.503V257.668H260.992C261.674 260.549 262.661 262.596 263.798 263.658C264.936 264.72 266.605 265.25 268.88 265.25H339.575V268.89C336.92 269.649 335.176 270.71 334.114 271.923C333.052 273.137 332.521 274.956 332.521 277.459V310.292C332.521 312.719 333.052 314.615 334.038 315.828C335.1 317.041 336.844 318.103 339.575 318.861V321.667C311.282 339.031 283.899 347.676 257.351 347.676C233.23 347.676 213.66 341.534 198.413 329.325C179.299 313.932 169.665 292.473 169.665 264.947C169.665 239.393 178.161 219.071 195.228 203.905C211.308 189.574 232.775 182.37 259.626 182.37C268.122 182.37 276.162 183.28 283.748 184.873C291.257 186.541 299.828 189.346 309.386 193.365C314.316 195.488 318.64 196.929 320.764 196.929C322.281 196.929 324.101 196.019 326.073 194.199L329.107 195.943L311.889 233.858L308.551 232.568C308.475 230.066 307.338 227.715 306.807 226.578C306.2 225.441 304.91 224.076 302.862 222.483C298.387 218.919 291.94 215.81 283.292 213.384C274.721 210.882 266.529 209.593 258.944 209.593C243.318 209.593 230.499 214.218 220.107 223.621C208.578 234.237 202.737 248.189 202.737 265.554C202.737 282.388 208.35 295.961 219.652 306.349C229.968 315.904 243.622 320.605 260.537 320.605C268.805 320.605 276.921 319.544 284.885 317.572C292.85 315.449 299.752 312.643 305.669 309.155V287.544H305.745Z" fill="#585858"/>
</svg>
