<svg width="512" height="512" viewBox="0 0 512 512" fill="none" xmlns="http://www.w3.org/2000/svg">
<circle cx="256" cy="256" r="256" fill="#CFCFC9"/>
<path d="M337.3 229.944C365.521 217.546 383.949 198.926 384.953 178.269C384.953 178.269 377.502 172.537 353.446 163.697C332.322 155.935 316.207 154.158 316.207 154.158L316.281 200.182C316.281 207.059 313.517 214.079 308.298 220.294C292.331 216.444 274.684 214.283 256.175 214.277H256.163C237.642 214.283 219.977 216.45 203.991 220.306C198.772 214.091 196.002 207.066 196.002 200.182L196.07 154.158C196.07 154.158 179.967 155.935 158.83 163.697C134.774 172.537 127.336 178.269 127.336 178.269C128.334 198.932 146.768 217.558 175.02 229.957C146.793 242.356 128.365 260.976 127.367 281.626C127.367 281.626 134.812 287.364 158.867 296.198C179.998 303.96 196.107 305.737 196.107 305.737L196.033 259.713C196.033 252.836 198.797 245.81 204.022 239.601C219.989 243.458 237.63 245.612 256.138 245.612C274.665 245.612 292.343 243.451 308.322 239.583C313.541 245.797 316.306 252.836 316.306 259.713L316.244 305.737C316.244 305.737 332.353 303.96 353.484 296.198C377.539 287.364 384.984 281.626 384.984 281.626C383.98 260.963 365.546 242.337 337.3 229.944ZM256.151 240.301H256.132L255.605 240.288C238.894 240.288 225.27 236.203 215.279 229.957C225.27 223.699 238.901 219.607 255.642 219.607L256.157 219.601H256.182L256.709 219.607C273.426 219.607 287.043 223.692 297.035 229.938C287.043 236.19 273.413 240.288 256.678 240.288" fill="#585858"/>
<path d="M90.3968 356.728C82.3017 356.728 82.1592 350.563 82.1592 348.186V336.969C82.1592 336.288 82.1034 335.384 83.5476 335.384H87.7315C89.0889 335.384 89.0022 336.35 89.0022 336.969V348.186C89.0022 348.984 89.1509 351.126 92.0951 351.126H99.1117C102 351.126 102.167 348.984 102.167 348.186V336.969C102.167 336.35 102.087 335.384 103.438 335.384H107.653C109.184 335.384 109.048 336.35 109.048 336.969V348.186C109.048 350.563 108.905 356.728 100.779 356.728" fill="#585858"/>
<path d="M129.167 355.374C126.309 351.53 122.231 346.689 118.072 341.576V355.231C118.072 355.826 118.22 356.73 116.801 356.73H112.896C111.483 356.73 111.65 355.826 111.65 355.231V336.971C111.65 336.351 111.588 335.386 112.896 335.386H120.508C122.658 335.386 125.72 339.713 127.729 342.566C129.278 344.745 132.142 348.02 134.063 350.477V336.971C134.063 336.351 133.977 335.386 135.396 335.386H139.636C140.999 335.386 140.913 336.351 140.913 336.971V356.73H133.103C131.429 356.73 130.692 356.841 129.167 355.374Z" fill="#585858"/>
<path d="M161.342 351.115C164.764 351.115 164.516 347.834 164.516 346.336C164.516 341.303 163.097 341.105 160.834 341.105H150.08V351.115H161.342ZM143.479 356.735V335.423H162.34C163.493 335.423 171.216 335.286 171.216 343.389C171.216 351.678 172.121 356.735 162.508 356.735H152.342L150.136 352.272V356.735" fill="#585858"/>
<path d="M178.605 335.559H195.979C197.454 335.559 197.256 336.518 197.256 338.301C197.256 339.96 197.479 340.895 195.979 340.895H182.249C181.884 340.895 180.644 340.697 180.644 341.997C180.644 343.297 180.39 343.81 181.772 343.81H193.915C193.915 343.81 195.669 347.147 195.867 347.71C196.152 348.218 196.121 348.701 195.049 348.701H182.479L180.526 344.912V350.508C180.526 351.808 181.692 351.554 182.026 351.554H196.289C197.708 351.554 197.59 352.539 197.59 354.148C197.59 355.881 197.708 356.834 196.289 356.834H178.233C176.733 356.834 173.795 356.383 173.795 351.697V339.935C173.795 338.722 174.446 335.559 178.605 335.559Z" fill="#585858"/>
<path d="M217.083 341.045H208.622C207.215 341.045 207.265 341.528 207.265 341.955V345.768H215.979C220.201 345.768 220.201 344.716 220.201 343.614C220.201 341.41 220.033 341.045 217.083 341.045ZM201.946 335.418H220.963C223.51 335.418 227.211 335.394 227.211 342.258C227.211 346.752 226.256 346.975 224.217 348.362C227.645 348.956 227.192 353.333 227.192 355.598C227.192 356.756 226.771 356.731 226.424 356.731H220.851C219.686 356.731 219.971 354.893 219.971 353.933C219.971 351.302 218.502 351.42 217.932 351.42H209.725C208.938 350.058 207.407 347.006 207.407 347.006V355.852C207.407 356.62 206.639 356.731 206.36 356.731H200.762C201.066 356.731 200.186 356.787 200.186 356.019V337.257C200.186 335.926 201.122 335.418 201.946 335.418Z" fill="#585858"/>
<path d="M257.692 341.462L254.184 347.85L254.494 348.16H261.033L261.374 347.85C261.144 347.367 258.318 342.001 258.033 341.431L257.692 341.462ZM259.954 335.563C261.343 335.563 262.694 336.182 264.169 339.035C265.167 341.066 272.072 353.527 273.51 356.133V356.838H266.32L264.25 353.106H255.51C255.51 353.106 254.041 349.744 253.62 348.816C253.08 349.689 250.192 355.173 249.194 356.838H241.985V356.386C243.454 353.619 253.502 335.563 253.502 335.563" fill="#585858"/>
<path d="M292.368 341.045H283.907C282.494 341.045 282.549 341.528 282.549 341.955V345.768H291.264C295.485 345.768 295.485 344.716 295.485 343.614C295.485 341.41 295.318 341.045 292.368 341.045ZM277.231 335.418H296.248C298.795 335.418 302.502 335.394 302.502 342.258C302.502 346.752 301.547 346.975 299.502 348.362C302.923 348.956 302.471 353.333 302.471 355.598C302.471 356.756 302.049 356.731 301.709 356.731H296.136C294.971 356.731 295.256 354.893 295.256 353.933C295.256 351.302 293.787 351.42 293.217 351.42H285.01C284.217 350.058 282.686 347.006 282.686 347.006V355.852C282.686 356.62 281.93 356.731 281.644 356.731H276.041C276.351 356.731 275.477 356.787 275.477 356.019V337.257C275.477 335.926 276.413 335.418 277.231 335.418Z" fill="#585858"/>
<path d="M319.116 356.728C317.697 354.072 313.761 346.749 311.101 341.952V355.23C311.101 355.824 311.182 356.728 309.837 356.728H305.982C304.537 356.728 304.649 355.824 304.649 355.23V336.969C304.649 336.35 304.568 335.415 305.982 335.415H312.632C313.624 335.415 315.031 335.186 316.624 338.356C317.814 340.894 320.337 346.161 322.06 348.953C323.839 346.161 326.418 340.894 327.608 338.356C329.163 335.186 330.546 335.415 331.649 335.415H338.269C339.633 335.415 339.49 336.35 339.49 336.969V355.23C339.49 355.824 339.682 356.728 338.269 356.728H334.395C332.982 356.728 333.093 355.824 333.093 355.23V341.952C330.409 346.749 326.498 354.072 325.023 356.728" fill="#585858"/>
<path d="M360.71 351.3C363.915 351.3 363.797 348 363.797 345.79C363.797 343.81 364.249 340.702 360.09 340.702H353.037C348.909 340.702 349.392 343.81 349.392 345.79C349.392 348 349.194 351.3 352.392 351.3H360.71ZM348.035 356.784C341.725 356.784 342.004 350.025 342.004 345.654C342.004 341.637 341.551 335.366 349.448 335.304H363.462C371.384 335.304 370.869 341.662 370.869 345.654C370.869 350.025 371.185 356.784 364.783 356.784" fill="#585858"/>
<path d="M381.421 356.728C373.319 356.728 373.183 350.563 373.183 348.186V336.969C373.183 336.288 373.127 335.384 374.571 335.384H378.761C380.113 335.384 380.032 336.35 380.032 336.969V348.186C380.032 348.984 380.175 351.126 383.119 351.126H390.135C393.024 351.126 393.191 348.984 393.191 348.186V336.969C393.191 336.35 393.104 335.384 394.462 335.384H398.677C400.208 335.384 400.071 336.35 400.071 336.969V348.186C400.071 350.563 399.929 356.728 391.803 356.728" fill="#585858"/>
<path d="M419.7 341.045H411.24C409.826 341.045 409.882 341.528 409.882 341.955V345.768H418.597C422.818 345.768 422.818 344.716 422.818 343.614C422.818 341.41 422.651 341.045 419.7 341.045ZM404.558 335.418H423.581C426.128 335.418 429.841 335.394 429.841 342.258C429.841 346.752 428.874 346.975 426.835 348.362C430.262 348.956 429.81 353.333 429.81 355.598C429.81 356.756 429.388 356.731 429.041 356.731H423.469C422.31 356.731 422.589 354.893 422.589 353.933C422.589 351.302 421.12 351.42 420.556 351.42H412.343C411.556 350.058 410.025 347.006 410.025 347.006V355.852C410.025 356.62 409.256 356.731 408.977 356.731H403.38C403.684 356.731 402.81 356.787 402.81 356.019V337.257C402.81 335.926 403.746 335.418 404.558 335.418Z" fill="#585858"/>
</svg>
