<svg width="512" height="512" viewBox="0 0 512 512" fill="none" xmlns="http://www.w3.org/2000/svg">
<circle cx="256" cy="256" r="256" fill="#CFCFC9"/>
<path d="M367 367.422H144V145H367V367.422ZM195.729 266.895C182.626 266.895 172.319 277.394 172.319 290.103V313.924C172.319 326.466 182.626 337.132 195.729 337.132C197.315 337.132 198.858 336.965 200.33 336.693L205.221 351.356H218.937L212.442 330.252C216.246 325.905 218.937 319.989 218.937 313.924V290.103C218.937 277.394 208.884 266.895 195.729 266.895ZM315.289 266.895C302.151 266.895 292.072 277.394 292.072 290.103V313.924C292.072 326.466 302.151 337.132 315.289 337.132C328.4 337.132 338.497 326.465 338.497 313.924V290.103C338.497 277.394 328.4 266.895 315.289 266.895ZM237.989 337.13H284.914V322.844H252.214V266.892H237.989V337.13ZM315.289 280.637C320.512 280.637 324.807 284.853 324.807 290.103V313.924C324.807 318.543 320.512 322.846 315.289 322.847C310.039 322.847 305.771 318.543 305.771 313.924V290.103C305.771 284.853 310.039 280.637 315.289 280.637ZM195.729 280.637C201.022 280.637 205.221 284.853 205.221 290.103V313.924C205.221 318.543 201.022 322.846 195.729 322.846C190.479 322.846 186.246 318.543 186.246 313.924V290.103C186.246 284.853 190.479 280.637 195.729 280.637ZM172.323 222.26C172.323 235.441 182.622 245.607 195.742 245.607C208.889 245.607 218.941 235.441 218.941 222.26V175.344H205.225V222.26C205.224 227.588 201.027 231.883 195.742 231.883C190.484 231.883 186.25 227.588 186.25 222.26V175.344H172.323V222.26ZM308.175 245.606H322.452V175.343H308.175V245.606ZM237.989 245.601H252.214V205.346L270.654 245.601H284.914V175.337H270.654V215.53L252.214 175.337H237.989V245.601Z" fill="#585858"/>
</svg>
