<svg width="512" height="512" viewBox="0 0 512 512" fill="none" xmlns="http://www.w3.org/2000/svg">
<circle cx="256" cy="256" r="256" fill="#CFCFC9"/>
<path d="M406.766 322.768L356.985 184.092L356.951 184H355.969L345.717 212.498L327.055 264.378L327.011 264.337C320.543 258.562 311.418 254.953 299.925 253.608L296.42 253.242L299.897 252.791C318.85 249.345 331.59 237.234 331.59 222.643C331.59 202.634 312.99 188.667 286.347 188.667H230.912V189.68H247.02V293.072L207.899 184.092L207.864 184H206.882L196.631 212.498L157.092 322.412L156.849 322.44C156.173 322.524 155.504 322.592 154.843 322.642C153.848 322.721 152.86 322.768 151.868 322.768H111.917L187.858 189.68L188.422 188.68H95.5441V229.85H96.5297C96.7043 209.797 108.247 189.68 133.748 189.68H164.514L88 323.766H191.079V284.321H190.094C189.96 301.8 180.167 318.401 158.873 322.15L158.196 322.267L174.413 277.164H219.843L236.213 322.768H220.065V323.766H283.446V322.768H267.229V253.977H285.941C304.984 253.977 315.906 262.586 315.906 277.587V289.79C315.906 291.134 315.996 293.1 316.096 294.744V294.804L306.038 322.762H292.899V323.759H320.097V322.762H307.098L316.258 297.303C316.277 297.549 316.286 297.698 316.286 297.698L316.539 299.992L316.782 301.509C318.31 310.897 321.859 317.798 327.326 322.021L328.112 322.598C332.266 325.52 337.428 327 343.463 327C351.456 327 356.786 324.984 361.186 320.238L360.609 319.689C356.555 323.475 353.152 325.009 348.889 325.009C341.626 325.009 337.824 316.094 337.824 307.303V290.206C337.863 285.964 337.206 281.745 335.881 277.72L335.7 277.19V277.171H368.93L385.3 322.775H369.151V323.772H424V322.775L406.766 322.768ZM174.775 276.167L197.155 213.956L219.485 276.167H174.775ZM267.238 252.977V189.68H281.522C300.602 189.68 310.676 201.157 310.676 222.857C310.676 245.937 304.894 252.977 285.941 252.977H267.238ZM335.313 276.167L335.217 275.921C333.74 272.282 331.59 268.962 328.883 266.139L327.947 265.192L327.847 265.098L346.229 213.956L368.559 276.167H335.313Z" fill="#585858"/>
</svg>
