<svg width="512" height="512" viewBox="0 0 512 512" fill="none" xmlns="http://www.w3.org/2000/svg">
<circle cx="256" cy="256" r="256" fill="#CFCFC9"/>
<path d="M256.968 136L162.757 341H192.113L286.518 270.684L414.375 270.586V247.667H277.936L212.691 293.992L256.675 195.198L273.742 235.477L300.269 235.379L256.968 136ZM414.375 212.07L300.659 212.265L310.412 235.282H414.375V212.07ZM98.1951 212.265V235.477H200.402L211.13 212.265H98.1951ZM98.1951 247.57V270.684H184.213L194.843 247.57H98.1951ZM98 282.484V305.696H168.706L178.362 282.484H98ZM292.077 282.484L315.288 340.902H344.741L319.677 282.484H292.077ZM331.088 282.484L340.938 305.598H414.375V282.582L331.088 282.484Z" fill="#585858"/>
</svg>
