<svg width="512" height="512" viewBox="0 0 512 512" fill="none" xmlns="http://www.w3.org/2000/svg">
<circle cx="256" cy="256" r="256" fill="#CFCFC9"/>
<path d="M92.1963 298.524H94.8477V306.465H105.012V298.524H107.575V317.054H105.012V308.583H94.8477V317.054H92.1963V298.524Z" fill="#585858"/>
<path d="M148.673 310.348C148.673 315.024 145.844 317.495 140.983 317.495C136.034 317.495 133.029 315.289 133.029 310.348V298.524H135.68V310.348C135.68 313.612 137.625 315.465 140.983 315.465C144.254 315.465 146.11 313.612 146.11 310.348V298.524H148.673V310.348Z" fill="#585858"/>
<path d="M180.756 317.583C174.923 317.936 171.387 312.995 171.387 308.142C171.387 302.759 174.481 298.083 180.667 298.083C184.91 298.083 188.268 299.848 188.975 304.259H186.412C185.882 301.436 183.496 300.112 180.667 300.112C175.895 300.112 173.95 304.083 173.95 308.053C173.95 311.936 176.425 315.642 181.109 315.553C183.496 315.465 185.44 315.024 186.412 313.436C187.119 312.465 186.943 310.701 186.854 309.377H180.667V307.259H189.152C189.152 307.259 189.152 312.112 189.152 314.23C186.943 316.965 184.291 317.406 180.756 317.583Z" fill="#585858"/>
<path d="M220.882 315.465C225.566 315.465 227.599 311.495 227.599 307.789C227.599 304.083 225.566 300.112 220.882 300.112C216.109 300.112 214.165 304.083 214.165 307.789C214.165 311.495 216.109 315.465 220.882 315.465ZM220.882 298.083C227.068 298.083 230.162 302.759 230.162 307.789C230.162 312.818 227.068 317.495 220.882 317.495C214.695 317.495 211.601 312.818 211.601 307.789C211.601 302.759 214.695 298.083 220.882 298.083Z" fill="#585858"/>
<path d="M282.219 306.465H287.345C290.262 306.465 291.499 305.495 291.499 303.554C291.499 300.995 289.643 300.554 287.345 300.554H282.219V306.465ZM282.219 315.024H288.671C290.881 315.024 292.295 313.701 292.295 311.671C292.295 309.289 290.262 308.583 288.053 308.583H282.219V315.024ZM279.656 298.524H286.638C288.406 298.524 290.615 298.524 291.765 299.142C293.09 299.936 294.062 301.26 294.062 303.024C294.062 305.054 293.002 306.554 291.234 307.26C293.62 307.701 294.946 309.465 294.946 311.76C294.946 314.495 292.825 317.054 289.025 317.054H279.656V298.524Z" fill="#585858"/>
<path d="M327.383 315.465C332.155 315.465 334.1 311.495 334.1 307.789C334.1 304.083 332.155 300.112 327.383 300.112C322.699 300.112 320.666 304.083 320.666 307.789C320.666 311.495 322.699 315.465 327.383 315.465ZM327.383 298.083C333.569 298.083 336.751 302.759 336.751 307.789C336.751 312.818 333.569 317.495 327.383 317.495C321.196 317.495 318.103 312.818 318.103 307.789C318.103 302.759 321.196 298.083 327.383 298.083Z" fill="#585858"/>
<path d="M372.37 303.995C372.104 301.259 370.248 300.112 367.597 300.112C365.387 300.112 363.266 300.906 363.266 303.289C363.266 305.583 366.359 305.936 369.453 306.642C372.546 307.259 375.64 308.318 375.64 312.024C375.64 315.906 371.574 317.495 368.039 317.495C363.708 317.495 360.084 315.465 360.084 310.965H362.471C362.471 314.053 365.211 315.465 368.127 315.465C370.514 315.465 373.077 314.759 373.077 312.024C373.077 309.465 369.983 309.112 366.89 308.406C363.797 307.789 360.615 306.906 360.615 303.465C360.615 299.759 364.15 298.083 367.685 298.083C371.662 298.083 374.667 299.848 374.844 303.995H372.37Z" fill="#585858"/>
<path d="M414.263 303.995C413.909 301.259 412.054 300.112 409.402 300.112C407.281 300.112 405.071 300.906 405.071 303.289C405.071 305.583 408.165 305.936 411.346 306.642C414.44 307.259 417.533 308.318 417.533 312.024C417.533 315.906 413.468 317.495 409.932 317.495C405.601 317.495 401.89 315.465 401.89 310.965H404.364C404.364 314.053 407.104 315.465 410.021 315.465C412.318 315.465 414.97 314.759 414.97 312.024C414.97 309.465 411.788 309.112 408.695 308.406C405.601 307.789 402.508 306.906 402.508 303.465C402.508 299.759 405.955 298.083 409.579 298.083C413.468 298.083 416.561 299.848 416.649 303.995H414.263Z" fill="#585858"/>
<path d="M114.999 200.584V233.937H127.108C127.108 233.937 128.168 233.849 128.787 233.672C135.857 233.055 140.365 224.584 140.807 218.408C141.514 211.79 137.448 200.849 127.284 200.584C124.279 200.496 114.999 200.584 114.999 200.584ZM114.999 237.819V277.789H125.958C125.958 277.789 132.145 278.23 137.713 273.731C143.193 269.319 146.021 262.79 145.403 255.29C144.961 248.584 139.835 239.055 128.345 237.819C122.247 237.819 114.999 237.819 114.999 237.819ZM140.807 196.702C149.91 197.232 155.832 202.084 156.362 202.702C161.046 207.026 162.461 213.555 161.312 219.82C159.809 230.319 146.729 234.731 146.729 234.731C157.688 236.055 165.907 244.26 167.145 253.084C168.206 261.731 165.024 269.407 157.865 274.789C150.617 280.172 140.011 281.936 134.266 281.936C134.266 281.936 89.8983 281.936 87.4237 281.936C87.4237 280.525 87.4237 279.466 87.4237 278.23C93.4336 278.319 94.1408 278.319 94.1408 275.936C94.0524 266.937 94.1408 204.114 94.1408 202.437C94.1408 200.496 93.1684 200.408 87.4237 200.408C87.3353 198.908 87.5121 196.702 87.5121 196.702H140.807Z" fill="#585858"/>
<path d="M213.104 201.29C207.271 205.173 203.205 214.084 201.261 221.496C198.167 232.702 198.786 245.937 201.879 259.525C205.061 273.113 213.811 277.878 219.026 279.025C228.748 281.231 235.111 275.584 238.558 270.378C245.275 260.231 246.955 239.319 244.833 227.319C242.889 216.202 239.884 208.437 234.051 203.232C227.51 197.496 218.142 197.937 213.104 201.29ZM265.515 254.054C261.449 266.142 253.318 273.731 243.95 278.672C231.664 285.289 214.076 286.348 201.791 279.025C194.19 274.525 174.834 262.525 177.397 234.202C177.928 228.114 181.021 212.849 198.079 201.379C209.745 193.79 226.538 191.585 242.182 198.82C266.576 209.937 271.702 237.378 265.515 254.054Z" fill="#585858"/>
<path d="M337.193 200.673C337.282 207.025 337.193 220.172 337.193 220.172L334.1 220.26C332.244 212.055 328.267 204.996 321.461 201.731C314.921 198.555 305.022 196.967 298.57 202.614C294.77 205.967 294.239 209.408 295.565 213.29C297.863 219.025 304.227 220.79 309.176 222.996C313.242 224.584 321.903 227.407 321.903 227.407C331.537 230.76 342.231 237.29 345.148 248.142C346.473 252.819 346.473 258.113 345.413 262.878C343.026 273.466 336.221 276.024 332.332 278.672C330.388 279.995 312.181 286.966 290.262 279.819C285.754 278.319 280.54 276.554 280.54 276.554V252.819C280.54 252.819 282.926 252.907 283.898 252.907C285.401 256.701 286.727 261.289 289.909 265.878C297.333 276.642 307.85 279.907 319.428 277.436C324.024 276.377 329.062 273.201 330.388 268.436C332.067 263.054 331.537 254.142 315.274 248.142C303.519 242.76 288.759 240.554 281.777 227.496C279.037 220.172 279.833 207.467 288.848 201.29C297.951 195.114 306.79 193.702 317.484 195.114C328.09 196.614 330.918 198.025 337.193 200.673Z" fill="#585858"/>
<path d="M414.617 200.673C414.705 207.025 414.617 220.172 414.617 220.172L411.523 220.26C409.667 212.055 405.69 204.996 398.885 201.731C392.344 198.555 382.445 196.967 375.993 202.614C372.193 205.967 371.663 209.408 372.988 213.29C375.286 219.025 381.65 220.79 386.599 222.996C390.665 224.584 399.326 227.407 399.326 227.407C408.96 230.76 419.654 237.29 422.571 248.142C423.897 252.819 423.897 258.113 422.836 262.878C420.45 273.466 413.644 276.024 409.756 278.672C407.811 279.995 389.604 286.966 367.685 279.819C363.178 278.319 357.963 276.554 357.963 276.554V252.819C357.963 252.819 360.35 252.907 361.322 252.907C362.824 256.701 364.15 261.289 367.332 265.878C374.756 276.642 385.274 279.907 396.852 277.436C401.448 276.377 406.485 273.201 407.811 268.436C409.49 263.054 408.96 254.142 392.698 248.142C380.943 242.76 366.183 240.554 359.201 227.496C356.461 220.172 357.256 207.467 366.36 201.29C375.375 195.114 384.213 193.702 394.819 195.114C405.513 196.614 408.341 198.025 414.617 200.673Z" fill="#585858"/>
</svg>
