<svg width="512" height="512" viewBox="0 0 512 512" fill="none" xmlns="http://www.w3.org/2000/svg">
<circle cx="256" cy="256" r="256" fill="#CFCFC9"/>
<g clip-path="url(#clip0_32_837)">
<mask id="mask0_32_837" style="mask-type:luminance" maskUnits="userSpaceOnUse" x="120" y="123" width="272" height="266">
<path d="M392 123H120V388.76H392V123Z" fill="white"/>
</mask>
<g mask="url(#mask0_32_837)">
<path d="M372.515 325.335C370.43 325.336 368.372 324.864 366.496 323.953C364.621 323.042 362.977 321.717 361.69 320.078L273.559 206.371L312.43 168.917C322.599 159.173 332.955 149.624 343.491 140.277C353.377 131.52 368.763 127.975 382.052 127.975C382.187 127.975 382.052 123.147 382.052 123.147H306.052V127.692L317.8 127.879C321.959 127.947 326.119 128.19 330.227 128.891C333.35 129.388 335.088 133.023 333.486 135.782C330.483 141.116 326.794 146.035 322.514 150.413C302.951 170.296 253.278 218 247.647 223.393C247.534 213.601 247.653 127.822 247.653 127.822L277.181 127.828V123H191.099V127.828L217.288 127.805L217.345 325.166L190.126 325.155V330.542C190.12 330.469 276.824 330.542 276.824 330.542V325.296L247.444 325.301L247.466 232.049C247.421 232.037 249.605 230.228 251.128 228.967C253.985 232.512 257.302 236.616 257.336 236.628L324.862 325.217L298.254 325.222V330.604H389.792V325.358C389.86 325.358 377.111 325.335 372.515 325.335Z" fill="#585858"/>
<path d="M190.527 174.435C186.143 171.104 181.061 168.807 175.663 167.715C170.264 166.624 164.689 166.766 159.353 168.131C150.041 170.596 141.7 175.833 135.439 183.146C120.341 200.683 115.882 225.802 123.985 247.527C129.078 260.988 138.647 273.386 152.172 279.192C157.638 281.511 163.499 282.762 169.437 282.878C170.246 282.891 171.056 282.848 171.859 282.748C179.471 281.764 186.662 278.692 192.632 273.872C194.839 272.103 197.895 269.717 200.753 271.622C202.869 273.007 203.599 278.276 203.622 278.305H206.446L206.48 241.297L203.622 241.28C203.622 241.28 203.424 244.537 203.39 245.99C203.028 250.094 202.054 254.447 200.102 258.099C199.434 259.388 198.75 260.655 198.065 261.904C191.235 274.398 175.758 283.376 161.43 278.87C157.804 277.709 154.474 275.776 151.669 273.204C148.864 270.632 146.651 267.483 145.183 263.973C137.804 246.306 136.712 226.604 139.372 207.801C140.074 202.727 141.089 197.701 142.41 192.752C144.562 184.788 149.579 177.897 156.501 173.4C157.802 172.552 159.24 171.896 160.711 171.399C172.781 167.379 186.555 171.517 194.438 181.541C199.199 187.63 202.312 194.842 203.475 202.481C203.605 203.561 203.978 205.715 203.978 205.715H206.627L206.644 172.185L203.514 172.19C203.543 172.19 203.509 173.502 203.492 174.141C203.418 177.453 199.819 178.579 196.95 178.092C194.415 177.657 192.502 175.955 190.527 174.435ZM387.132 123.413V123.938H385.803V127.788H385.259V123.938H383.93V123.413H387.132ZM388.213 123.413H388.983L390.114 127.116L391.241 123.413H391.997V127.788H391.49V125.205L391.495 124.764L391.5 124.097L390.374 127.788H389.842L388.71 124.097V124.232L388.715 124.719L388.728 125.199V127.783H388.213V123.413Z" fill="#585858"/>
<path d="M199.666 387.366H197.018V383.735C196.11 385.04 194.891 386.1 193.472 386.819C192.053 387.538 190.477 387.895 188.886 387.857C182.763 387.857 177.812 383.024 177.812 377.02C177.812 370.936 182.684 366.215 188.926 366.215C192.14 366.215 195.167 367.73 197.018 370.371V366.707H199.666V387.366ZM204.539 354.677H207.181V387.358H204.539V354.677ZM233.042 366.702H235.69V387.366H233.042V366.702ZM240.008 366.702H242.657V369.387C244.852 367.047 245.995 366.408 248.491 366.408C254.121 366.408 256.702 370.167 256.702 376.132V387.366H254.053V376.132C254.053 371.671 252.497 368.788 248.525 368.788C246.103 368.788 244.235 369.992 243.25 372.033C242.838 372.978 242.651 374.108 242.651 376.034V387.366H240.002V366.702H240.008ZM292.166 354.677H294.814V387.358H292.166V354.677Z" fill="#585858"/>
<path d="M234.666 357.752C235.56 357.752 236.285 357.029 236.285 356.136C236.285 355.242 235.56 354.519 234.666 354.519C233.772 354.519 233.048 355.242 233.048 356.136C233.048 357.029 233.772 357.752 234.666 357.752Z" fill="#585858"/>
<path d="M324.427 366.702H327.075V387.366H324.427V366.702Z" fill="#585858"/>
<path d="M326.051 357.752C326.945 357.752 327.669 357.029 327.669 356.136C327.669 355.242 326.945 354.519 326.051 354.519C325.157 354.519 324.432 355.242 324.432 356.136C324.432 357.029 325.157 357.752 326.051 357.752Z" fill="#585858"/>
<path d="M175.39 381.809C173.303 383.428 170.801 384.429 168.171 384.693C165.541 384.955 162.89 384.474 160.522 383.298C158.155 382.123 156.167 380.307 154.787 378.053C153.408 375.8 152.693 373.205 152.724 370.565C152.755 367.924 153.532 365.346 154.964 363.126C156.397 360.907 158.427 359.137 160.822 358.018C163.217 356.901 165.879 356.48 168.502 356.806C171.125 357.132 173.603 358.191 175.65 359.861L177.416 357.82C174.974 355.81 172.012 354.531 168.873 354.133C165.734 353.734 162.547 354.232 159.679 355.569C156.812 356.906 154.382 359.026 152.671 361.686C150.961 364.345 150.039 367.434 150.012 370.595C149.986 373.756 150.857 376.861 152.524 379.548C154.19 382.233 156.585 384.394 159.43 385.779C162.274 387.164 165.453 387.713 168.599 387.366C171.744 387.019 174.726 385.791 177.201 383.82L175.39 381.809ZM209.456 366.724L219.58 388.761L230.083 366.724H227.213L219.58 382.752L212.32 366.724H209.456ZM331.681 366.702H334.33V369.387C336.525 367.047 337.668 366.408 340.164 366.408C345.794 366.408 348.375 370.167 348.375 376.132V387.366H345.732V376.132C345.732 371.671 344.176 368.788 340.203 368.788C337.782 368.788 335.914 369.992 334.929 372.033C334.516 372.978 334.33 374.108 334.33 376.035V387.366H331.681V366.702ZM268.523 354.677H271.381V369.495L285.268 354.677H288.782L275.642 369.138L288.493 387.366H285.075L273.769 371.173L271.381 373.532V387.366H268.523V354.677Z" fill="#585858"/>
<path d="M188.852 385.477C193.317 385.477 197.018 381.661 197.018 377.052C197.018 372.366 193.385 368.59 188.886 368.59C184.274 368.59 180.455 372.445 180.455 377.013C180.46 381.621 184.314 385.477 188.852 385.477Z" fill="#CFCFC9"/>
<path d="M309.612 385.477C305.492 385.477 301.825 382.038 301.593 377.958H320.46C320.42 375.465 320.313 374.672 319.741 373.157C318.225 369.042 314.111 366.21 309.606 366.21C308.185 366.206 306.777 366.483 305.464 367.024C304.15 367.566 302.956 368.361 301.951 369.366C300.946 370.369 300.15 371.562 299.608 372.875C299.066 374.188 298.788 375.593 298.792 377.012C298.797 379.887 299.941 382.639 301.974 384.671C304.008 386.704 306.765 387.847 309.64 387.85C313.528 387.85 317.161 385.634 319.057 382.315L316.793 380.898C315.571 383.56 312.628 385.477 309.612 385.477ZM309.651 368.59C313.545 368.59 316.725 371.349 317.71 375.578H301.678C302.391 371.501 305.719 368.59 309.651 368.59Z" fill="#585858"/>
</g>
</g>
<defs>
<clipPath id="clip0_32_837">
<rect width="272" height="266" fill="white" transform="translate(120 123)"/>
</clipPath>
</defs>
</svg>
