<svg width="512" height="512" viewBox="0 0 512 512" fill="none" xmlns="http://www.w3.org/2000/svg">
<circle cx="256" cy="256" r="256" fill="#CFCFC9"/>
<path d="M308.507 244.415C284.878 237.242 271.809 211.197 279.383 186.229C282 177.562 286.756 170.174 292.821 164.509C292.821 164.509 308.63 149.008 333.505 157.613C333.228 157.613 332.967 157.582 332.69 157.582C317.65 157.582 305.413 171.051 305.413 187.676C305.413 204.285 317.65 217.754 332.69 217.754C344.573 217.754 354.671 209.349 358.396 197.651L358.381 197.635C358.381 197.635 359.258 195.095 359.782 190.985C359.859 190.293 359.936 189.461 359.936 189.461C360.844 178.979 359.027 160.414 338.601 145.637C310.785 126.057 271.701 128.058 271.701 128.058C202.309 128.058 146 185.567 146 256.514C146 327.447 202.309 384.91 271.701 384.91H365V212.136C357.442 237.134 332.151 251.573 308.507 244.415Z" fill="#585858"/>
</svg>
