<svg width="512" height="512" viewBox="0 0 512 512" fill="none" xmlns="http://www.w3.org/2000/svg">
<circle cx="256" cy="256" r="256" fill="#CFCFC9"/>
<g clip-path="url(#clip0_32_511)">
<path d="M97.0813 261.959C98.8563 263.724 98.8563 266.372 97.0813 268.138L95.5281 269.683C93.7531 271.448 91.0906 271.448 89.3156 269.683L79.3313 259.752C77.5563 257.986 77.5563 255.338 79.3313 253.572L80.8844 252.028C82.6594 250.262 85.3219 250.262 87.0969 252.028L97.0813 261.959ZM95.9719 242.979C94.1969 241.214 91.5344 241.214 89.7594 242.979L88.2062 244.524C86.4312 246.29 86.4312 248.938 88.2062 250.703L98.1906 260.634C99.9656 262.4 102.628 262.4 104.403 260.634L105.956 259.09C107.731 257.324 107.731 254.676 105.956 252.91L95.9719 242.979ZM122.597 251.807C120.822 250.041 118.159 250.041 116.384 251.807L114.831 253.352C113.056 255.117 113.056 257.766 114.831 259.531L124.816 269.462C126.591 271.228 129.253 271.228 131.028 269.462L132.581 267.917C134.356 266.152 134.356 263.503 132.581 261.738L122.597 251.807ZM131.694 242.759C129.919 240.993 127.256 240.993 125.481 242.759L123.928 244.303C122.153 246.069 122.153 248.717 123.928 250.483L133.913 260.414C135.688 262.179 138.35 262.179 140.125 260.414L141.678 258.869C143.453 257.103 143.453 254.455 141.678 252.69L131.694 242.759ZM115.053 233.048C116.828 231.283 116.828 228.634 115.053 226.869L113.5 225.324C111.725 223.559 109.062 223.559 107.287 225.324L97.3031 235.255C95.5281 237.021 95.5281 239.669 97.3031 241.434L98.8562 242.979C100.631 244.745 103.294 244.745 105.069 242.979L115.053 233.048ZM123.928 241.876C125.703 240.11 125.703 237.462 123.928 235.697L122.375 234.152C120.6 232.386 117.938 232.386 116.163 234.152L106.178 244.083C104.403 245.848 104.403 248.497 106.178 250.262L107.731 251.807C109.506 253.572 112.169 253.572 113.944 251.807L123.928 241.876ZM115.053 267.917C116.828 266.152 116.828 263.503 115.053 261.738L113.5 260.193C111.725 258.428 109.062 258.428 107.287 260.193L97.3031 270.124C95.5281 271.89 95.5281 274.538 97.3031 276.303L98.8562 277.848C100.631 279.614 103.294 279.614 105.069 277.848L115.053 267.917ZM123.928 276.745C125.703 274.979 125.703 272.331 123.928 270.566L122.375 269.021C120.6 267.255 117.938 267.255 116.163 269.021L106.4 279.172C104.625 280.938 104.625 283.586 106.4 285.352L107.953 286.897C109.728 288.662 112.391 288.662 114.166 286.897L123.928 276.745ZM196.703 268.138C196.925 268.579 198.256 270.566 198.256 270.566C197.591 273.655 195.594 277.848 195.594 277.848L195.372 278.069C188.05 280.938 176.513 283.366 164.309 278.51C156.988 275.641 151.662 269.903 149.666 262.4C147.447 254.676 149 246.29 153.881 239.669C159.206 232.607 167.637 228.634 179.175 227.972C183.612 227.752 192.487 228.855 197.369 231.724H197.812C197.812 231.724 198.034 243.862 197.812 244.303L197.591 244.966L194.041 245.186L193.819 243.862C193.153 240.331 191.6 231.062 178.509 231.724C172.962 231.945 168.303 234.814 164.975 239.228C160.759 244.745 159.65 252.028 161.425 260.414C163.2 268.359 169.412 273.434 174.072 275.421C176.069 276.083 182.281 277.628 186.941 275.421C190.934 273.434 194.928 270.345 196.703 268.138ZM241.522 280.938V239.228C241.522 237.903 241.522 235.697 240.191 234.152C239.969 233.931 237.972 232.386 237.972 232.386V230.621L249.287 228.414L250.397 229.076C250.397 229.076 250.397 273.214 250.397 273.876C250.619 278.069 253.503 278.51 253.503 278.51V281.159L241.522 280.938ZM291.444 278.069C289.447 277.628 288.338 275.862 288.338 272.993V246.51L287.45 246.069L276.134 248.276V250.041C276.134 250.041 278.131 251.586 278.353 251.807C279.684 253.352 279.684 255.559 279.684 256.883V272.552C275.913 275.421 272.584 276.303 270.144 275.2C268.369 274.317 267.259 272.11 267.259 269.021V246.51L266.372 246.069L255.056 248.276V250.041C255.056 250.041 257.053 251.586 257.275 251.807C258.828 253.352 258.828 255.559 258.606 256.883V270.345C258.606 272.993 258.828 273.876 259.05 274.979C259.716 277.848 261.491 279.834 263.931 280.717C267.925 282.262 273.694 280.717 279.684 276.745V280.497H292.109V278.069H291.444ZM347.8 278.069C345.803 277.628 344.916 275.862 344.694 272.993V256.883C344.694 253.131 342.697 246.069 335.375 246.069C329.828 246.069 326.278 249.379 324.281 251.145C323.172 248.717 320.731 246.069 316.294 246.069C312.744 246.069 309.637 247.393 306.531 250.041V246.731L305.422 246.069L294.106 248.276V250.041C294.106 250.041 296.103 251.586 296.325 251.807C297.656 253.352 297.656 255.559 297.656 256.883V280.497H310.081V278.069L309.416 277.848C307.419 277.407 306.531 275.862 306.531 272.772C306.531 272.772 306.531 256.441 306.531 253.793C308.75 252.028 310.969 251.586 313.188 251.807C314.963 252.028 316.959 253.352 316.959 259.972V280.276H329.162V277.848L328.497 277.628C326.5 277.186 325.613 275.641 325.391 272.552V256.441C325.391 256 325.391 254.676 325.169 253.793C327.388 251.807 329.606 251.586 331.825 251.807C333.6 252.028 335.597 253.352 335.597 259.972V280.276H347.8V277.848V278.069ZM237.528 263.503C237.528 258.428 235.753 253.793 232.647 250.703C229.319 247.393 224.659 245.628 218.891 245.628C208.241 245.628 200.253 253.352 200.253 263.503C200.253 274.317 207.575 281.379 218.891 281.379C224.216 281.379 229.097 279.614 232.425 276.303C235.753 272.772 237.528 268.359 237.528 263.503ZM218.891 277.407C212.013 277.407 210.016 272.11 210.016 263.283C210.016 256.883 212.013 249.159 218.891 249.159C225.769 249.159 227.766 256.883 227.766 263.283C227.766 272.11 225.769 277.407 218.891 277.407ZM389.512 235.255C389.512 232.828 391.509 230.621 394.172 230.621C396.613 230.621 398.831 232.607 398.831 235.255C398.831 237.903 396.834 239.89 394.172 239.89C391.509 239.89 389.512 237.683 389.512 235.255ZM389.956 280.497V256.662C389.956 255.338 389.956 253.131 388.625 251.586C388.403 251.366 386.406 249.821 386.406 249.821V248.055L397.722 245.848L398.831 246.51V272.993C398.831 275.862 399.941 277.628 401.716 278.069L402.381 278.29V280.717L389.956 280.497ZM383.522 254.234C381.081 250.041 377.975 247.393 374.203 246.51C368.878 245.186 363.553 247.614 360.225 249.379V228.855L359.116 228.193L347.8 230.4V232.166C347.8 232.166 349.797 233.71 350.019 233.931C351.35 235.476 351.35 237.462 351.35 239.007V277.628V278.069L351.794 278.29C358.228 281.6 366.659 282.041 372.872 279.614C379.75 276.745 382.856 271.89 383.966 268.359C386.184 262.841 385.297 257.324 383.522 254.234ZM374.203 272.772C372.206 276.083 368.212 278.069 365.106 277.186C362 276.303 360.225 272.993 360.225 267.917C360.225 267.917 360.225 256.221 360.225 253.572C360.225 253.572 360.447 253.572 360.669 253.352C362.666 252.469 366.216 250.483 370.875 252.91C373.316 254.234 375.312 256.662 376.2 259.752C377.309 263.945 376.644 268.579 374.203 272.772ZM433 276.966L432.334 276.745C431.891 276.745 431.003 275.421 431.003 273.434V257.766C431.003 253.131 429.45 249.6 426.787 247.834C424.347 246.069 421.019 245.848 417.025 247.172C412.366 248.717 405.488 254.676 404.378 256L404.156 256.221V256.662C404.156 257.103 404.822 257.766 405.044 258.207L405.266 258.428H413.031C413.031 258.428 413.031 256.662 413.031 256.221C413.031 253.131 415.028 251.586 416.803 251.366C418.578 251.145 419.687 251.145 420.575 251.807C421.684 252.69 422.35 254.897 422.35 258.428V260.414L406.153 267.476L405.931 267.697V267.917C404.378 272.331 404.822 275.862 406.819 278.29C410.147 282.041 418.356 282.483 430.338 279.834C431.225 279.614 433.222 279.393 433.222 279.393C433 279.172 433 276.966 433 276.966ZM422.572 263.945V276.083C419.909 277.848 417.247 278.069 415.25 276.524C413.253 274.759 412.809 271.669 414.141 268.579L422.572 263.945Z" fill="#585858"/>
</g>
<defs>
<clipPath id="clip0_32_511">
<rect width="355" height="64" fill="white" transform="translate(78 224)"/>
</clipPath>
</defs>
</svg>
