<svg width="512" height="512" viewBox="0 0 512 512" fill="none" xmlns="http://www.w3.org/2000/svg">
<circle cx="256" cy="256" r="256" fill="#CFCFC9"/>
<path d="M214.131 269.344L213.994 235.518L246.38 223.504L213.765 212.822L213.082 179.495L193.297 206.384L160.934 196.407L179.72 224.634L161.383 252.913L193.325 242.327L214.131 269.344Z" fill="#585858"/>
<path d="M218.176 304.901H276.184L348.886 224.5L275.834 144H218.385L286.709 224.381L218.176 304.901Z" fill="#585858"/>
<path d="M89 348.179C89 337.73 97.8333 327.455 109.906 327.455C118.129 327.455 127.357 336.726 127.357 336.726L117.359 342.544C117.359 342.544 115.707 338.181 109.542 338.181C103.275 338.181 99.587 343.327 99.5437 347.997C99.4954 353.218 103.776 357.814 109.179 357.814C113.418 357.814 117.904 353.269 117.904 353.269L126.448 359.45C126.448 359.45 120.055 367.267 109.36 367.267C98.6446 367.267 89 360.805 89 348.179Z" fill="#585858"/>
<path fill-rule="evenodd" clip-rule="evenodd" d="M151.337 327.984C140.093 327.984 130.993 336.966 130.993 348.01C130.993 359.053 140.093 368 151.337 368C162.582 368 171.717 359.053 171.717 348.01C171.717 336.966 162.582 327.984 151.337 327.984ZM151.337 337.997C156.96 337.997 161.527 342.488 161.527 348.01C161.527 353.531 156.96 357.987 151.337 357.987C145.715 357.987 141.183 353.531 141.183 348.01C141.183 342.488 145.715 337.997 151.337 337.997Z" fill="#585858"/>
<path fill-rule="evenodd" clip-rule="evenodd" d="M179.359 328.55V365.983H189.16V345.752L205.329 365.983H214.988V328.55H205.152V350.426L189.16 328.55H179.359Z" fill="#585858"/>
<path fill-rule="evenodd" clip-rule="evenodd" d="M222.984 328.55L236.216 365.983H250.793L264.026 328.55H253.306L243.505 358.27L233.704 328.55H222.984Z" fill="#585858"/>
<path fill-rule="evenodd" clip-rule="evenodd" d="M271.067 328.55V365.983H301.176V357.35H280.867V351.088H299.124V343.446H280.867V337.466H301.176V328.55H271.067Z" fill="#585858"/>
<path fill-rule="evenodd" clip-rule="evenodd" d="M392.412 328.55V365.983H422.521V357.35H402.213V351.088H420.469V343.446H402.213V337.466H422.521V328.55H392.412Z" fill="#585858"/>
<path fill-rule="evenodd" clip-rule="evenodd" d="M312.25 329.258V366.16H320.954V351.619H325.943L333.585 366.16H344.801L337.229 350.38C347.073 344.478 345.125 332.124 334.151 329.258H312.25ZM320.777 338.174H330.825C334.317 338.174 334.09 343.587 330.825 343.587H320.777V338.174Z" fill="#585858"/>
<path d="M350.031 360.992C350.416 363.305 359.539 367.676 368.541 367.676C376.808 367.676 383.452 363.707 383.452 355.828C383.452 346.138 372.14 343.895 372.14 343.895C372.14 343.895 362.742 343.763 362.5 339.396C362.385 337.342 365.248 336.183 367.77 336.183C371.899 336.183 376.511 340.296 376.511 340.296L383.067 333.226C383.067 333.226 374.772 326.67 367.77 326.67C361.084 326.67 351.573 331.049 351.573 340.168C351.573 347.926 362.582 351.494 362.582 351.494C362.582 351.494 374.197 352.731 374.197 356.364C374.197 358.836 369.985 359.578 367.513 359.578C361.511 359.578 356.458 354.307 356.458 354.307L350.031 360.992Z" fill="#585858"/>
</svg>
