<svg width="512" height="512" viewBox="0 0 512 512" fill="none" xmlns="http://www.w3.org/2000/svg">
<circle cx="256" cy="256" r="256" fill="#CFCFC9"/>
<path d="M102.246 223.074C101.996 223.105 101.107 223.215 100.295 223.309C89.4982 224.548 79.8712 230.257 74.2698 238.743C69.2613 246.319 67.4358 255.903 69.1677 265.409C71.9918 280.827 84.084 291.807 100.467 293.815C102.948 294.129 108.144 294.16 110.656 293.893C118.067 293.093 123.715 290.835 128.942 286.568C130.534 285.266 132.874 282.992 134.044 281.565C137.945 276.859 136.572 269.675 131.22 266.852C128.302 265.299 125.307 265.283 122.295 266.758C121.203 267.307 120.673 267.714 119.097 269.252C115.851 272.42 113.339 274.004 110.188 274.851C108.799 275.228 108.362 275.259 105.834 275.275C102.48 275.29 101.154 275.008 98.6571 273.8C95.2868 272.153 92.9308 269.361 91.6514 265.487C90.84 263.056 90.5748 261.268 90.5748 258.429C90.5748 254.931 91.1365 252.233 92.3691 249.723C94.9124 244.578 99.5152 241.88 105.678 241.912C110.827 241.943 115.415 244.343 118.691 248.719C122.358 253.629 129.27 254.146 133.529 249.817C135.589 247.747 136.416 245.692 136.4 242.743C136.369 239.418 135.433 237.614 131.485 233.426C126.883 228.548 121.484 225.379 115.383 224.015C112.216 223.293 110.578 223.121 106.536 223.058C104.43 223.026 102.511 223.042 102.246 223.074Z" fill="#585858"/>
<path d="M241.345 223.152C225.383 224.815 212.932 235.104 209.281 249.629C208.033 254.617 207.846 260.17 208.735 265.142C210.92 277.157 218.783 286.647 230.407 291.29C239.972 295.101 251.846 295.039 261.301 291.117C272.707 286.38 280.399 276.843 282.443 264.938C283.301 259.997 283.067 254.429 281.819 249.425C280.758 245.206 278.651 240.814 275.968 237.222C274.626 235.418 271.068 231.889 269.196 230.493C263.642 226.352 257.088 223.889 249.63 223.136C247.742 222.948 243.249 222.964 241.345 223.152ZM249.068 241.881C255.169 243.057 259.366 247.653 260.599 254.523C261.332 258.633 260.88 263.479 259.429 266.93C257.9 270.538 255.185 273.314 251.846 274.695C249.849 275.51 248.46 275.745 245.636 275.745C243.358 275.745 242.781 275.698 241.579 275.385C235.556 273.816 231.687 269.314 230.485 262.46C230.142 260.531 230.142 256.797 230.485 254.837C231.859 247.151 236.539 242.492 243.763 241.645C245.105 241.488 247.602 241.598 249.068 241.881Z" fill="#585858"/>
<path d="M326.693 223.215C317.815 224.328 310.544 227.638 304.802 233.175C296.298 241.363 292.725 253.566 295.19 266.005C296.72 273.722 300.729 280.592 306.596 285.517C309.327 287.807 313.181 290.066 316.629 291.415C321.903 293.47 328.425 294.442 334.416 294.035C342.592 293.501 348.209 291.556 353.92 287.306C355.823 285.894 359.833 281.91 360.629 280.655C362.252 278.051 362.626 274.945 361.643 272.122C360.239 268.107 356.182 265.409 351.969 265.707C349.192 265.895 347.803 266.585 345.12 269.157C341.063 273.032 338.364 274.553 334.447 275.149C331.295 275.636 327.52 275.196 324.914 274.036C320.686 272.153 317.752 267.997 316.769 262.507C316.442 260.672 316.395 256.531 316.691 254.743C317.721 248.406 321.528 243.904 327.067 242.445C333.589 240.72 340.251 243.026 344.324 248.406C345.556 250.021 346.617 250.947 348.131 251.684C351.017 253.127 354.013 253.127 356.884 251.7C360.27 250.006 362.283 246.774 362.314 242.978C362.33 240.375 361.596 238.414 359.817 236.218C354.575 229.771 349.051 226.007 342.171 224.219C338.988 223.387 336.725 223.121 332.388 223.058C329.61 223.011 327.972 223.058 326.693 223.215Z" fill="#585858"/>
<path d="M397.218 223.089C392.225 223.56 388.839 224.407 385.578 225.975C379.789 228.752 376.357 233.018 374.89 239.292C374.484 241.002 374.313 245.927 374.578 247.966C375.608 255.778 380.32 261.362 388.636 264.671C390.618 265.456 393.223 266.224 397.608 267.291C406.985 269.565 408.186 270.004 408.92 271.447C409.341 272.263 409.341 273.753 408.935 274.553C408.062 276.263 406.174 276.906 401.555 277.047C395.111 277.251 391.086 275.981 385.391 271.902C383.253 270.365 382.286 269.926 380.444 269.691C376.622 269.173 372.768 271.651 371.426 275.494C370.958 276.843 370.958 279.478 371.442 280.89C371.785 281.863 372.627 283.321 373.298 284.074C374.422 285.345 378.135 288.058 380.601 289.407C387.669 293.282 397.483 294.866 407.593 293.784C418.625 292.591 425.63 287.776 428.158 279.682C428.954 277.126 429.359 274.396 429.359 271.494C429.359 265.863 427.612 261.503 423.93 257.927C420.013 254.131 414.927 251.825 406.22 249.864C398.357 248.107 396.687 247.621 395.22 246.68C393.957 245.849 393.566 245.112 393.551 243.59C393.551 242.649 393.613 242.398 393.988 241.833C394.752 240.657 396.094 240.061 398.622 239.747C403.74 239.12 409.169 240.892 413.913 244.735C415.91 246.351 417.517 246.978 419.686 246.978C422.479 246.978 424.85 245.739 426.488 243.433C428.283 240.908 428.532 237.818 427.191 234.979C426.52 233.551 425.474 232.328 423.43 230.587C418.375 226.273 412.462 223.905 404.879 223.136C403.412 222.995 398.528 222.948 397.218 223.089Z" fill="#585858"/>
<path d="M157.355 224.078C153.517 224.689 150.537 226.917 148.883 230.415C147.822 232.658 147.868 231.073 147.915 259.417L147.962 285.016L148.43 286.349C149.6 289.721 152.331 292.325 155.841 293.439C157.324 293.894 160.039 293.941 161.615 293.517C164.641 292.717 167.372 290.459 168.714 287.682C169.79 285.439 169.775 285.706 169.884 275.134C169.978 266.256 170.009 265.44 170.321 263.699C170.742 261.456 171.023 260.342 171.554 258.852C173.738 252.751 178.044 248.704 183.661 247.512C185.222 247.182 186.595 247.245 188.779 247.716C191.463 248.28 194.287 248.312 195.863 247.794C197.532 247.229 198.999 246.288 200.388 244.877C202.51 242.712 203.493 240.296 203.493 237.253C203.477 235.261 203.196 234.038 202.338 232.313C201.137 229.897 199.654 228.47 196.955 227.121C194.271 225.787 193.335 225.584 189.7 225.584C186.22 225.584 184.551 225.819 181.867 226.681C177.935 227.952 173.988 230.289 170.945 233.144C170.383 233.677 169.884 234.116 169.822 234.116C169.775 234.116 169.728 233.897 169.728 233.63C169.728 232.218 168.495 229.411 167.2 227.874C165.781 226.195 163.69 224.878 161.583 224.329C160.398 224.031 158.463 223.905 157.355 224.078Z" fill="#585858"/>
<path d="M434.756 226.813H435.067V225.125C435.067 224.673 435.079 224.318 435.103 224.06C435.127 223.803 435.194 223.582 435.304 223.397C435.415 223.205 435.573 223.049 435.78 222.929C435.987 222.809 436.217 222.749 436.472 222.749C436.831 222.749 437.155 222.882 437.444 223.15C437.637 223.328 437.759 223.546 437.811 223.803C437.863 224.06 437.889 224.426 437.889 224.899V226.813H438.922C439.322 226.813 439.627 226.907 439.837 227.096C440.048 227.285 440.153 227.526 440.153 227.821C440.153 228.199 440.003 228.463 439.703 228.614C439.403 228.765 438.974 228.84 438.416 228.84H437.889V234.006C437.889 234.445 437.904 234.782 437.935 235.019C437.966 235.256 438.049 235.448 438.183 235.595C438.318 235.743 438.537 235.817 438.84 235.817C439.005 235.817 439.229 235.787 439.512 235.729C439.794 235.671 440.015 235.642 440.173 235.642C440.401 235.642 440.606 235.732 440.788 235.914C440.971 236.096 441.062 236.321 441.062 236.588C441.062 237.041 440.814 237.387 440.318 237.628C439.822 237.868 439.109 237.988 438.178 237.988C437.296 237.988 436.628 237.84 436.173 237.545C435.718 237.25 435.42 236.842 435.278 236.321C435.137 235.799 435.067 235.103 435.067 234.232V228.84H434.694C434.288 228.84 433.978 228.744 433.764 228.552C433.55 228.36 433.443 228.116 433.443 227.821C433.443 227.526 433.555 227.285 433.779 227.096C434.003 226.907 434.329 226.813 434.756 226.813Z" fill="#585858"/>
<path d="M451.473 232.483V236.218C451.473 236.808 451.338 237.25 451.069 237.545C450.801 237.84 450.446 237.988 450.005 237.988C449.577 237.988 449.231 237.84 448.966 237.545C448.7 237.25 448.568 236.808 448.568 236.218V231.742C448.568 231.035 448.543 230.486 448.495 230.095C448.447 229.704 448.316 229.384 448.102 229.133C447.889 228.883 447.551 228.758 447.089 228.758C446.166 228.758 445.558 229.073 445.265 229.704C444.972 230.335 444.825 231.241 444.825 232.421V236.218C444.825 236.801 444.693 237.242 444.427 237.54C444.162 237.838 443.812 237.988 443.378 237.988C442.951 237.988 442.601 237.838 442.329 237.54C442.057 237.242 441.92 236.801 441.92 236.218V228.181C441.92 227.653 442.043 227.252 442.287 226.978C442.532 226.703 442.854 226.566 443.254 226.566C443.64 226.566 443.962 226.695 444.221 226.952C444.479 227.209 444.608 227.564 444.608 228.017V228.284C445.098 227.701 445.621 227.272 446.18 226.998C446.738 226.724 447.358 226.587 448.04 226.586C448.75 226.587 449.36 226.727 449.87 227.008C450.38 227.29 450.801 227.715 451.131 228.284C451.607 227.708 452.117 227.281 452.661 227.003C453.206 226.725 453.809 226.587 454.47 226.586C455.242 226.587 455.907 226.737 456.466 227.039C457.024 227.341 457.441 227.773 457.717 228.336C457.958 228.843 458.078 229.643 458.078 230.733V236.218C458.078 236.808 457.944 237.25 457.675 237.545C457.406 237.84 457.051 237.988 456.61 237.988C456.183 237.988 455.833 237.838 455.561 237.54C455.289 237.242 455.153 236.801 455.153 236.218V231.495C455.153 230.891 455.127 230.407 455.075 230.044C455.024 229.68 454.884 229.375 454.657 229.128C454.429 228.881 454.085 228.758 453.623 228.758C453.251 228.758 452.897 228.867 452.563 229.087C452.229 229.306 451.969 229.601 451.783 229.972C451.576 230.445 451.473 231.282 451.473 232.483Z" fill="#585858"/>
</svg>
