<svg width="512" height="512" viewBox="0 0 512 512" fill="none" xmlns="http://www.w3.org/2000/svg">
<circle cx="256" cy="256" r="256" fill="#CFCFC9"/>
<path d="M152.898 269.978H162.756V326.712V339.045C162.756 345.622 157.827 349.734 152.077 349.734C146.326 349.734 142.218 344.8 142.218 339.045V327.534V189.4V177.067C142.218 172.956 143.04 162.267 150.433 162.267C157.006 162.267 161.113 168.022 162.756 177.067C165.221 186.111 166.864 206.667 166.864 215.711C166.864 219 167.686 219.822 171.793 219.822C174.258 219.822 179.187 219.822 179.187 219.822V159.8H172.615V163.089C172.615 166.378 170.972 165.556 169.329 164.734C163.578 160.622 157.006 158.156 150.433 158.156C140.575 158.156 125.788 162.267 125.788 182V325.067C125.788 349.734 138.932 354.667 152.077 354.667C161.935 354.667 166.864 349.734 170.15 347.267C172.615 345.622 175.079 348.912 175.079 353.022H180.009V270.8H188.224V265.045H152.898V269.978Z" fill="#585858"/>
<path d="M357.459 159.8H322.954V165.555H331.992V173.778V341.511C331.992 345.622 330.349 346.444 324.598 347.266H322.954V352.2H362.388V347.266H357.459C350.887 347.266 348.422 343.978 348.422 338.222V269.978H359.924C376.354 269.978 386.212 261.755 386.212 251.066V215.711V180.355C386.212 169.666 377.997 159.8 357.459 159.8ZM369.782 214.066V251.888C369.782 257.644 365.674 263.4 358.281 263.4H348.422V214.889V165.555H357.459C365.674 165.555 369.782 172.955 369.782 177.889V214.066Z" fill="#585858"/>
<path d="M237.515 264.222L246.553 186.933L257.233 264.222H237.515ZM283.521 338.222L261.34 159.8H244.088L221.907 339.045C221.085 344.8 220.263 346.444 212.048 346.444V347.266V351.378H239.98V346.444C236.694 346.444 233.408 345.622 231.765 343.978C230.943 343.155 230.122 341.511 230.122 339.866L238.337 269.155H259.697L268.734 339.866C268.734 343.978 267.912 345.622 262.983 346.444H258.875V351.378H294.201V346.444H293.38C285.986 346.444 283.521 342.333 283.521 338.222Z" fill="#585858"/>
</svg>
