<svg width="512" height="512" viewBox="0 0 512 512" fill="none" xmlns="http://www.w3.org/2000/svg">
<circle cx="256" cy="256" r="256" fill="#CFCFC9"/>
<g clip-path="url(#clip0_32_927)">
<path d="M104.263 256.342L105.29 256.462C109.499 256.688 110.859 257.486 111.316 257.831C111.66 258.171 112.456 259.308 112.456 263.756V278.829C112.513 279.4 112.35 279.971 111.999 280.425C111.773 280.651 111.09 281.11 108.24 282.021C106.88 282.499 105.467 282.807 104.031 282.938C102.751 283.149 101.457 283.262 100.16 283.277C97.1333 283.318 94.1317 282.72 91.3506 281.52C88.5696 280.321 86.0714 278.548 84.0187 276.316C79.6905 271.635 77.4418 265.007 77.4418 256.688C77.4418 246.535 79.6028 239.096 84.0438 234.698C88.4534 230.451 93.5708 228.164 99.2583 228.164C104.946 228.164 109.38 229.986 112.907 233.755C114.84 235.925 116.774 239.234 118.707 243.682L119.052 244.367H123.167L122.353 222.226H118.369L118.031 222.911C117.805 223.602 117.418 224.228 116.903 224.739C116.678 224.966 116.22 225.198 114.748 225.198C114.629 225.198 113.608 225.079 108.942 223.715C105.316 222.671 101.565 222.131 97.7926 222.113C87.4637 222.113 78.9013 225.77 72.6438 232.964C66.957 239.403 63.8741 247.741 63.9999 256.342C63.9999 266.615 67.6391 275.059 74.9363 281.216C81.4255 286.808 89.4994 289.548 99.0516 289.548C104.52 289.506 109.943 288.542 115.093 286.695C122.484 284.182 123.962 282.699 123.962 281.216V262.619C123.962 259.993 124.532 258.171 125.441 257.373C125.779 257.14 126.693 256.682 129.418 256.456L130.445 256.342V252.441H104.263V256.342ZM197.88 227.246L198.907 227.366C201.977 227.705 204.138 228.39 205.171 229.533C205.741 230.099 206.649 232.153 206.649 238.43V263.078C206.649 268.896 205.967 273.231 204.601 275.97C202.096 280.764 197.435 283.158 190.044 283.158C183.449 283.158 179.008 280.877 176.734 276.196C175.481 273.57 174.798 269.807 174.798 265.132V234.666C174.798 230.557 175.594 229.301 176.051 228.848C176.508 228.396 177.987 227.592 182.421 227.366L183.442 227.253V223.257H154.542V227.246L155.563 227.366C159.891 227.705 161.369 228.503 161.826 228.961C162.284 229.42 163.079 230.67 163.079 234.779V264.309C163.079 270.353 164.1 275.26 166.267 279.024C170.132 285.985 177.542 289.642 188.103 289.642C198.795 289.642 206.192 285.985 210.17 278.917C212.218 275.147 213.358 269.788 213.358 263.059V238.317C213.358 232.159 214.266 230.218 214.836 229.521C215.519 228.723 217.11 227.692 221.206 227.24L222.227 227.127V223.257H198.112V227.253L197.88 227.246ZM298.663 270.605C296.389 275.738 293.771 278.936 291.046 280.192C288.203 281.562 283.53 282.247 277.392 282.247C270.226 282.247 267.839 282.021 267.044 281.788C266.818 281.675 266.136 281.562 266.136 279.508V257.26H279.559C284.338 257.26 285.929 258.171 286.38 258.629C287.063 259.314 287.977 261.023 288.773 265.358L288.998 266.269H293.32V242.193H288.998L288.773 243.111C287.977 247.333 287.063 249.155 286.38 249.84C285.929 250.411 284.338 251.322 279.559 251.322H266.136V231.217C266.136 229.734 266.361 229.389 266.361 229.389C266.905 229.178 267.491 229.1 268.071 229.163H280.924C287.52 229.163 290.025 230.074 290.946 230.758C291.867 231.443 293.22 233.385 294.128 238.179L294.354 239.09H298.907L298.337 223.231H245.885V227.246L246.912 227.366C251.115 227.705 252.481 228.503 252.938 228.961C253.395 229.42 254.072 230.784 254.072 234.779V276.875C254.072 281.21 253.276 282.354 252.938 282.693C252.481 283.152 251.003 283.836 246.793 284.295L245.772 284.408V288.285H298.776L303.668 270.064H298.776L298.663 270.605ZM360.774 251.435L352.468 246.302C350.023 244.89 347.8 243.122 345.873 241.056C344.585 239.527 343.896 237.579 343.937 235.577C343.881 234.529 344.079 233.482 344.516 232.528C344.952 231.573 345.613 230.74 346.443 230.099C348.155 228.733 350.287 228.007 352.474 228.044C355.544 228.044 358.738 229.188 361.914 231.468C365.09 233.749 367.376 237.751 368.854 243.563L369.08 244.474H373.514L371.209 222H367.338L367.113 222.798C366.958 223.485 366.689 224.142 366.317 224.739C365.894 225.058 365.373 225.218 364.845 225.192C364.726 225.192 363.931 225.079 359.947 223.709C357.342 222.688 354.586 222.11 351.792 222C346.33 222 341.77 223.709 338.369 227.133C336.688 228.798 335.367 230.791 334.486 232.99C333.606 235.188 333.185 237.544 333.251 239.913C333.251 243.789 334.723 247.326 337.567 250.638C339.366 252.519 341.392 254.167 343.599 255.544L351.673 260.571C356.226 263.423 359.189 265.597 360.548 266.961C361.518 267.906 362.281 269.043 362.79 270.3C363.299 271.557 363.542 272.905 363.505 274.261C363.505 277.346 362.597 279.74 360.661 281.449C358.71 283.161 356.2 284.096 353.608 284.075C348.378 284.075 344.056 282.021 340.53 277.912C338.481 275.518 336.659 272.207 335.068 268.104L334.842 267.419H330.633L333.815 289.893H337.799L337.911 288.982C338.022 288.335 338.254 287.715 338.594 287.154C338.713 286.815 339.164 286.695 339.847 286.695C339.96 286.695 340.874 286.815 344.964 288.297C348.034 289.395 351.264 289.972 354.523 290.006C360.548 290.006 365.672 288.184 369.556 284.76C371.471 283.136 373.005 281.107 374.047 278.818C375.089 276.529 375.613 274.038 375.581 271.522C375.656 267.774 374.454 264.112 372.174 261.143C369.869 257.831 366.117 254.747 360.774 251.435ZM443.699 260.565C441.538 257.831 437.667 254.747 432.424 251.435L424.119 246.302C421.688 244.886 419.478 243.118 417.561 241.056C416.273 239.527 415.584 237.579 415.625 235.577C415.569 234.529 415.767 233.482 416.204 232.528C416.64 231.573 417.301 230.74 418.131 230.099C419.843 228.733 421.975 228.007 424.162 228.044C427.232 228.044 430.426 229.188 433.602 231.468C436.778 233.749 439.064 237.751 440.542 243.563L440.768 244.474H445.202L442.897 222H439.026L438.801 222.798C438.646 223.485 438.377 224.142 438.005 224.739C437.58 225.059 437.057 225.219 436.527 225.192C436.414 225.192 435.619 225.079 431.635 223.709C429.018 222.684 426.249 222.107 423.442 222C417.986 222 413.42 223.709 410.019 227.133C408.34 228.799 407.019 230.792 406.139 232.99C405.258 235.189 404.837 237.545 404.902 239.913C404.902 243.789 406.38 247.326 409.224 250.638C411.02 252.519 413.045 254.167 415.249 255.544L423.329 260.571C427.877 263.423 430.846 265.597 432.205 266.961C433.173 267.907 433.936 269.044 434.445 270.301C434.954 271.557 435.198 272.906 435.162 274.261C435.162 277.346 434.247 279.74 432.205 281.449C430.249 283.157 427.739 284.091 425.146 284.075C419.916 284.075 415.594 282.021 412.067 277.912C410.019 275.518 408.196 272.207 406.605 268.104L406.38 267.419H402.171L405.353 289.893H409.336L409.449 288.982C409.568 288.353 409.759 287.739 410.019 287.154C410.132 286.815 410.583 286.695 411.272 286.695C411.391 286.695 412.299 286.815 416.395 288.297C419.463 289.395 422.691 289.973 425.948 290.006C431.98 290.006 437.097 288.184 440.98 284.76C442.896 283.134 444.429 281.104 445.469 278.814C446.51 276.524 447.033 274.032 447 271.516C447.106 266.954 445.973 263.53 443.699 260.565Z" fill="#585858"/>
</g>
<defs>
<clipPath id="clip0_32_927">
<rect width="383" height="68" fill="white" transform="translate(64 222)"/>
</clipPath>
</defs>
</svg>
