<svg width="512" height="512" viewBox="0 0 512 512" fill="none" xmlns="http://www.w3.org/2000/svg">
<circle cx="256" cy="256" r="256" fill="#CFCFC9"/>
<path d="M96.1138 236.839C96.2934 237.061 96.4099 237.328 96.4513 237.611C96.4926 237.894 96.4572 238.183 96.3489 238.447V312.457C96.3324 313.062 96.085 313.638 95.6575 314.066C95.23 314.494 94.6549 314.742 94.0506 314.758H87.5214C86.9173 314.745 86.3419 314.498 85.9158 314.069C85.4898 313.64 85.2462 313.062 85.2362 312.457V282.121C85.2332 281.813 85.1627 281.509 85.0295 281.231C84.8964 280.953 84.704 280.708 84.4658 280.512C84.0123 280.076 83.4102 279.828 82.7813 279.819H74.9463C74.3683 279.851 73.8231 280.098 73.4185 280.512C73.182 280.708 72.9915 280.954 72.8606 281.232C72.7297 281.51 72.6616 281.813 72.6611 282.121V312.457C72.6446 313.062 72.3972 313.638 71.9697 314.066C71.5422 314.494 70.9671 314.742 70.3628 314.758H63.2983C62.7203 314.727 62.1751 314.48 61.7704 314.065C61.5323 313.87 61.3398 313.625 61.2067 313.347C61.0736 313.069 61.003 312.765 61 312.457V238.447C61.0202 238.154 61.0988 237.867 61.2311 237.604C61.3634 237.342 61.5468 237.108 61.7704 236.917C61.9598 236.691 62.1926 236.505 62.455 236.37C62.7174 236.235 63.0042 236.155 63.2983 236.133H70.3367C70.6445 236.136 70.9479 236.206 71.2254 236.34C71.503 236.473 71.7479 236.666 71.9429 236.904C72.3567 237.309 72.6037 237.855 72.635 238.434V266.207C72.6528 266.5 72.7291 266.786 72.8591 267.049C72.9892 267.312 73.1705 267.546 73.3923 267.737C73.5829 267.961 73.8162 268.145 74.0785 268.277C74.3409 268.41 74.627 268.488 74.9202 268.509H82.7552C83.0735 268.501 83.3869 268.429 83.6765 268.296C83.9661 268.164 84.2257 267.973 84.4397 267.737C84.6586 267.544 84.8371 267.31 84.9648 267.047C85.0926 266.784 85.1671 266.499 85.184 266.207V238.447C85.1964 237.877 85.4198 237.332 85.8108 236.917C86.0101 236.669 86.2628 236.47 86.5501 236.334C86.8373 236.198 87.1515 236.129 87.4692 236.133H94.5076C94.8123 236.113 95.1171 236.167 95.3966 236.29C95.6761 236.413 95.9221 236.601 96.1138 236.839ZM143.124 310.156C146.182 306.101 147.8 301.14 147.72 296.06V255.616C147.956 250.45 146.386 245.364 143.28 241.232C141.604 239.287 139.504 237.751 137.144 236.743C134.783 235.734 132.224 235.279 129.661 235.413C127.113 235.278 124.57 235.747 122.238 236.78C119.905 237.814 117.849 239.384 116.237 241.363C113.232 245.489 111.713 250.514 111.927 255.616V295.759C111.692 300.925 113.262 306.011 116.367 310.143C118.005 312.095 120.074 313.639 122.411 314.651C124.748 315.663 127.288 316.117 129.83 315.975C132.354 316.113 134.875 315.659 137.192 314.649C139.509 313.638 141.558 312.1 143.176 310.156H143.124ZM135.628 295.301C135.801 297.568 135.32 299.837 134.244 301.839C133.67 302.547 132.929 303.099 132.087 303.446C131.245 303.793 130.331 303.924 129.426 303.827C128.521 303.924 127.606 303.793 126.764 303.446C125.923 303.099 125.181 302.547 124.607 301.839C123.542 299.834 123.067 297.567 123.236 295.301V255.616C123.07 253.351 123.545 251.085 124.607 249.078C125.167 248.35 125.904 247.777 126.747 247.416C127.591 247.054 128.513 246.915 129.426 247.012C130.338 246.915 131.26 247.054 132.104 247.416C132.947 247.777 133.684 248.35 134.244 249.078C135.317 251.081 135.797 253.349 135.628 255.616V295.301ZM164.827 314.065C164.608 313.868 164.454 313.608 164.386 313.32C164.319 313.033 164.34 312.732 164.448 312.457V238.447C164.474 237.867 164.722 237.319 165.14 236.917C165.337 236.673 165.585 236.476 165.868 236.34C166.15 236.204 166.459 236.133 166.772 236.133H173.811C174.119 236.136 174.422 236.206 174.7 236.34C174.977 236.473 175.222 236.666 175.417 236.904C175.827 237.311 176.07 237.857 176.096 238.434V300.806C176.102 301.114 176.173 301.417 176.306 301.695C176.439 301.972 176.63 302.218 176.866 302.415C177.272 302.825 177.818 303.068 178.394 303.095H192.014C192.332 303.102 192.646 303.175 192.935 303.307C193.225 303.44 193.485 303.63 193.699 303.866C193.922 304.057 194.106 304.291 194.238 304.553C194.37 304.816 194.449 305.103 194.469 305.396V312.444C194.466 312.752 194.396 313.056 194.262 313.334C194.129 313.612 193.937 313.857 193.699 314.052C193.245 314.489 192.643 314.737 192.014 314.745H166.433C166.133 314.747 165.836 314.688 165.56 314.571C165.284 314.454 165.034 314.282 164.827 314.065ZM180.209 204.58C184.552 205.001 188.925 205.001 193.268 204.58C195.43 204.339 197.544 203.77 199.536 202.894C201.538 202.108 203.484 201.186 205.36 200.134L207.971 198.827L222.819 208.176C222.264 208.563 221.674 208.896 221.056 209.17C220.486 209.411 219.947 209.718 219.45 210.085C218.779 210.545 218.061 210.931 217.308 211.236C216.252 212.299 215.327 213.484 214.553 214.766L214.174 215.211C214.174 215.407 213.926 215.669 213.417 215.969C213.054 216.229 212.632 216.391 212.189 216.44L211.275 217.042C209.643 218.271 208.82 219.095 208.82 219.5C208.62 220.415 208.698 221.03 209.055 221.344C209.371 221.507 209.717 221.604 210.072 221.629C210.427 221.654 210.783 221.606 211.118 221.488C212.546 220.982 214.231 220.472 216.172 219.958L218.47 219.5L226.305 221.801L228.76 222.416C230.919 222.837 233.098 223.142 235.289 223.331C238.595 223.632 241.921 223.632 245.227 223.331C246.054 223.331 250.594 222.412 258.847 220.572L270.939 217.957C280.018 220.511 285.068 222.041 286.086 222.547C287.905 222.973 289.803 222.924 291.597 222.403C293.86 222.063 296.06 221.389 298.126 220.402C300.441 218.861 302.462 216.916 304.094 214.662C305.727 213.04 306.981 211.075 307.763 208.908C307.763 208.098 302.54 207.078 292.093 205.849L289.181 205.391C286.839 205.286 283.627 205.182 279.544 205.077H273.877C275.522 201.102 277.411 196.813 279.544 192.21C282.283 185.678 285.885 179.543 290.252 173.969C293.918 171.155 298.517 169.841 303.114 170.295C307.11 170.164 313.53 170.408 322.375 171.027L332.613 171.642C335.022 171.815 337.443 171.657 339.808 171.171C342.655 170.36 342.55 169.288 339.495 167.955C335.546 166.419 331.503 165.139 327.39 164.123C323.133 162.907 320.129 161.979 318.393 161.364C315.725 160.682 313.016 160.171 310.283 159.834C308.338 159.638 305.543 159.377 301.861 159.076H300.947C297.458 158.891 293.959 159.044 290.5 159.534L286.582 159.834C283.631 160.044 277.359 164.694 267.765 173.786C259.391 181.754 250.772 190.846 241.91 201.063C235.12 195.907 228.067 191.106 220.782 186.679C217.621 184.836 215.375 183.62 214.057 183.005C212.54 182.344 210.889 182.052 209.238 182.155C207.511 182.471 205.899 183.238 204.563 184.378C199.161 187.579 193.594 190.494 187.888 193.113C181.254 196.382 176.714 198.683 174.268 200.017C170.289 202.161 168.709 203.334 169.528 203.534C173.061 204.119 176.63 204.469 180.209 204.58ZM234.532 314.065C234.389 314.262 234.205 314.426 233.993 314.546C233.782 314.665 233.547 314.738 233.305 314.758H207.606C207.305 314.759 207.007 314.697 206.731 314.578C206.455 314.459 206.206 314.284 206 314.065C205.778 313.861 205.602 313.612 205.483 313.335C205.364 313.058 205.304 312.759 205.307 312.457V238.447C205.32 237.874 205.548 237.328 205.947 236.917C206.142 236.679 206.387 236.486 206.665 236.353C206.942 236.219 207.246 236.149 207.553 236.146H214.592C215.17 236.23 215.705 236.501 216.117 236.915C216.529 237.33 216.796 237.868 216.877 238.447V300.819C216.879 301.12 216.942 301.418 217.06 301.694C217.179 301.97 217.352 302.22 217.569 302.428C217.776 302.645 218.026 302.818 218.302 302.934C218.578 303.051 218.875 303.11 219.175 303.108H232.847C233.155 303.111 233.459 303.181 233.736 303.315C234.014 303.448 234.259 303.641 234.454 303.879C234.868 304.284 235.114 304.83 235.146 305.409V312.457C235.151 313.052 234.932 313.626 234.532 314.065ZM259.787 314.065C259.333 314.502 258.731 314.75 258.102 314.758H251.207C250.583 314.748 249.985 314.5 249.536 314.065C249.296 313.872 249.102 313.627 248.968 313.349C248.835 313.07 248.766 312.766 248.766 312.457V238.447C248.783 238.153 248.86 237.865 248.993 237.602C249.125 237.339 249.31 237.106 249.536 236.917C249.748 236.682 250.005 236.492 250.293 236.36C250.58 236.227 250.891 236.154 251.207 236.146H258.102C258.421 236.153 258.734 236.226 259.024 236.358C259.313 236.491 259.573 236.681 259.787 236.917C260.009 237.109 260.19 237.343 260.32 237.605C260.45 237.868 260.526 238.154 260.544 238.447V312.457C260.544 312.764 260.475 313.068 260.345 313.346C260.214 313.624 260.023 313.87 259.787 314.065ZM290.239 262.808C292.356 265.421 294.656 267.882 297.121 270.169C299.387 272.291 301.532 274.539 303.545 276.904C305.697 279.354 307.498 282.091 308.899 285.037C310.325 288.27 311.054 291.767 311.041 295.301C311.411 300.762 309.63 306.152 306.079 310.313C304.337 312.077 302.244 313.455 299.936 314.356C297.627 315.257 295.155 315.661 292.681 315.543C290.495 315.578 288.328 315.144 286.323 314.272C284.319 313.399 282.524 312.107 281.059 310.483C278.097 306.839 276.236 302.426 275.692 297.76C275.478 296.955 275.505 296.104 275.77 295.314C275.859 295.097 275.993 294.901 276.164 294.741C276.336 294.581 276.54 294.46 276.763 294.386L283.292 293.078C283.63 292.986 283.987 292.987 284.325 293.082C284.663 293.176 284.969 293.36 285.211 293.615C285.806 294.066 286.259 294.679 286.517 295.38L286.831 297.668C287.17 299.156 287.795 300.564 288.672 301.813C289.26 302.513 290 303.069 290.835 303.441C291.669 303.812 292.577 303.989 293.49 303.958C294.37 303.996 295.249 303.86 296.076 303.557C296.903 303.254 297.662 302.791 298.309 302.192C298.955 301.492 299.45 300.667 299.764 299.767C300.079 298.867 300.206 297.913 300.137 296.962C300.056 293.754 298.989 290.649 297.081 288.07C294.888 285.38 292.537 282.821 290.043 280.408C287.761 278.371 285.615 276.187 283.618 273.87C281.501 271.425 279.742 268.691 278.395 265.75C277.047 262.338 276.372 258.696 276.41 255.027C276.074 249.813 277.742 244.667 281.072 240.644C282.794 238.909 284.866 237.562 287.149 236.691C289.432 235.821 291.875 235.448 294.313 235.597C297.121 235.537 299.871 236.395 302.148 238.042C304.105 239.52 305.721 241.401 306.888 243.56C307.751 245.32 308.417 247.171 308.873 249.078L309.487 251.523C309.687 252.219 309.607 252.965 309.265 253.602C309.163 253.917 308.969 254.194 308.708 254.397C308.448 254.599 308.132 254.719 307.802 254.74L301.691 255.511C301.165 255.536 300.647 255.374 300.228 255.054C299.894 254.778 299.656 254.402 299.549 253.981L299.393 253.524C299.357 252.544 299.12 251.583 298.698 250.699C298.276 249.815 297.677 249.027 296.938 248.385C296.321 247.83 295.593 247.414 294.802 247.163C294.012 246.913 293.177 246.835 292.354 246.933C288.985 247.23 287.301 249.937 287.301 255.054C287.437 257.884 288.465 260.599 290.239 262.808ZM353.506 236.917C353.697 237.117 353.826 237.367 353.879 237.638C353.932 237.909 353.907 238.19 353.807 238.447V245.495C353.79 246.1 353.543 246.676 353.115 247.104C352.688 247.532 352.113 247.78 351.508 247.796H344.979C344.672 247.797 344.369 247.865 344.092 247.996C343.814 248.127 343.569 248.318 343.373 248.555C342.938 249.01 342.691 249.612 342.681 250.242V312.457C342.68 312.764 342.612 313.068 342.481 313.346C342.351 313.624 342.16 313.87 341.924 314.065C341.47 314.502 340.868 314.75 340.239 314.758H333.357C332.728 314.75 332.126 314.502 331.673 314.065C331.435 313.87 331.242 313.625 331.109 313.347C330.976 313.069 330.905 312.765 330.902 312.457V250.242C330.898 249.611 330.65 249.007 330.21 248.555C330.015 248.318 329.769 248.127 329.492 247.996C329.214 247.865 328.911 247.797 328.604 247.796H322.075C321.775 247.794 321.478 247.732 321.202 247.613C320.926 247.494 320.677 247.321 320.469 247.103C320.252 246.896 320.08 246.646 319.963 246.37C319.846 246.093 319.787 245.795 319.79 245.495V238.447C319.816 237.87 320.059 237.324 320.469 236.917C320.825 236.476 321.342 236.193 321.905 236.133H351.939C352.244 236.13 352.545 236.199 352.817 236.335C353.09 236.472 353.326 236.671 353.506 236.917ZM398.649 305.867V312.915C398.606 313.511 398.329 314.065 397.878 314.458C397.664 314.692 397.404 314.88 397.114 315.011C396.825 315.141 396.511 315.211 396.194 315.216H368.132C367.837 315.2 367.549 315.124 367.284 314.994C367.019 314.864 366.783 314.681 366.591 314.458C366.144 314.064 365.872 313.509 365.833 312.915V238.905C365.834 238.597 365.902 238.294 366.033 238.016C366.164 237.738 366.354 237.492 366.591 237.296C366.999 236.88 367.549 236.633 368.132 236.603H394.601C395.205 236.62 395.78 236.868 396.208 237.296C396.635 237.724 396.883 238.3 396.899 238.905V245.953C396.868 246.531 396.621 247.077 396.207 247.483C396.012 247.721 395.767 247.914 395.49 248.047C395.212 248.18 394.909 248.251 394.601 248.254H379.91C379.281 248.263 378.679 248.511 378.226 248.947C377.993 249.138 377.803 249.377 377.67 249.648C377.537 249.918 377.464 250.215 377.455 250.516V266.207C377.476 266.501 377.554 266.787 377.686 267.05C377.819 267.313 378.002 267.546 378.226 267.737C378.44 267.973 378.699 268.164 378.989 268.296C379.278 268.429 379.592 268.501 379.91 268.509H390.357C390.664 268.509 390.967 268.577 391.244 268.709C391.522 268.84 391.767 269.03 391.963 269.267C392.375 269.679 392.621 270.228 392.655 270.81V277.858C392.639 278.463 392.391 279.039 391.964 279.467C391.536 279.895 390.961 280.143 390.357 280.159H379.91C379.593 280.165 379.28 280.235 378.99 280.365C378.7 280.495 378.44 280.683 378.226 280.918C378.002 281.109 377.819 281.342 377.686 281.605C377.554 281.868 377.476 282.154 377.455 282.448V300.846C377.461 301.153 377.533 301.456 377.666 301.734C377.799 302.011 377.99 302.257 378.226 302.454C378.68 302.888 379.283 303.131 379.91 303.134H396.129C397.252 303.108 398.061 304.036 398.584 305.867H398.649ZM440.109 279.048C442.551 277.738 444.529 275.706 445.776 273.229C447.682 268.944 448.575 264.278 448.388 259.591C448.603 256.217 448.077 252.836 446.847 249.687C445.618 246.538 443.715 243.697 441.271 241.363C437.048 237.792 431.647 235.927 426.124 236.133H414.489C414.17 236.14 413.857 236.213 413.567 236.345C413.278 236.478 413.018 236.668 412.804 236.904C412.582 237.096 412.401 237.33 412.271 237.592C412.141 237.855 412.065 238.141 412.047 238.434V312.444C412.047 312.751 412.115 313.055 412.246 313.333C412.377 313.611 412.568 313.856 412.804 314.052C413.258 314.489 413.86 314.737 414.489 314.745H421.41C422.039 314.737 422.641 314.489 423.094 314.052C423.331 313.856 423.521 313.611 423.652 313.333C423.783 313.055 423.851 312.751 423.851 312.444V284.88C423.86 284.25 424.108 283.647 424.544 283.193C424.739 282.955 424.983 282.762 425.261 282.629C425.539 282.495 425.842 282.425 426.15 282.422H428.135C428.631 282.459 429.095 282.678 429.44 283.036C429.873 283.415 430.213 283.89 430.433 284.422L438.268 312.457C438.426 313.105 438.771 313.692 439.26 314.144C439.752 314.559 440.38 314.778 441.023 314.758H448.362C448.632 314.749 448.895 314.675 449.131 314.544C449.366 314.412 449.567 314.226 449.716 314.001C449.865 313.776 449.959 313.518 449.989 313.25C450.02 312.981 449.985 312.71 449.89 312.457L440.109 279.048ZM435.069 266.639C434.327 267.991 433.275 269.147 432 270.012C431.401 270.41 430.724 270.673 430.015 270.784C428.637 271.265 427.191 271.521 425.732 271.542C425.476 271.54 425.224 271.478 424.997 271.36C424.77 271.241 424.575 271.071 424.426 270.862C424.071 270.397 423.883 269.826 423.891 269.241V249.784C423.907 249.179 424.155 248.603 424.582 248.175C425.01 247.747 425.585 247.499 426.189 247.483H428.174C429.412 247.35 430.664 247.519 431.823 247.974C432.983 248.429 434.015 249.158 434.834 250.098C436.388 253.006 437.055 256.307 436.753 259.591C436.808 262.054 436.204 264.488 435.003 266.639H435.069Z" fill="#585858"/>
</svg>
