<svg width="512" height="512" viewBox="0 0 512 512" fill="none" xmlns="http://www.w3.org/2000/svg">
<circle cx="256" cy="256" r="256" fill="#CFCFC9"/>
<path fill-rule="evenodd" clip-rule="evenodd" d="M309.9 207.686C308.164 205.372 307.863 201.28 304.342 200.916C300.925 199.992 297.523 199.006 294.073 198.207C287.318 199.307 280.563 200.407 273.808 201.508C273.017 205.151 272.225 208.795 271.434 212.438C282.356 213.864 293.279 215.29 304.201 216.716C307.05 218.617 309.9 220.518 312.749 222.418C320.189 223.211 327.629 224.003 335.069 224.795C338.551 223.527 342.034 222.26 345.516 220.993C334.689 217.496 323.6 214.709 313.077 210.355C311.783 209.758 310.885 208.668 309.9 207.686Z" fill="#CFCFC9"/>
<path d="M349.71 220.52C348.979 219.565 347.799 219.183 346.983 218.817C346.185 218.44 346.3 217.661 345.633 217.435C344.95 217.215 343.756 218.608 342.827 218.319C341.9 218.015 341.969 216.282 341.194 216.025C340.401 215.775 339.023 217.075 338.302 216.844C337.576 216.633 337.435 214.812 336.735 214.58C336.042 214.369 334.571 215.664 333.854 215.442C333.133 215.199 333.087 213.425 332.286 213.162C331.49 212.917 330.09 214.243 329.394 214.004C328.676 213.782 328.606 212.012 327.843 211.754C327.071 211.509 325.655 212.809 324.942 212.574C324.208 212.338 324.008 210.519 323.34 210.299C322.656 210.09 321.323 211.163 320.239 211.101C312.714 210.399 309.836 205.662 309.323 207.063C308.821 208.437 310.892 211.777 313.495 212.905C315.571 213.809 337.985 220.018 338.573 220.295C339.145 220.578 340.561 221.209 340.057 222.027C339.277 223.073 337.088 222.038 336.531 221.577C335.968 221.108 336.096 220.937 335.567 220.796C334.365 220.51 333.699 222.701 332.429 222.408C331.273 222.148 331.353 219.823 330.179 219.552C328.883 219.237 328.297 221.441 327.063 221.153C326.04 220.923 325.9 218.554 324.802 218.29C323.541 217.984 322.969 220.194 321.655 219.887C320.526 219.623 320.589 217.313 319.407 217.029C318.226 216.749 317.403 218.89 316.288 218.637C315.17 218.377 315.006 216.018 314.013 215.782C312.997 215.557 312.197 216.756 310.832 216.935C310.832 216.935 306.911 217.995 300.712 211.515C294.5 205.048 291.953 203.791 288.418 206.426C282.646 210.728 279.062 207.884 278.018 206.604C276.762 205.138 278.076 203.791 278.076 203.791C278.076 203.791 279.909 206.623 282.217 206.674C285.935 206.785 288.739 201.707 295.111 201.617C303.183 201.326 305.287 204.196 307.494 204.424C309.538 204.624 310.22 204.295 311.635 203.473H311.626C312.77 203.066 313.766 205.279 314.965 204.832C316.232 204.353 315.305 202.123 316.67 201.609C317.946 201.153 318.779 203.394 320 202.939C321.284 202.47 320.466 200.178 321.699 199.731C322.969 199.272 323.71 201.536 325.028 201.053C326.351 200.582 325.496 198.312 326.701 197.856C327.944 197.402 328.843 199.631 330.064 199.196C331.22 198.782 330.559 196.409 331.763 195.977C333.013 195.528 333.821 197.764 335.153 197.275C336.248 196.893 335.642 194.517 336.777 194.087C337.912 193.663 338.966 195.865 340.146 195.423C341.254 195.014 340.606 192.654 341.785 192.212C343.032 191.761 343.995 193.963 345.174 193.548C346.341 193.128 345.456 191.224 346.978 190.467C346.978 190.467 349.086 189.774 348.953 188.226C348.936 187.966 348.5 184.657 345.029 183.955C341.691 183.284 315.328 190.581 314.987 190.16C312.561 185.363 309.452 186.696 308.978 186.803C308.495 186.925 305.552 188.179 302.293 186.925C295.89 184.026 290.78 191.4 287.273 190.43C284.044 189.521 281.576 190.045 280.222 190.506C278.982 190.936 276.973 192.551 272.714 191.085C239.798 179.838 214.073 189.67 214.073 189.67C199.567 194.52 197.712 189.67 197.712 189.67C197.712 189.67 192.938 183.181 226.548 175.441C274.857 164.336 276.314 145.958 275.742 144.796C274.949 143.11 274.646 145.096 273.056 146.923C271.72 148.442 270.169 147.691 270.169 147.691C268.649 146.961 267.677 148.698 267.677 148.698C267.677 148.698 265.721 151.735 263.992 150.008C262.33 148.345 260.124 152.098 259.299 152.246C258.313 152.421 257.831 151.939 256.506 151.33C254.522 150.452 252.392 154.07 251.302 154.326C249.632 154.708 248.46 152.358 247.024 153.35C242.732 156.316 242.056 156.729 240.9 155.574C240.046 154.701 239.92 153.754 237.053 156.502C234.612 158.844 233.443 159.282 232.464 157.793C231.455 156.294 231.715 154.248 227.521 158.275C225.52 160.199 224.495 160.236 223.349 159.371C222.485 158.722 222.491 155.625 219.483 158.429C216.757 160.953 214.778 162.059 214.005 159.818C213.153 157.3 209.94 160.282 209.197 160.984C208.426 161.686 206.775 163.542 205.617 161.626C204.461 159.699 201.69 162.576 200.042 164.402C198.771 165.82 197.743 164.725 196.402 163.826C194.877 162.779 190.314 169.154 189.901 169.536C189.484 169.898 189.165 169.536 188.12 168.648C186.514 167.286 182.18 174.859 181.479 175.353C181.479 175.353 181.182 176.006 180 174.877C178.318 173.277 169.393 185.035 166.024 198.339C161.715 215.394 168.581 228.472 168.581 228.472C168.581 228.472 170.644 228.536 171.522 227.14L172.859 224.125C173.942 221.612 175.718 222.403 175.718 222.403L171.51 234.942C170.845 236.593 171.246 238.929 172.717 241.138C174.103 243.357 175.058 244.857 176.169 245.888C179.586 249.108 179.237 245.3 179.326 244.824C179.726 242.786 181.981 244.352 183.753 245.328C186.967 247.133 186.61 243.147 187.315 241.847C187.804 240.915 189.385 240.874 191.1 242.312C192.436 243.429 193.763 239.645 193.763 239.645C195.429 231.582 191.515 230.65 189.397 230.531L185.111 230.335C185.111 230.335 185.393 229.108 185.839 227.96L186.031 227.145C190.705 215.489 182.894 213.24 180.556 213.425C177.978 213.656 178.158 212.012 178.158 212.012C178.158 212.012 192.277 209.23 189.645 224.213C189.645 224.213 189.125 226.823 188.813 228.184L192.693 228.637C196.031 229.054 196.624 233.007 196.624 233.007C196.624 233.007 208.905 236.255 215.869 234.956C215.869 234.956 218.982 234.214 219.847 232.276C219.847 232.276 224.357 221.64 237.526 221.191C237.526 221.191 237.989 222.568 235.885 223.284C233.363 224.135 224.958 224.803 223.211 234.466V234.503C223.021 236.089 223.445 239.465 226.882 241.029C229.81 242.351 230.842 247.686 231.449 249.127C233.154 253.217 235.707 249.307 235.707 249.307C235.707 249.307 237.325 246.007 238.713 247.838C241.058 250.926 242.147 249.37 242.68 247.403C243.263 245.281 244.112 244.355 246.568 246.936C247.617 248.056 249.676 247.191 249.881 245.273C250.315 241.052 253.164 244.409 253.571 244.571C254.059 244.757 257.043 244.085 255.373 239.325C255.373 239.325 253.118 234.789 242.95 232.832C240.564 232.379 240.943 230.651 240.943 230.651L243.183 230.966C243.851 231.075 249.765 231.731 250.394 231.831C275.198 234.281 294.017 225.861 294.583 225.261C313.85 228.956 340.049 227.696 344.967 225.922C349.91 224.179 350.279 221.29 349.71 220.52ZM309.928 189.751C310.331 189.101 310.712 188.734 311.062 188.557C312.557 187.706 313.511 190.37 313.329 190.467C313.321 190.472 313.286 190.483 313.272 190.489C313.269 190.493 313.269 190.503 313.267 190.506C313.032 190.62 310.147 191.439 309.863 191.251C309.292 190.854 309.928 189.751 309.928 189.751ZM298.974 190.593C298.974 190.593 299.346 190.123 300.067 189.884C300.778 189.625 301.853 189.581 303.276 190.499C304.913 191.54 304.871 192.353 304.871 192.353C304.818 192.38 304.745 192.407 304.663 192.436C303.476 192.895 298.608 193.493 298.608 193.493C297.662 191.748 298.974 190.593 298.974 190.593ZM208.167 167.016C208.985 167.647 208.201 171.281 207.618 170.745L203.413 168.52C203.413 168.52 207.329 166.404 208.167 167.016ZM201.329 169.337C202.156 169.953 201.381 173.596 200.794 173.054L196.602 170.823C196.602 170.823 200.498 168.706 201.329 169.337ZM198.964 176.442C199.794 177.063 199.015 180.712 198.422 180.185L194.222 177.928C194.222 177.928 198.128 175.826 198.964 176.442ZM194.962 185.983L190.757 183.748C190.757 183.748 194.668 181.627 195.497 182.251C196.338 182.872 195.535 186.519 194.962 185.983ZM194.17 193.178L189.978 190.943C189.978 190.943 193.88 188.833 194.712 189.443C195.542 190.058 194.768 193.69 194.17 193.178ZM194.093 171.87C194.927 172.49 194.141 176.116 193.554 175.6L189.347 173.358C189.347 173.358 193.265 171.241 194.093 171.87ZM190.446 177.409C191.269 178.028 190.49 181.656 189.909 181.139L185.711 178.904C185.711 178.904 189.616 176.78 190.446 177.409ZM182.952 186.1C182.952 186.1 186.87 183.972 187.69 184.602C188.525 185.219 187.738 188.852 187.152 188.326L182.952 186.1ZM186.171 195.202L181.98 192.959C181.98 192.959 185.889 190.854 186.714 191.476C187.548 192.093 186.766 195.725 186.171 195.202ZM183.183 179.932C184.01 180.537 183.228 184.179 182.641 183.652L178.456 181.41C178.456 181.41 182.343 179.306 183.183 179.932ZM179.405 187.261C180.237 187.877 179.457 191.533 178.857 190.995L174.668 188.763C174.668 188.763 178.576 186.663 179.405 187.261ZM173.886 195.943C173.886 195.943 177.793 193.841 178.621 194.46C179.459 195.073 178.661 198.718 178.085 198.189L173.886 195.943ZM181.376 204.156L177.181 201.918C177.181 201.918 181.091 199.799 181.921 200.421C182.752 201.044 181.959 204.676 181.376 204.156ZM187.393 209.033L183.197 206.806C183.197 206.806 187.109 204.687 187.938 205.302C188.762 205.912 187.968 209.572 187.393 209.033ZM189.274 201.419L185.076 199.174C185.076 199.174 188.986 197.072 189.816 197.674C190.646 198.297 189.859 201.93 189.274 201.419ZM194.856 212.319L190.667 210.086C190.667 210.086 194.554 207.971 195.393 208.592C196.222 209.215 195.451 212.832 194.856 212.319ZM196.871 205.306L192.678 203.072C192.678 203.072 196.58 200.97 197.407 201.59C198.237 202.201 197.465 205.841 196.871 205.306ZM198.259 198.676L194.066 196.438C194.066 196.438 197.968 194.336 198.806 194.953C199.638 195.578 198.844 199.199 198.259 198.676ZM204.157 211.472L199.964 209.224C199.964 209.224 203.867 207.126 204.704 207.735C205.544 208.353 204.749 212.003 204.157 211.472ZM205.973 204.489L201.782 202.259C201.782 202.259 205.692 200.134 206.522 200.762C207.34 201.363 206.553 205.01 205.973 204.489ZM207.494 197.091L203.301 194.854C203.301 194.854 207.205 192.759 208.043 193.366C208.868 193.988 208.081 197.618 207.494 197.091ZM213.386 210.162L209.179 207.927C209.179 207.927 213.089 205.811 213.927 206.427C214.751 207.063 213.957 210.701 213.386 210.162ZM214.795 202.692L210.602 200.446C210.602 200.446 214.513 198.338 215.34 198.951C216.172 199.578 215.384 203.197 214.795 202.692ZM216.257 195.023L212.064 192.784C212.064 192.784 215.967 190.679 216.801 191.291C217.629 191.926 216.846 195.55 216.257 195.023ZM222.571 207.21L218.372 204.994C218.372 204.994 222.281 202.879 223.101 203.494C223.944 204.111 223.157 207.741 222.571 207.21ZM223.718 199.852L219.514 197.628C219.514 197.628 223.421 195.516 224.245 196.125C225.098 196.749 224.299 200.399 223.718 199.852ZM225.175 192.64L220.968 190.417C220.968 190.417 224.884 188.292 225.708 188.905C226.537 189.532 225.753 193.178 225.175 192.64ZM231.6 205.655L227.404 203.416C227.404 203.416 231.303 201.301 232.142 201.919C232.981 202.544 232.189 206.171 231.6 205.655ZM232.746 198.785L228.546 196.556C228.546 196.556 232.46 194.426 233.284 195.061C234.113 195.661 233.329 199.316 232.746 198.785ZM234.128 191.456L229.923 189.225C229.923 189.225 233.834 187.09 234.672 187.726C235.501 188.348 234.724 191.975 234.128 191.456ZM239.942 205.784L235.755 203.549C235.755 203.549 239.658 201.426 240.487 202.06C241.319 202.671 240.531 206.305 239.942 205.784ZM241.328 198.408L237.121 196.178C237.121 196.178 241.037 194.05 241.869 194.681C242.693 195.305 241.906 198.933 241.328 198.408ZM242.899 191.065L238.699 188.834C238.699 188.834 242.61 186.707 243.442 187.34C244.28 187.955 243.485 191.596 242.899 191.065ZM248.686 205.784L244.487 203.538C244.487 203.538 248.391 201.428 249.222 202.061C250.051 202.671 249.279 206.305 248.686 205.784ZM250.029 198.817L245.841 196.574C245.841 196.574 249.74 194.481 250.57 195.078C251.403 195.704 250.62 199.348 250.029 198.817ZM251.617 191.687L247.433 189.454C247.433 189.454 251.336 187.346 252.17 187.955C252.988 188.574 252.204 192.213 251.617 191.687ZM256.906 206.836L252.708 204.578C252.708 204.578 256.618 202.485 257.448 203.108C258.287 203.714 257.503 207.356 256.906 206.836ZM258.391 200.08L254.195 197.852C254.195 197.852 258.109 195.741 258.932 196.358C259.771 196.988 258.962 200.616 258.391 200.08ZM259.993 193.178L255.787 190.954C255.787 190.954 259.699 188.839 260.535 189.443C261.362 190.058 260.564 193.69 259.993 193.178ZM266.535 201.537L262.344 199.326C262.344 199.326 266.246 197.205 267.084 197.813C267.908 198.438 267.123 202.072 266.535 201.537Z" fill="#585858"/>
<path d="M156.258 265.18C155.382 262.852 153.717 261.849 150.668 261.802C150.39 261.794 136.282 261.816 136.282 261.816L115.401 318.714C115.401 318.714 125.558 318.714 125.566 318.714C126.441 318.777 127.256 318.639 127.988 318.31C129.966 317.408 130.936 315.113 131.218 314.33C131.218 314.35 134.059 306.403 134.254 305.884C135.708 305.884 154.143 305.876 155.261 305.876C155.701 307.216 159.529 318.688 159.529 318.688H173.286L164.56 290.998L156.258 265.18ZM152.022 294.198C149.936 294.198 138.689 294.201 137.867 294.201C139.394 290.018 143.195 279.435 144.818 275.15C146.221 279.471 151.985 294.058 152.022 294.198Z" fill="#585858"/>
<path d="M255.245 261.36H255.238C238.965 261.382 227.163 273.606 227.163 290.412C227.163 306.878 239.226 319.301 255.245 319.301C271.255 319.301 283.809 306.62 283.809 290.412C283.809 274.119 271.255 261.36 255.245 261.36ZM255.652 306.607C247.358 306.607 240.858 299.429 240.858 290.258C240.858 281.171 247.218 274.326 255.643 274.326C264.006 274.326 270.072 281.021 270.072 290.258C270.071 299.585 263.869 306.607 255.652 306.607Z" fill="#585858"/>
<path d="M320.621 285.307L320.087 285.151C320.101 285.158 314.795 283.543 314.782 283.529L313.989 283.247C309.655 281.679 306.578 280.366 306.578 277.84C306.578 277.778 306.578 277.713 306.578 277.655C307.008 273.464 314.783 273.419 314.859 273.419C319.145 273.419 322.441 274.076 326.616 275.754L326.705 275.787L326.884 275.84C327.848 276.035 328.692 276.062 329.375 275.91L330.531 275.472C332.19 274.559 333.84 269.722 334.473 267.685L334.678 267.032L334.167 266.563C333.967 266.37 332.751 265.368 328.328 263.716C323.83 262.031 317.459 261.767 317.459 261.767L314.316 261.753C297.901 261.753 291.634 271.891 291.435 278.7C291.299 285.483 295.157 288.974 300.99 292.145C303.43 293.498 307.887 294.741 311.118 295.646C311.101 295.631 314.462 296.627 314.462 296.627C320.577 298.55 322.914 300.685 322.48 303.996C322.285 305.091 320.218 306.903 315.524 306.903C311.951 306.903 308.723 306.353 305.363 305.18C303.749 304.538 302.08 303.709 300.316 302.662L300.232 302.608L300.051 302.53C299.075 302.167 298.201 302.014 297.451 302.077L296.159 302.356C294.274 303.061 291.653 307.85 290.605 309.875L290.193 310.675L290.905 311.24C291.032 311.325 293.949 313.646 296.426 315.097C299.344 316.714 302.619 317.886 306.486 318.669C308.045 318.953 310.521 319.313 314.401 319.313C327.121 319.313 336.362 312.864 337.424 303.263C337.886 294.551 332.545 288.866 320.621 285.307Z" fill="#585858"/>
<path d="M347.814 261.885C347.285 261.876 344.511 261.931 342.915 263.408C342.181 264.083 341.797 264.985 341.797 266.002L341.788 275.004C341.788 275.004 357.134 274.992 359.144 274.992C359.144 277.109 359.144 318.735 359.144 318.735L373.36 318.723C373.36 318.723 373.36 277.105 373.36 274.992C375.255 274.99 384.53 274.99 384.53 274.99C385.056 274.99 387.825 274.93 389.426 273.46C390.152 272.771 390.547 271.889 390.547 270.858V261.885H347.814Z" fill="#585858"/>
<path d="M103.953 305.859C103.953 305.859 92.0154 305.859 87.9939 305.859C87.9939 303.761 87.9488 267.075 87.9488 267.075C87.9488 265.465 87.4682 264.187 86.4997 263.294C84.9531 261.841 82.6514 261.849 81.7927 261.867L73.4058 261.849L73.4277 318.714H109.005L109.032 309.677C109.032 308.52 108.538 305.859 103.953 305.859Z" fill="#585858"/>
<path d="M205.678 273.973C209.127 273.744 212.028 273.973 214.765 274.723C216.235 275.213 217.562 275.311 218.687 274.994C218.691 274.991 219.821 274.49 219.821 274.49C221.413 273.508 222.552 268.51 223.09 265.629L223.213 264.954L222.634 264.536C222.489 264.43 222.036 264.114 216.884 262.722C212.192 261.457 208.015 261.302 205.956 261.316L205.73 261.319C193.955 261.319 176.224 269.097 175.715 290.513V290.635C176.224 312.059 193.957 319.834 205.738 319.834L205.956 319.843C208.015 319.851 212.184 319.683 216.884 318.419C222.037 317.04 222.489 316.72 222.639 316.612L223.215 316.204L223.091 315.525C222.553 312.629 221.414 307.641 219.822 306.652V306.645L218.692 306.147C217.563 305.839 216.235 305.94 214.745 306.44C212.022 307.172 209.122 307.409 205.637 307.18C196.719 306.307 191.363 300.233 190.96 290.525C191.362 280.911 196.719 274.839 205.678 273.973Z" fill="#585858"/>
<path d="M432.667 318.688C434.863 318.639 438.594 317.344 438.594 312.975L438.552 305.839L413.498 305.85C413.498 305.85 413.541 297.672 413.541 296.317C415.596 296.317 434.221 296.317 434.221 296.317L434.186 283.161C434.186 283.161 415.623 283.183 413.576 283.183C413.571 281.628 413.576 276.571 413.576 275.006C415.624 275.006 432.561 274.983 432.561 274.983C433.082 274.991 435.917 274.994 437.453 273.46C438.525 272.385 438.573 270.427 438.573 269.408V261.896H399.162L399.17 318.733L432.667 318.688Z" fill="#585858"/>
</svg>
