<svg width="512" height="512" viewBox="0 0 512 512" fill="none" xmlns="http://www.w3.org/2000/svg">
<circle cx="256" cy="256" r="256" fill="#CFCFC9"/>
<g clip-path="url(#clip0_32_517)">
<path d="M358.32 272.164C337.358 272.164 333.539 259.889 333.539 256.845H348.719C348.719 258.633 351.109 260.773 353.124 261.645C354.798 262.294 356.589 262.587 358.383 262.503H358.356C362.631 262.503 366.138 261.453 366.138 258.937C366.138 255.871 362.546 255.192 358.588 254.62C347.808 253.042 332.703 251.21 332.703 238.988C332.703 227.588 344.984 221.788 358.021 221.788C378.893 221.788 384.424 233.51 384.424 236.901H368.997C368.906 236.041 368.598 235.217 368.103 234.508C367.608 233.798 366.941 233.226 366.165 232.844L366.134 232.83C364.257 231.865 362.181 231.352 360.071 231.333H360.062C354.299 231.333 351.056 232.549 351.056 235.226C351.056 237.411 353.978 238.497 358.177 239.225C369.136 241.133 385.961 241.795 385.961 255.308C385.961 262.172 380.095 272.155 358.324 272.155L358.32 272.164ZM332.569 228.929L326.659 235.444H324.201L326.909 228.339H321.494V218.865H332.569V228.929ZM298.214 222.928H317.831V270.801H298.214V222.928ZM272.633 270.895H255.491L229.896 223.017H252.993L267.683 252.117L268.085 252.993L268.451 252.117L282.184 223.017H296.051L272.633 270.895ZM235.807 251.005H196.108C196.158 252.529 196.515 254.028 197.159 255.411C197.803 256.794 198.72 258.032 199.855 259.051C200.99 260.069 202.319 260.848 203.763 261.339C205.207 261.83 206.735 262.024 208.256 261.908L208.215 261.913C210.249 262.015 212.275 261.604 214.107 260.717C215.94 259.83 217.519 258.495 218.701 256.836L218.727 256.801H234.556C229.383 268.853 219.344 272.276 205.664 272.276C187.87 272.276 175.29 262.512 175.29 247.041C175.29 230.52 187.683 221.801 205.664 221.801C225.782 221.801 235.869 235.015 235.869 247.734C235.921 248.856 235.896 249.98 235.793 251.099L235.807 251.005ZM174.955 270.819H129.712V223.057H150.053V257.824H174.955V270.819ZM406.717 184C406.86 184.3 407.021 184.59 407.155 184.898C408.352 187.611 409.049 190.779 409.049 194.109V194.31V194.301V194.542C409.049 197.911 408.352 201.116 407.096 204.02L407.155 203.864C405.945 206.697 404.211 209.276 402.044 211.465C399.938 213.581 397.441 215.266 394.69 216.425L394.538 216.484C391.687 217.675 388.626 218.284 385.536 218.276H385.38H385.389H385.259C381.998 218.276 378.888 217.619 376.061 216.425L376.217 216.484C373.39 215.321 370.817 213.616 368.644 211.465C366.501 209.324 364.779 206.798 363.569 204.02L363.511 203.864C362.249 200.919 361.603 197.746 361.613 194.542V194.287V194.301V194.109C361.613 190.779 362.309 187.615 363.569 184.751L363.511 184.898C363.645 184.59 363.806 184.3 363.954 184H84.0045L117.104 327C186.597 281.705 253.382 325.235 256.072 326.893H256.08L256.098 326.88H256.134L256.152 326.889L256.165 326.893C258.846 325.231 325.64 281.705 395.128 327L428.223 184H406.717ZM205.285 231.811H205.209C202.782 231.811 200.455 232.776 198.739 234.492C197.023 236.208 196.059 238.536 196.059 240.963L196.068 241.41V241.388H215.283C215.367 240.067 215.161 238.744 214.679 237.512C214.196 236.28 213.45 235.168 212.493 234.255C211.535 233.342 210.389 232.651 209.135 232.228C207.881 231.806 206.55 231.664 205.235 231.811L205.276 231.807L205.285 231.811ZM371.486 208.94C373.255 210.8 375.384 212.28 377.744 213.291C380.103 214.302 382.643 214.823 385.21 214.821H385.398H385.389H385.554C388.257 214.821 390.826 214.245 393.144 213.208L393.028 213.257C395.34 212.239 397.429 210.775 399.176 208.949L399.184 208.94C400.904 207.122 402.289 204.968 403.237 202.59L403.286 202.456C404.224 200.101 404.769 197.366 404.769 194.511V194.292V194.301V194.14C404.772 191.408 404.25 188.702 403.232 186.168L403.281 186.311C402.946 185.482 402.558 184.676 402.12 183.897L402.173 184H395.463C396.12 185.189 396.504 186.61 396.504 188.12L396.499 188.433V188.42C396.59 189.438 396.449 190.463 396.089 191.419C395.728 192.375 395.157 193.238 394.418 193.943L394.413 193.948C393.006 195.11 391.223 195.869 389.275 196.026H389.244L397.129 208.364H392.523L385.022 196.347H380.479V208.364H376.195V184H368.497C368.14 184.626 367.769 185.386 367.443 186.168L367.389 186.306C366.4 188.794 365.897 191.449 365.906 194.126V194.301V194.292V194.506C365.906 197.362 366.451 200.092 367.443 202.595L367.389 202.447C368.381 204.963 369.766 207.117 371.495 208.945L371.486 208.94ZM387.698 192.732C388.543 192.683 389.325 192.491 390.044 192.174L389.999 192.191C390.654 191.906 391.211 191.433 391.599 190.833L391.608 190.82C391.992 190.149 392.215 189.349 392.215 188.496L392.206 188.219V188.232L392.211 188.04C392.211 187.314 392.021 186.601 391.661 185.971L391.67 185.993C391.329 185.46 390.857 185.023 390.299 184.724L390.281 184.715C389.679 184.405 389.027 184.202 388.355 184.116L388.324 184.112C388.011 184.065 387.697 184.03 387.381 184.005H380.474V192.83H384.951C385.919 192.83 386.833 192.799 387.694 192.737L387.698 192.732Z" fill="#585858"/>
</g>
<defs>
<clipPath id="clip0_32_517">
<rect width="344" height="143" fill="white" transform="translate(84 184)"/>
</clipPath>
</defs>
</svg>
