<svg width="512" height="512" viewBox="0 0 512 512" fill="none" xmlns="http://www.w3.org/2000/svg">
<circle cx="256" cy="256" r="256" fill="#CFCFC9"/>
<path d="M113.9 296.553H107.565L113.9 291.436V216.492H140.36L133.747 221.749V291.422L140.288 296.553H113.9Z" fill="#585858"/>
<path d="M62.9166 296.553H80.3931L74.5689 291.422V257.106H68.7409V291.422L62.9166 296.553Z" fill="#585858"/>
<path d="M96.6716 296.604L106.014 269.895L83.4726 216.786L63.226 216.783L96.6716 296.604Z" fill="#585858"/>
<path d="M153.397 296.862H170.985L165.179 291.742L176.392 242.191H170.65L159.203 291.742L153.397 296.862Z" fill="#585858"/>
<path d="M188.015 272.586C190.829 283.499 192.926 291.641 192.926 291.641L187.728 296.488H214.345L191.98 216.872C191.98 216.872 175.593 216.872 173.532 216.872L186.918 268.335C186.958 268.353 174.086 268.317 174.086 268.317V272.579L188.015 272.586Z" fill="#585858"/>
<path d="M416.34 299.054C400.227 296.456 386.92 277.901 386.92 255.551C386.92 236.467 396.241 218.896 409.811 214.163L409.8 291.922L416.34 299.054Z" fill="#585858"/>
<path d="M419.804 214.163C435.918 216.761 449.221 235.32 449.221 257.667C449.221 276.751 439.9 294.325 426.33 299.058L426.345 221.299L419.804 214.163Z" fill="#585858"/>
<path d="M368.965 255.471H338.469L347.157 262.435V298.831C347.157 298.831 368.965 293.563 368.965 255.471Z" fill="#585858"/>
<path d="M336.8 298.846C320.683 296.248 307.38 277.689 307.38 255.338C307.38 236.255 316.701 218.684 330.27 213.951L330.26 291.512V291.709L336.8 298.846Z" fill="#585858"/>
<path d="M338.538 213.912C338.538 213.912 349.754 213.862 358.504 221.839L367.249 215.73L367.253 242.503C367.253 242.503 356.672 219.309 338.538 219.384V213.912Z" fill="#585858"/>
<path d="M228.12 296.488H245.626L239.819 291.03V248.04H233.926V291.03L228.12 296.488Z" fill="#585858"/>
<path d="M228.131 216.872L274.024 296.88H287.191V283.114L250.126 216.872H228.131Z" fill="#585858"/>
<path d="M293.091 216.682H275.585L281.395 222.137V261.641H287.284V222.137L293.091 216.682Z" fill="#585858"/>
</svg>
