<svg width="512" height="512" viewBox="0 0 512 512" fill="none" xmlns="http://www.w3.org/2000/svg">
<circle cx="256" cy="256" r="256" fill="#CFCFC9"/>
<path fill-rule="evenodd" clip-rule="evenodd" d="M191.94 284.1L177.182 309.677L95.4929 305.065L103.671 290.819L191.94 284.1ZM250.993 202.603L258.395 230.83L142.484 223.186L150.657 208.945L250.993 202.603ZM174.15 168.005L241.998 168.055L247.119 187.356L165.987 182.247L174.15 168.005ZM168.187 325.583L156.405 345.909L72 346L80.1734 331.763L168.187 325.583ZM316.375 270.744L295.944 306.282H315.403C324.418 306.282 340.575 301.767 345.546 288.883C350.151 276.909 341.687 270.729 335.779 270.729L316.375 270.744ZM335.859 236.749L352.832 236.643C364.128 236.583 375.909 231.398 380.219 220.878C384.193 211.117 378.851 202.804 371.77 202.835L355.353 202.814L335.859 236.749ZM259.031 230.83L276.17 200.994L334.175 197.258L336.2 193.637L282.544 189.87L295.092 168.005L394.596 168C425.195 168 447.831 178.978 439.031 211.263C436.385 221.044 423.947 245.665 387.47 255.979C395.213 256.904 414.496 265.479 411.173 287.706C405.27 327.122 354.416 345.884 326.127 345.894L208.653 345.95L202.865 323.144L264.393 318.789L266.483 315.178L199.748 311.1L192.556 284.065L287.515 278.503L289.58 274.923L118.981 264.121L127.154 249.884L310.787 237.921L312.867 234.335L259.031 230.83Z" fill="#585858"/>
</svg>
