<svg width="512" height="512" viewBox="0 0 512 512" fill="none" xmlns="http://www.w3.org/2000/svg">
<circle cx="256" cy="256" r="256" fill="#CFCFC9"/>
<g clip-path="url(#clip0_32_951)">
<path d="M81.5705 283.995H76.4884C76.0644 283.995 75.0035 283.995 75.0035 283.362C75.0035 282.942 75.2163 282.729 75.8516 282.516C80.5159 281.036 81.5689 278.503 81.5689 274.917V237.088C81.5689 233.706 80.508 231.171 75.8516 229.488C75.2163 229.488 75.0035 229.066 75.0035 228.855C75.0035 228.011 76.0644 228.222 76.4884 228.222H118.448C127.985 228.222 135.829 235.821 135.829 245.335C135.829 254.849 127.985 262.439 118.448 262.439H97.2548V275.328C97.4676 278.709 98.5253 281.028 102.972 282.512C103.607 282.724 103.819 282.936 103.819 283.357C103.819 283.991 102.759 283.991 102.335 283.991H81.5705V283.995ZM394.4 263.5H404.361L394.4 246.595L393.338 244.904L384.444 263.5H394.4ZM394.4 228.005H401.183L429.581 277.878C430.43 279.144 431.486 280.411 432.757 281.044C433.816 281.891 435.087 282.105 436.146 282.524C436.572 282.738 436.994 282.95 436.994 283.371C436.994 284.005 435.935 284.005 435.509 284.005H410.29C409.867 284.005 408.592 284.005 408.592 283.371C408.592 282.95 409.017 282.738 409.445 282.524C410.715 282.105 411.56 281.47 411.986 280.203C412.411 278.721 411.986 277.881 410.926 275.974C409.488 272.925 408.005 269.897 406.48 266.89H382.742L382.532 267.311C382.318 268.158 380.626 271.111 379.356 274.285C377.663 277.665 377.026 278.509 377.45 280.2C377.665 281.467 378.721 282.1 379.991 282.523C380.418 282.737 380.626 282.949 380.626 283.368C380.626 284.002 379.564 284.002 379.142 284.002H367.483C367.061 284.002 365.998 284.002 365.998 283.368C365.998 282.949 366.213 282.735 366.846 282.523C367.909 282.102 369.176 281.89 370.237 281.042C371.507 280.409 372.57 279.143 373.413 277.876L374.898 274.709L391.007 241.103L388.672 237.088C386.557 233.706 384.435 231.594 382.103 230.326C381.044 229.693 379.983 229.693 378.927 229.27C378.292 229.058 378.078 228.845 378.292 228.423C378.292 228 378.714 228.212 378.927 228H394.402L394.4 228.005ZM331.034 283.782H331.882C370.882 283.782 370.459 228.209 331.882 228.209H299.88C299.244 228.209 298.187 227.997 298.187 228.842C298.187 229.053 298.609 229.476 299.032 229.476C303.694 230.954 304.749 233.491 304.965 236.662V275.34C304.755 278.718 303.694 281.039 299.032 282.521C298.609 282.735 298.187 282.947 298.187 283.368C298.187 284.002 299.246 284.002 299.88 284.002H320.438V283.788H331.034V283.782ZM331.034 232.227C333.898 232.239 336.641 233.377 338.666 235.396C340.692 237.414 341.835 240.148 341.848 243.003V268.782C341.835 271.637 340.692 274.371 338.667 276.39C336.641 278.408 333.898 279.547 331.034 279.557H320.43V232.227H331.034ZM250.279 263.5H260.24L250.279 246.595L249.218 244.904L240.325 263.5H250.279ZM250.279 228.005H257.267L285.667 277.878C286.303 279.144 287.364 280.411 288.636 281.044C289.693 281.891 290.969 282.105 292.239 282.524C292.662 282.738 293.084 282.95 293.084 283.371C293.084 284.005 291.814 284.005 291.391 284.005H266.179C265.754 284.005 264.695 284.005 264.695 283.371C264.695 282.95 264.904 282.738 265.539 282.524C266.602 282.105 267.658 281.47 267.872 280.203C268.295 278.721 267.872 277.881 267.024 275.974C265.539 272.808 263.848 269.847 262.365 266.89H238.621L238.409 267.311C238.198 268.158 236.713 271.111 235.233 274.285C233.75 277.665 232.903 278.509 233.327 280.2C233.751 281.467 234.598 282.1 235.868 282.523C236.291 282.737 236.715 282.949 236.715 283.368C236.715 284.002 235.656 284.002 235.022 284.002H223.573C223.149 284.002 221.877 284.002 221.877 283.368C221.877 282.949 222.301 282.735 222.725 282.523C223.996 282.102 225.056 281.89 226.33 281.042C227.388 280.409 228.661 279.143 229.295 277.876L230.778 274.709L247.1 241.103L244.771 237.088C242.653 233.706 240.325 231.594 238.201 230.326C236.931 229.693 236.081 229.693 234.809 229.27C234.384 229.058 233.96 228.845 234.174 228.423C234.388 228 234.809 228.212 235.024 228H250.282L250.279 228.005ZM180.336 264.98C185.212 266.668 191.147 267.089 195.808 265.614L214.249 281.462L215.733 282.729C215.814 282.811 215.875 282.911 215.912 283.021C215.949 283.131 215.961 283.247 215.947 283.362C215.947 283.995 214.886 283.995 214.46 283.995H194.963L180.339 271.951L168.468 262.441V275.544C168.683 278.71 169.953 281.036 174.403 282.51C174.827 282.724 175.038 282.934 175.038 283.356C175.038 283.989 173.977 283.989 173.552 283.989H147.908C147.273 283.989 146.212 283.989 146.212 283.356C146.212 282.934 146.638 282.722 147.059 282.51C152.141 280.822 152.776 278.286 152.993 274.277V237.721C152.781 233.921 152.145 231.171 147.059 229.488C146.635 229.488 146.212 229.066 146.212 228.855C146.212 228.011 147.273 228.222 147.908 228.222H189.238C191.483 228.212 193.708 228.643 195.786 229.491C197.863 230.339 199.753 231.586 201.347 233.162C202.942 234.738 204.209 236.612 205.077 238.676C205.945 240.74 206.396 242.954 206.405 245.193V245.335C206.421 249.853 204.638 254.192 201.446 257.4C198.254 260.607 193.916 262.419 189.384 262.439H175.885C176.52 263.706 178.003 264.13 179.274 264.765C179.699 264.765 179.909 264.98 180.335 264.98H180.336ZM180.336 258.43H182.04C187.55 258.43 192.214 252.512 192.214 244.904C192.204 237.509 187.542 231.594 182.04 231.594H168.467V258.43H180.336ZM109.334 231.596H97.2548V258.432H111.245C116.962 258.432 121.409 252.514 121.409 244.906C121.409 237.512 116.962 231.596 111.245 231.596H109.334Z" fill="#585858"/>
</g>
<defs>
<clipPath id="clip0_32_951">
<rect width="362" height="56" fill="white" transform="translate(75 228)"/>
</clipPath>
</defs>
</svg>
