<svg width="512" height="512" viewBox="0 0 512 512" fill="none" xmlns="http://www.w3.org/2000/svg">
<circle cx="256" cy="256" r="256" fill="#CFCFC9"/>
<path fill-rule="evenodd" clip-rule="evenodd" d="M289.703 64.3148C290 64.2009 290.297 63.8592 290.639 64.0642C291.05 64.3375 291.301 64.7704 291.529 65.2032C295.043 72.1967 298.717 79.1218 302.208 86.1152C302.551 86.7075 302.756 87.5504 302.185 88.0743C301.501 88.7122 300.657 89.3044 299.698 89.4411C298.694 89.3728 298.01 88.5299 297.439 87.7554C296.321 86.1608 295.545 84.3384 294.678 82.5843C294.336 81.9693 293.993 81.3542 293.423 80.9442C292.966 80.8758 292.647 81.3314 292.213 81.4453C291.597 81.582 291.027 81.8326 290.593 82.2882C282.401 90.9446 273.479 98.8493 264.488 106.663C258.783 111.629 253.009 116.504 247.168 121.31C241.805 125.775 236.351 130.103 230.966 134.523C230.395 135.001 229.825 135.48 229.186 135.844C228.547 136.209 227.725 136.095 227.132 135.685C226.516 135.252 226.379 134.409 226.539 133.703C226.767 133.202 227.223 132.837 227.634 132.473C239.135 123.11 250.796 113.93 262.069 104.271C271.014 96.6396 279.549 88.5527 287.809 80.238C288.836 79.304 289.726 78.2106 290.319 76.9577C290.57 76.6843 291.027 76.3882 290.821 75.9554C289.589 72.9712 287.809 70.2376 286.874 67.1395C286.691 66.57 286.782 65.9094 287.239 65.4993C287.946 64.907 288.927 64.7931 289.703 64.3148ZM210.177 136.459C212.094 135.001 214.262 133.68 216.681 133.384C218.666 133.179 220.697 133.498 222.545 134.295C223.116 134.568 223.778 134.864 224.074 135.502C224.166 136.459 223.116 136.983 222.842 137.826C222.911 138.373 223.435 138.737 223.937 138.805C225.124 138.988 226.174 138.054 227.338 138.304C227.771 138.623 227.817 139.352 227.383 139.671C226.699 140.241 225.809 140.446 224.987 140.719C223.184 141.197 221.45 141.904 219.853 142.86C219.442 143.134 218.963 143.43 218.894 143.976C218.917 144.523 219.533 144.888 220.035 144.683C221.085 144.295 222.089 143.817 223.116 143.384C224.325 142.837 225.603 142.405 226.721 141.721C227.292 141.425 228.045 141.266 228.593 141.676C229.163 142.268 229.003 143.27 228.547 143.908C227.817 144.774 226.607 145.07 225.809 145.867C224.964 147.097 225.101 148.783 225.877 150.013C226.972 151.79 228.866 153.18 230.989 153.339C232.289 153.385 233.111 152.155 234.275 151.813C235.393 151.653 236.511 152.451 236.876 153.499C237.196 154.455 237.081 155.549 237.606 156.46C237.926 157.098 239.09 157.007 239.318 156.3C239.706 155.321 239.044 154.296 239.204 153.294C239.546 152.268 240.824 151.904 241.782 152.223C244.041 152.883 246.346 153.453 248.605 154.182C251.161 155.777 253.466 157.872 256.273 159.034C257.984 159.763 259.832 160.401 261.042 161.882C261.567 162.474 261.886 163.453 261.316 164.114C260.7 164.729 259.764 164.729 258.965 164.911C257.847 165.139 256.569 165.458 255.885 166.483C255.2 167.508 254.561 168.579 253.877 169.581C253.375 170.219 252.416 170.082 251.732 169.877C250.499 169.49 249.267 168.966 248.24 168.146C247.236 167.349 247.282 165.731 246.004 165.253C245.821 165.572 245.616 165.914 245.73 166.301C246.004 167.189 246.78 167.873 246.917 168.807C247.099 169.946 247.35 171.085 247.624 172.201C248.286 172.087 249.016 171.791 249.632 172.201C250.294 172.565 250.933 173.431 250.499 174.206C249.929 175.026 248.902 175.299 248.08 175.732C246.415 176.415 245.365 178.078 243.631 178.602C243.129 178.784 242.672 178.989 242.17 179.126C241.44 179.286 240.664 178.875 239.934 179.035C239.409 179.445 239.363 180.219 239.477 180.835C239.774 182.361 240.025 183.91 240.39 185.436C240.618 186.552 241.326 187.486 241.874 188.489C242.421 189.4 242.718 190.425 243.106 191.427C243.311 191.906 243.585 192.43 244.087 192.635C244.498 192.771 244.749 192.338 244.954 192.065C245.411 191.291 245.867 190.471 246.574 189.878C248.582 188.079 251.366 187.145 254.059 187.418C254.652 187.896 255.177 188.466 255.839 188.853C256.546 189.309 257.642 189.035 257.961 188.215C258.326 187.008 258.075 185.596 258.828 184.502C259.467 183.523 260.905 183.09 261.955 183.659C262.388 183.864 262.753 184.388 262.48 184.867C261.863 186.256 260.471 187.372 260.608 189.035C260.586 190.379 261.978 191.04 262.571 192.111C262.731 193.386 261.863 194.503 261.795 195.755C261.635 197.213 262.594 198.421 263.187 199.651C263.529 200.403 264.145 201.177 263.917 202.066C263.78 202.658 263.164 202.977 262.571 203.068C261.361 203.25 260.106 203.068 258.897 203.296C255.885 203.888 252.918 204.64 249.86 205.027C248.674 205.095 247.693 205.801 246.666 206.257C245.342 206.827 244.429 207.966 243.174 208.626C242.261 209.127 241.326 209.537 240.436 210.061C239.409 210.79 238.519 211.656 237.515 212.385C236.945 212.795 236.055 212.954 235.484 212.476C235.005 211.975 234.891 211.269 234.868 210.608C234.868 209.378 235.187 208.057 236.055 207.145C236.785 206.371 237.789 205.938 238.793 205.688C239.523 205.46 240.345 205.278 240.801 204.617C241.189 203.911 240.733 202.954 240.002 202.703C238.359 202.066 236.557 202.84 234.891 202.316C234.046 202.02 233.499 201.291 232.951 200.653C232.267 199.765 231.491 198.899 231.126 197.806C230.943 197.373 231.103 196.917 231.217 196.507C232.13 196.234 233.134 196.302 233.978 195.801C234.777 195.3 234.845 194.229 235.324 193.477C235.712 193.067 236.191 192.771 236.625 192.43C237.469 192.657 238.314 192.908 239.181 193.09C239.546 193.204 239.934 193.09 240.299 192.976C239.797 191.336 238.314 190.334 237.287 189.058C236.876 188.671 236.853 188.079 236.853 187.555C236.853 186.142 237.287 184.798 237.31 183.386C237.332 182.292 237.287 181.131 236.625 180.22C235.598 180.857 234.936 182.065 233.681 182.27C232.495 182.338 231.285 182.292 230.099 182.361C229.734 182.361 229.711 182.816 229.528 183.044C230.692 183.591 232.084 183.204 233.225 183.864C234.32 184.411 234.914 185.573 235.347 186.643C235.712 187.646 235.918 188.83 235.438 189.833C234.868 191.131 233.773 192.042 232.791 193.022C231.034 193.227 229.277 193.409 227.52 193.637C226.904 193.751 226.197 193.637 225.786 193.113C224.805 191.906 224.759 190.288 224.371 188.853C224.052 187.691 223.641 186.461 222.751 185.618C222.477 185.299 222.089 185.026 221.906 184.639C221.724 183.864 222.043 183.09 222.021 182.315C221.929 181.905 221.496 181.7 221.245 181.427C220.743 182.27 220.263 183.295 220.629 184.274C221.435 186.249 222.256 188.223 223.093 190.197C223.39 190.835 223.184 191.587 223.39 192.27C224.462 197.259 225.558 202.225 226.676 207.214C226.767 205.369 226.767 203.546 226.767 201.701C226.79 201.223 226.699 200.653 227.086 200.289C228.273 204.252 229.346 208.262 230.487 212.248C231.285 215.665 231.993 219.105 232.723 222.545C232.86 223 232.928 223.547 233.385 223.82C234.252 224.253 235.507 223.82 235.826 222.864C236.351 221.542 236.716 220.153 237.264 218.832C237.834 217.579 237.926 216.098 238.861 215.027C239.363 214.39 240.185 214.276 240.847 213.911C241.737 213.091 241.759 211.747 242.558 210.881C243.129 210.244 243.79 209.697 244.543 209.287C245.16 209.127 245.798 209.15 246.437 209.082C248.058 209.036 249.45 208.034 251.001 207.692C252.005 207.487 253.032 207.464 254.059 207.259C255.04 207.009 255.93 206.462 256.934 206.325C258.189 206.166 259.445 206.006 260.677 205.756C261.498 205.551 262.434 205.779 263.027 206.394C263.757 207.1 263.94 208.193 263.872 209.173C263.826 209.97 263.712 210.881 263.05 211.405C262.639 211.793 261.955 212.362 262.434 212.954C263.666 213.934 265.606 213.273 266.724 214.481C267.386 215.141 267.18 216.531 266.199 216.736C263.689 217.556 261.179 218.353 258.669 219.173C257.391 219.583 256.683 221.155 257.185 222.385C257.528 223.091 258.532 222.886 259.034 222.476C259.696 221.816 259.947 220.859 260.54 220.153C260.996 219.788 261.544 219.583 262.046 219.31C262.89 218.923 263.803 218.399 264.762 218.649C265.674 218.809 266.359 219.652 266.336 220.586C266.268 223.137 265.971 225.688 265.902 228.263C266.975 228.468 267.568 227.283 267.545 226.372C267.545 224.846 267.363 223.251 267.796 221.747C267.933 221.269 268.23 220.677 268.823 220.631C269.234 220.54 269.599 220.836 269.873 221.132C270.9 222.317 271.379 223.98 270.968 225.506C270.717 226.508 270.58 227.556 270.74 228.581C271.105 228.058 271.402 227.351 272.109 227.215C272.817 227.215 273.228 227.898 273.296 228.513C273.456 229.971 273.022 231.429 272.429 232.773C271.972 233.844 271.653 235.028 271.744 236.213C271.767 236.532 271.858 236.851 272.087 237.078C272.52 237.192 273.022 236.965 273.136 236.532C273.433 235.347 273.593 234.117 273.866 232.932C274.802 232.91 275.783 233.434 276.012 234.413C276.468 236.167 276.194 238.012 276.012 239.789C275.875 241.521 275.327 243.161 275.053 244.869C274.825 246.282 274.711 247.717 274.505 249.106C273.958 251.065 272.726 252.819 272.497 254.87C272.132 256.988 271.744 259.107 271.402 261.225C271.288 262.433 270.512 263.389 269.987 264.437C269.576 265.28 269.074 266.077 268.686 266.943C268.458 267.535 268.321 268.333 268.846 268.811C269.485 268.902 270.124 268.629 270.763 268.697C271.379 268.834 271.585 269.586 271.47 270.132C271.334 271.089 270.398 271.59 269.987 272.41C269.759 272.638 270.056 272.775 270.261 272.866C270.854 272.752 271.379 272.433 271.927 272.205C272.018 273.435 272.041 274.688 272.155 275.918C272.246 276.716 272.429 277.627 273.091 278.174C273.41 278.424 274.026 278.629 274.186 278.105C274.3 276.875 273.387 275.668 273.821 274.438C274.62 274.142 275.395 274.825 275.875 275.394C276.765 276.738 277.244 278.333 277.267 279.928C277.312 281.568 276.559 283.231 275.167 284.119C274.369 284.643 273.205 284.188 272.543 284.962C272.376 285.114 272.216 285.273 272.064 285.44C271.402 285.099 270.695 284.848 270.078 284.438C269.576 283.8 269.417 282.98 268.937 282.342C268.435 281.91 267.774 281.75 267.272 281.317C266.61 280.133 266.245 278.789 265.309 277.786C264.031 276.374 263.484 274.506 262.639 272.843C262.32 272.296 262.502 271.681 262.571 271.112C261.612 270.041 260.608 269.039 259.673 267.968C258.806 266.829 258.692 265.326 258.463 263.936C258.075 261.089 258.098 258.15 257.231 255.394C256.889 254.209 256.113 253.252 255.451 252.227C254.789 251.202 254.949 249.812 254.128 248.856C252.348 246.692 250.225 244.869 248.195 242.978C247.852 242.637 247.556 242.249 247.35 241.817C246.848 240.723 246.346 239.63 245.913 238.491C246.164 237.967 246.529 237.488 246.825 236.965C247.076 236.554 247.008 236.076 247.054 235.62C246.141 235.917 245.114 236.19 244.498 236.987C244.087 237.534 243.836 238.331 244.201 238.969C244.749 239.812 245.456 240.518 245.981 241.384C246.209 241.817 246.232 242.568 245.662 242.751C244.84 242.956 243.95 242.705 243.22 242.318C241.851 241.543 240.664 240.336 240.185 238.832C239.82 237.807 240.116 236.714 239.865 235.666C239.546 234.892 238.884 234.322 238.519 233.57C237.834 232.067 237.652 230.381 237.127 228.809C236.853 227.944 236.032 227.442 235.21 227.215C234.754 227.101 234.183 226.805 233.75 227.169C233.613 227.944 234.115 228.65 234.389 229.356C235.256 231.27 235.895 233.297 236.625 235.256C237.218 237.215 237.903 239.151 238.998 240.905C239.569 241.817 240.231 242.728 241.166 243.297C242.193 243.935 243.448 243.981 244.612 244.186C245.935 245.53 247.259 246.874 248.56 248.241C248.97 248.696 249.587 248.856 250.043 249.243C250.819 250.086 251.252 251.225 251.344 252.364C251.503 253.936 251.138 255.507 251.024 257.057C250.956 257.899 251.481 258.583 251.8 259.312C252.69 261.134 253.603 262.957 254.516 264.779C254.812 265.326 254.767 265.941 254.835 266.533C254.995 268.287 255.04 270.064 255.428 271.772C255.565 272.775 256.067 273.8 255.611 274.757C256.136 275.804 256.569 276.898 257.277 277.809C258.532 279.518 259.787 281.226 261.065 282.935C262.639 285.349 264.967 287.126 266.929 289.245C268.048 290.498 268.664 292.138 268.915 293.778C269.006 294.712 269.074 295.76 268.55 296.58C268.07 297.354 267.568 298.083 267.158 298.903C268.025 299.154 269.12 299.04 269.713 298.288C270.307 297.559 270.101 296.58 270.17 295.714C270.238 294.53 270.124 293.322 270.284 292.115C270.489 291.568 271.151 291.409 271.699 291.363C272.269 291.272 272.452 291.955 272.68 292.343C273.57 294.416 274.14 296.58 274.871 298.698C275.441 300.247 275.418 302.138 274.391 303.505C273.638 304.53 272.84 305.555 272.383 306.74C272.064 307.993 272.474 309.337 271.995 310.567C271.767 311.364 271.334 312.116 271.265 312.959C271.493 314.348 272.269 315.578 272.474 316.968C272.657 317.97 272.999 318.995 272.703 320.02C272.406 321.023 271.927 321.98 271.47 322.914C270.535 324.804 269.485 326.627 268.504 328.472C267.021 331.365 266.176 334.554 264.51 337.356C263.894 338.313 263.141 339.224 262.708 340.272C262.32 341.434 262.32 342.709 261.932 343.871C261.521 344.851 261.065 345.807 260.654 346.787C260.175 347.767 260.289 348.906 260.152 349.976C260.015 351.981 259.696 353.963 259.399 355.945C259.194 357.038 259.855 358.018 260.335 358.974C261.224 360.501 261.841 362.369 261.293 364.123C260.859 365.307 260.061 366.309 259.559 367.471C259.422 367.972 259.49 368.519 259.467 369.043C260.471 369.157 261.727 368.861 262.457 369.749C262.89 370.25 262.525 370.911 262.137 371.298C261.339 372.141 260.22 372.733 259.787 373.85C259.49 374.396 260.084 374.806 260.357 375.239C260.859 374.67 261.247 374.009 261.863 373.554C262.502 373.121 263.37 373.394 263.872 373.941C265.286 375.262 266.77 376.515 268.139 377.859C268.458 378.679 268.732 379.59 268.413 380.433C268.002 381.686 267.774 382.984 267.203 384.169C266.861 384.898 265.925 384.761 265.286 384.556C263.986 384.146 263.187 382.984 262.388 381.982C261.567 381.048 260.745 380.091 259.787 379.317C259.102 378.747 258.167 378.588 257.619 377.882C257.436 377.084 257.779 376.219 257.505 375.444C256.706 374.396 255.2 374.282 254.31 373.348C253.648 372.688 253.055 371.64 253.489 370.706C253.694 370.159 254.356 370.228 254.812 370.091C254.516 368.747 253.534 367.79 252.804 366.697C251.754 365.239 251.001 363.599 250.454 361.913C249.952 360.296 249.609 358.587 249.792 356.901C249.883 356.058 250.34 355.352 250.728 354.646C251.914 352.528 252.85 350.227 253.306 347.812C253.922 343.962 253.329 340.067 253.124 336.217C252.987 334.076 253.101 331.957 253.192 329.839C253.215 328.426 253.26 326.991 252.804 325.647C252.53 324.645 252.211 323.665 252.188 322.617C252.325 321.638 252.918 320.841 253.146 319.884C253.397 318.745 253.534 317.606 253.648 316.444C253.74 315.419 253.785 314.325 253.306 313.391C253.124 313.05 252.736 312.89 252.439 312.685C251.526 313.915 250.796 315.396 250.933 316.968C251.093 318.654 251.321 320.339 251.503 322.048C251.617 322.754 251.115 323.346 251.047 324.03C250.956 324.85 251.047 325.693 250.933 326.513C250.613 326.877 250.134 327.082 249.746 327.356C248.879 326.854 248.035 326.308 247.145 325.829C246.05 325.374 244.84 325.192 243.722 324.736C242.809 324.28 242.079 323.551 241.166 323.141C239.386 322.306 237.606 321.478 235.826 320.658C235.53 320.544 235.302 320.317 235.142 320.066C234.252 318.745 233.476 317.31 232.335 316.171C230.966 314.827 230.327 312.959 229.391 311.319C228.821 310.043 227.383 309.428 226.721 308.22C225.74 305.305 224.736 302.366 223.755 299.427C223.093 299.131 222.34 298.903 221.906 298.266C221.131 297.127 220.765 295.783 220.537 294.439C220.218 292.388 219.83 290.338 219.625 288.265C219.465 287.149 219.898 285.964 219.51 284.894C218.141 280.862 216.749 276.852 215.357 272.843C214.947 271.75 214.696 270.565 214.171 269.517C212.756 266.51 211.364 263.503 209.949 260.496C209.607 259.745 209.538 258.924 209.379 258.104C209.287 257.694 209.401 257.262 209.538 256.874C210.291 254.961 210.109 252.842 210.405 250.838C210.839 250.792 211.318 250.792 211.592 251.202C212.756 252.614 213.486 254.368 214.81 255.621C215.243 256.009 215.7 256.396 216.27 256.533C216.795 256.419 216.841 255.712 216.726 255.28C216.453 254.163 215.677 253.252 214.924 252.432C212.71 250.291 211.752 247.238 210.999 244.345C210.2 240.883 209.721 237.375 209.082 233.912C208.238 229.105 207.553 224.276 206.389 219.515C206.047 218.308 205.727 217.078 205.088 215.984C204.86 215.597 204.45 215.164 203.97 215.392C202.053 216.03 200.41 217.328 199.133 218.877C198.402 219.766 197.9 220.882 198.083 222.044C198.836 229.698 200.753 237.192 203.035 244.527C204.13 248.081 205.385 251.589 206.663 255.075C207.416 257.33 208.215 259.608 208.511 261.977C208.58 262.979 208.671 264.255 207.804 264.961C207.097 265.462 206.024 265.007 205.91 264.141C202.578 252.068 199.247 239.971 195.915 227.875C195.71 227.192 195.687 226.281 194.979 225.893C194.386 225.575 193.793 226.076 193.2 226.144C192.173 226.258 191.077 225.78 190.507 224.914C190.142 224.436 190.233 223.729 190.667 223.342C191.283 222.841 192.218 222.75 192.697 222.089C193.291 221.337 193.884 220.608 194.637 220.016C195.322 219.469 196.212 219.242 196.828 218.604C197.33 218.125 197.855 217.533 197.763 216.781C197.695 215.916 197.9 215.027 197.627 214.185C197.353 213.251 197.033 212.339 196.782 211.405C196.508 210.016 196.851 208.535 196.44 207.145C196.098 205.847 195.299 204.754 194.569 203.637C193.77 202.498 192.994 201.337 192.059 200.311C191.557 199.742 190.781 199.56 190.279 199.013C189.914 198.466 190.37 197.601 191.032 197.532C191.762 197.464 192.401 197.897 192.971 198.284C194.318 199.309 195.413 200.63 196.303 202.043C197.855 204.549 198.562 207.51 198.699 210.426C198.79 211.884 199.018 213.41 199.886 214.617C200.205 215.073 200.935 215.483 201.369 214.936C202.305 214.002 203.514 213.273 204.153 212.066C203.97 211.838 203.696 211.61 203.4 211.701C202.738 211.861 202.19 212.248 201.551 212.453C201.186 212.59 200.798 212.385 200.433 212.294C200.456 211.542 200.525 210.813 200.547 210.061C200.616 209.469 200.137 208.991 200.091 208.421C200.023 207.692 200.159 206.94 200.045 206.211C199.794 204.867 199.384 203.501 198.516 202.407C197.124 200.767 195.732 199.104 194.295 197.487C193.451 196.826 192.378 196.53 191.442 196.006C190.758 195.687 190.712 194.753 190.849 194.093C191.351 191.86 192.492 189.833 193.838 188.01C195.276 186.142 197.01 184.457 199.041 183.226C199.908 182.703 200.935 182.406 201.688 181.677C202.419 180.971 203.058 180.151 203.742 179.399C204.45 178.784 203.948 177.554 203.194 177.258C202.259 177.668 201.985 178.875 200.981 179.172C200.274 179.422 199.361 179.491 198.79 178.875C197.353 177.395 195.755 176.096 194.204 174.73C193.336 173.955 192.31 173.203 192.036 172.041C191.876 171.404 191.99 170.561 192.652 170.31C193.314 170.242 193.975 170.424 194.637 170.47C195.299 170.584 195.938 170.128 196.28 169.581C196.554 169.171 196.349 168.67 196.28 168.214L197.512 166.483C197.147 165.39 196.189 164.57 195.984 163.408C195.801 162.611 195.915 161.745 196.235 160.993C196.965 159.011 198.311 157.326 199.772 155.822C200.89 154.774 202.168 153.726 203.742 153.521C204.632 153.362 205.294 154.136 206.07 154.387C207.119 154.296 207.553 153.18 207.85 152.314C208.557 152.542 209.15 152.975 209.744 153.407C210.177 153.795 210.793 153.339 210.93 152.861C211.09 152.132 210.839 151.334 211.113 150.605C211.25 150.195 211.592 149.899 211.912 149.649C213.258 148.601 214.581 147.553 215.928 146.528C216.316 146.254 216.658 145.753 216.43 145.275C216.087 145.002 215.654 145.207 215.38 145.434C214.513 146.095 213.714 146.824 212.847 147.462C211.866 148.168 210.702 148.555 209.789 149.33C208.74 150.332 208.009 151.767 206.549 152.246C206.001 152.473 205.294 152.109 205.362 151.471C205.613 150.264 206.572 149.239 206.412 147.963C206.207 146.095 205.225 144.25 205.727 142.336C206.412 139.899 208.26 137.985 210.177 136.459ZM220.514 138.373C220.149 138.646 219.853 138.988 219.465 139.238C218.986 139.534 218.324 139.603 217.959 140.081C217.639 140.491 218.141 141.129 218.62 140.992C219.602 140.81 220.514 140.309 221.359 139.785C222.135 139.284 221.29 138.008 220.514 138.373ZM215.243 148.783C214.947 148.943 214.924 149.33 214.832 149.626C214.673 150.56 213.806 151.289 214.125 152.291C214.513 152.132 214.901 151.927 215.334 151.813C215.745 151.836 216.156 151.927 216.567 151.995C216.772 151.084 216.863 150.104 216.498 149.239C216.316 148.76 215.7 148.555 215.243 148.783ZM232.883 155.321C232.654 155.936 232.928 156.597 233.156 157.166C233.476 156.961 233.841 156.779 233.978 156.414C234.297 155.708 234.685 154.729 233.932 154.159C233.522 154.455 233.02 154.774 232.883 155.321ZM206.115 156.597C204.518 156.392 202.989 157.212 201.939 158.373C200.114 160.333 199.406 163.157 199.635 165.8C199.794 167.85 200.844 169.763 202.282 171.199C203.331 172.246 204.381 173.226 205.431 174.251C206.093 174.798 206.001 175.755 206.549 176.37C207.302 177.235 208.238 177.85 209.15 178.511C210.816 179.627 212.345 180.948 214.079 181.951C214.764 182.361 215.654 182.224 216.224 181.723C217.753 180.333 218.666 178.26 220.583 177.372C221.062 177.167 221.747 176.848 222.18 177.304C222.796 178.124 222.865 179.217 223.39 180.083C223.458 178.807 223.458 177.463 224.097 176.301C224.462 175.55 225.101 174.661 226.06 174.798C226.881 175.458 227.178 176.666 228.25 177.008C229.117 177.326 230.03 177.759 230.966 177.486C231.833 177.213 232.267 176.279 232.472 175.458C232.905 173.682 232.905 171.836 233.522 170.128C233.704 169.627 234.069 169.126 234.64 169.126C235.598 169.126 236.397 169.9 237.355 169.832C238.131 169.695 238.656 169.012 238.998 168.351C239.751 166.825 239.934 165.094 240.025 163.431C240.025 162.064 240.116 160.651 239.614 159.353C239.432 158.852 238.998 158.373 238.428 158.51C237.812 158.396 237.743 159.148 237.72 159.581C237.743 161.267 238.268 163.021 237.675 164.661C237.013 166.346 235.302 167.28 233.704 167.896C232.951 168.237 232.13 167.941 231.354 167.918C230.738 168.442 231.536 168.989 231.879 169.376C231.491 169.832 231.034 170.219 230.76 170.743C230.509 171.472 230.464 172.269 230.236 172.998C230.099 173.499 229.505 173.727 229.049 173.568C228.73 172.816 228.889 171.973 228.615 171.221C228.091 169.445 226.584 168.283 225.58 166.802C225.033 166.005 224.348 165.162 224.394 164.137C224.417 163.089 224.325 162.018 224.599 160.993C224.805 160.264 225.375 159.695 225.535 158.92C224.987 158.465 224.143 158.738 223.755 159.262C222.774 160.56 222.18 162.246 220.697 163.089C219.784 163.636 218.484 164.16 217.502 163.476C216.43 162.542 216.293 160.97 215.449 159.9C214.559 159.171 213.304 159.285 212.391 158.601C211.752 158.009 211.706 157.029 210.999 156.506C210.337 156.597 209.789 157.007 209.15 157.189C208.648 157.326 208.101 157.303 207.576 157.326C207.895 156.893 208.101 156.414 208.169 155.89C207.302 155.572 206.937 156.779 206.115 156.597ZM232.289 159.262C231.65 160.219 232.221 161.426 232.563 162.383C232.776 162.459 232.982 162.527 233.179 162.588C233.704 161.813 234.275 160.97 234.275 159.991C234.275 159.034 232.928 158.829 232.289 159.262ZM196.394 171.244C195.892 171.7 195.322 172.133 194.911 172.679C194.934 172.748 194.957 172.93 194.979 173.021C195.527 173.294 196.098 172.907 196.645 172.793C196.828 172.322 197.01 171.844 197.193 171.358C196.919 171.313 196.653 171.275 196.394 171.244ZM203.56 181.518C203.742 182.087 204.29 182.452 204.837 182.611C206.48 183.097 208.116 183.583 209.744 184.069C210.748 184.388 211.752 184.753 212.619 185.391C213.144 185.778 213.646 186.233 214.285 186.37C214.696 186.461 214.81 185.983 215.015 185.732C214.148 185.14 213.235 184.593 212.345 184.047C210.36 183.044 208.306 182.133 206.321 181.153C205.682 180.88 205.043 180.425 204.313 180.516C203.833 180.561 203.537 181.062 203.56 181.518ZM217.434 184.16C216.977 184.365 216.658 184.981 216.932 185.459C217.183 186.006 218.141 186.051 218.347 185.459C218.712 184.867 218.118 183.978 217.434 184.16ZM228.25 184.639C227.178 185.231 226.584 186.826 227.52 187.828C227.817 187.782 228.113 187.782 228.41 187.714C229.505 187.372 230.076 185.892 229.46 184.935C229.209 184.525 228.661 184.411 228.25 184.639ZM218.529 188.17C217.982 188.42 217.479 188.921 217.434 189.559C217.616 190.243 218.392 190.493 219.008 190.676C220.104 190.607 220.629 188.944 219.784 188.238C219.419 187.919 218.917 187.987 218.529 188.17ZM206.435 192.247C205.887 192.726 205.157 193.295 205.157 194.093C205.591 195.004 206.138 195.892 206.868 196.576C207.964 197.669 210.154 197.259 210.702 195.801C210.885 194.616 210.702 193.364 211.25 192.247C210.405 192.247 209.538 192.156 208.785 191.746C207.987 191.313 207.074 191.701 206.435 192.247ZM216.521 192.156C215.836 192.703 215.403 193.546 215.106 194.366C214.901 194.776 215.266 195.642 215.814 195.254C216.384 194.685 217.023 194.115 217.32 193.341C217.525 192.84 217.228 191.723 216.521 192.156ZM218.187 195.801C218.096 196.348 218.073 197.031 218.529 197.441C219.054 197.806 219.921 197.441 220.012 196.803C220.195 195.505 220.514 194.161 220.035 192.885C219.328 193.774 218.415 194.616 218.187 195.801ZM255.999 194.89C254.128 195.892 251.96 196.166 249.883 196.074C249.039 196.029 248.195 195.801 247.35 195.869C246.825 195.892 246.711 196.507 246.46 196.872C246.05 197.737 245.319 198.398 244.452 198.808C243.699 199.218 242.695 199.423 242.33 200.289C242.125 200.63 242.398 200.972 242.535 201.291C243.38 200.858 244.224 200.448 244.977 199.901C245.798 199.286 246.825 199.127 247.807 198.922C249.199 198.671 250.636 198.444 252.051 198.58C253.215 198.671 254.173 199.514 255.314 199.674C255.908 199.742 256.227 199.104 256.478 198.671C257.14 197.441 257.984 196.302 258.76 195.14C258.92 194.867 259.102 194.594 259.125 194.298C259.034 193.979 258.737 193.751 258.418 193.819C257.551 194.001 256.775 194.503 255.999 194.89ZM217.228 198.102C216.932 198.284 216.726 198.603 216.544 198.899C215.403 200.904 214.422 202.954 213.326 204.959C212.687 206.166 211.729 207.145 210.907 208.216C211.341 208.307 211.797 208.421 212.231 208.216C213.44 207.738 213.828 206.394 214.513 205.391C215.403 203.683 216.59 202.157 217.708 200.585C218.05 200.038 218.484 199.469 218.506 198.808C218.552 198.17 217.73 197.76 217.228 198.102ZM212.345 199.446C212.003 200.084 211.546 200.653 211.295 201.337C211.387 201.769 211.866 201.861 212.208 201.655C213.304 201.154 214.216 200.061 214.193 198.831C214.216 198.398 213.874 198.147 213.577 197.92C213.075 198.352 212.665 198.876 212.345 199.446ZM221.61 198.694C221.29 199.036 221.336 199.628 221.199 200.084C221.108 200.927 220.629 201.655 220.218 202.384C219.1 204.366 218.324 206.508 217.32 208.535C216.612 209.902 215.608 211.064 214.673 212.271C214.308 212.795 213.874 213.592 214.33 214.162C214.604 214.595 215.198 214.39 215.563 214.253C216.658 213.774 217.137 212.613 217.639 211.61C219.008 208.854 220.674 206.234 221.655 203.318C222.112 201.952 222.591 200.585 222.637 199.15C222.637 198.671 221.998 198.421 221.61 198.694ZM203.286 201.086C202.738 201.997 202.487 203.068 202.099 204.07C201.848 204.594 202.053 205.186 202.145 205.733C202.898 204.822 203.491 203.82 204.267 202.954C204.952 202.157 206.093 202.202 207.028 201.906C206.686 201.2 206.161 200.494 205.34 200.311C204.564 200.015 203.696 200.38 203.286 201.086ZM210.154 204.139C208.557 205.073 207.325 206.508 206.024 207.806C205.522 208.307 204.974 208.9 204.974 209.651C204.974 209.993 205.34 210.494 205.705 210.244C206.48 209.742 207.302 209.332 207.987 208.717C208.991 207.237 210.018 205.756 210.93 204.23C210.725 203.956 210.428 203.979 210.154 204.139ZM208.397 210.198C207.325 211.565 205.842 212.635 205.157 214.276C206.001 214.936 207.142 214.435 207.85 213.797C208.785 212.932 209.47 211.838 210.04 210.722C210.314 210.312 210.36 209.629 209.789 209.446C209.173 209.127 208.762 209.811 208.397 210.198ZM226.79 213.387C226.311 214.412 226.721 215.551 226.79 216.599C226.858 217.419 227.132 218.376 228.068 218.49C228.296 217.693 228.456 216.873 228.433 216.03C228.364 214.959 227.84 213.82 226.79 213.387ZM208.534 217.738C209.264 218.285 210.177 217.943 210.999 217.852C211.775 217.715 212.573 217.191 212.733 216.371C212.779 215.642 212.322 214.503 211.387 214.8C210.086 215.324 209.242 216.576 208.534 217.738ZM231.787 229.903C231.24 230.176 231.468 230.905 231.628 231.361C232.198 232.705 232.723 234.049 233.134 235.461C233.544 236.76 234.343 237.876 234.708 239.174C234.868 239.675 234.959 240.199 235.21 240.678C235.575 241.179 236.511 240.951 236.579 240.336C236.625 239.903 236.397 239.516 236.214 239.151C235.347 237.534 234.548 235.871 234.001 234.117C233.613 232.864 233.567 231.475 232.791 230.381C232.563 230.062 232.175 229.698 231.787 229.903ZM270.307 240.427C270.033 240.564 269.896 240.883 269.736 241.133C269.348 241.953 269.029 242.796 268.55 243.594C268.207 244.186 267.796 244.755 267.66 245.439C267.751 245.894 268.321 245.803 268.641 245.666C269.485 245.279 269.736 244.277 270.101 243.502C270.444 242.568 270.946 241.68 271.265 240.746C271.014 240.518 270.649 240.245 270.307 240.427ZM236.945 243.662C237.355 244.801 238.314 245.598 238.839 246.669C239.66 248.127 239.957 249.79 240.208 251.43C240.276 251.885 240.048 252.341 239.911 252.774C239.455 254.209 238.747 255.69 239.021 257.239C239.09 257.717 239.318 258.355 239.888 258.332C240.573 258.218 240.824 257.489 240.984 256.92C241.508 255.006 241.531 253.024 241.691 251.088C241.942 248.81 241.303 246.464 240.071 244.55C239.592 243.821 238.975 243.001 238.017 242.956C237.538 242.91 237.218 243.32 236.945 243.662ZM246.323 254.779C245.867 256.054 245.068 257.216 244.11 258.173C243.38 258.833 243.266 259.836 242.992 260.724C242.718 261.681 241.828 262.25 241.029 262.729C239.637 263.526 238.154 264.278 237.059 265.485C235.963 266.647 235.302 268.219 233.91 269.039C232.814 269.95 231.354 270.497 230.646 271.795C230.099 272.547 230.076 273.526 229.87 274.392C228.638 274.916 228.478 276.397 227.52 277.194C226.881 277.809 226.151 278.379 225.58 279.062C225.17 279.495 225.192 280.133 225.147 280.702C225.535 280.93 225.946 281.408 226.448 281.181C227.064 280.976 227.497 280.429 227.862 279.905C228.889 278.356 229.209 276.42 230.395 274.984C231.468 273.914 232.654 273.003 233.75 271.977C234.731 270.611 234.959 268.743 236.283 267.626C237.72 266.738 239.295 266.055 240.755 265.189C241.372 264.802 241.874 264.255 242.444 263.799C242.969 263.298 243.608 262.888 243.996 262.228C244.635 261.111 245.251 259.995 245.913 258.879C246.529 257.945 247.624 257.33 247.944 256.214C248.377 254.733 248.833 253.207 248.719 251.635C248.742 251.248 248.377 251.02 248.08 250.838C247.259 252.045 246.917 253.457 246.323 254.779ZM215.106 260.041C214.764 261.476 215.449 262.957 216.384 264.05C216.955 264.779 217.776 265.462 217.845 266.465C217.913 267.558 217.959 268.629 218.027 269.722C218.423 268.568 218.856 267.429 219.328 266.305C219.602 265.69 219.533 264.984 219.305 264.369C218.917 263.275 218.461 262.228 217.913 261.225C217.479 260.496 217.023 259.676 216.224 259.266C215.677 258.947 215.198 259.54 215.106 260.041ZM249.701 270.998C249.039 272.479 249.039 274.142 248.674 275.691C248.468 276.374 249.176 276.966 248.856 277.627C248.537 278.515 248.309 279.449 248.24 280.406C247.556 281.089 246.757 281.682 246.369 282.593C245.707 284.119 244.384 285.235 243.585 286.693C243.79 287.24 244.041 287.787 244.384 288.288C245.114 288.037 245.73 287.491 246.027 286.784C246.369 286.238 246.483 285.44 247.122 285.167C247.578 284.916 248.126 284.734 248.423 284.279C248.811 283.709 249.244 283.162 249.587 282.547C249.746 281.955 249.632 281.317 249.769 280.702C249.997 280.133 250.408 279.631 250.545 279.016C250.819 277.695 250.887 276.374 250.956 275.03C251.001 274.438 250.568 273.982 250.499 273.413C250.545 272.684 250.682 271.977 250.728 271.248C250.378 271.157 250.035 271.074 249.701 270.998ZM222.979 285.6C223.116 286.124 223.8 286.511 224.211 286.033C224.759 285.372 224.964 284.529 225.284 283.755C224.919 283.208 224.394 282.752 223.686 282.684C223.047 283.481 222.66 284.575 222.979 285.6ZM222.386 287.992C222.112 289.062 222.249 290.293 223.002 291.158C223.344 290.908 223.778 290.703 223.915 290.27C224.12 289.7 224.211 289.108 224.371 288.538C224.158 288.204 223.953 287.87 223.755 287.536C223.276 287.559 222.568 287.399 222.386 287.992ZM240.778 289.359C240.459 289.791 240.573 290.543 241.189 290.657C241.919 290.908 242.239 290.042 242.649 289.609C242.391 289.29 242.132 288.979 241.874 288.675C241.463 288.812 241.006 288.949 240.778 289.359ZM253.603 297.013C253.146 298.676 253.922 300.361 253.877 302.024C253.648 303.277 252.302 303.778 251.754 304.826C251.526 306.17 251.754 307.696 250.842 308.813C249.564 310.407 247.441 310.726 245.662 311.478C244.452 311.82 243.448 312.845 243.22 314.12C242.946 315.237 243.745 316.193 244.019 317.241C243.775 317.515 243.539 317.796 243.311 318.084C242.239 317.036 241.235 315.92 240.162 314.895C239.363 314.143 238.861 313.141 238.245 312.275C237.812 311.706 237.766 310.977 237.606 310.316C237.492 309.633 237.036 309.109 236.694 308.562C235.438 306.876 235.53 304.667 234.822 302.776C234.457 301.751 233.59 300.976 232.586 300.612C232.472 301.022 232.403 301.455 232.54 301.865C232.951 303.505 233.818 304.986 234.252 306.603C234.617 307.901 234.548 309.268 234.663 310.612C234.685 311.068 235.005 311.432 235.233 311.82C236.397 313.597 237.469 315.464 238.884 317.059C240.39 318.38 241.965 319.679 243.494 320.977C244.155 321.501 244.84 322.116 245.707 322.321C246.255 322.458 246.369 321.729 246.323 321.342L245.57 315.464C245.433 314.622 245.821 313.733 246.506 313.232C247.076 312.799 247.784 312.617 248.468 312.435C248.811 312.344 249.199 312.298 249.427 311.956C250.066 311.159 250.682 310.316 251.321 309.519C251.983 309.428 252.69 309.314 253.215 308.858C254.15 308.038 254.516 306.785 254.744 305.624C255.086 303.528 255.132 301.386 255.634 299.313C256.067 297.969 256.752 296.717 257.163 295.372C257.459 294.439 257.368 293.413 256.957 292.548C255.406 293.641 254.059 295.145 253.603 297.013ZM238.04 294.598C237.264 295.919 236.876 297.468 236.853 298.995C236.853 299.929 237.241 300.817 237.903 301.478C238.177 301.295 238.542 301.181 238.702 300.862C239.272 299.86 239.181 298.63 239.226 297.514C239.204 296.944 239.683 296.58 240.002 296.193C240.573 295.578 240.984 294.757 240.801 293.915C240.687 293.436 240.208 293.003 239.706 293.14C238.953 293.322 238.451 293.983 238.04 294.598ZM223.23 293.573L223.093 293.641C222.431 294.757 223.139 296.557 224.462 296.808C225.192 296.967 225.831 296.284 225.74 295.555C225.809 294.279 224.508 293.049 223.23 293.573ZM260.266 300.452C259.764 301.455 259.787 302.617 259.855 303.71C259.285 304.576 258.555 305.373 258.189 306.375C257.665 307.696 256.934 308.949 256.432 310.271C256.09 311.319 257.756 311.82 258.326 311.091C258.714 310.453 258.943 309.747 259.262 309.086C259.673 308.038 260.905 307.651 261.361 306.626C262.069 304.986 262.616 303.163 262.343 301.364C262.274 300.794 262.046 300.156 261.453 299.951C260.973 299.746 260.471 300.042 260.266 300.452ZM270.329 300.339C269.576 301.546 269.052 302.89 268.184 304.029C266.907 305.76 265.264 307.173 263.575 308.471C263.141 308.835 262.616 309.359 262.867 309.974C263.301 311.091 264.168 311.956 264.693 313.027C265.035 313.824 264.807 314.69 264.693 315.51C264.579 316.558 265.629 317.355 265.378 318.403C265.081 320.522 264.921 322.663 264.716 324.781C264.67 325.67 264.1 326.399 263.78 327.196C263.187 328.495 263.392 329.953 263.324 331.319C263.278 332.458 262.365 333.301 262.16 334.372C262 334.896 262.571 335.124 262.845 335.443C263.255 334.372 263.757 333.347 264.51 332.458C265.172 331.775 264.51 330.75 264.944 329.975C265.355 329.224 266.039 328.677 266.61 328.039C267.409 327.151 267.842 325.989 268.093 324.827C268.321 323.734 268.276 322.595 268.481 321.501C268.641 320.613 269.143 319.838 269.325 318.95C269.234 317.947 268.915 317.014 268.595 316.057C267.979 314.28 267.5 312.435 266.61 310.772C266.29 310.088 265.697 309.177 266.336 308.494C266.998 308.061 267.865 308.175 268.572 307.856C269.074 306.922 268.458 305.76 269.006 304.826C269.576 304.097 270.421 303.596 271.014 302.867C271.288 302.32 271.47 301.751 271.653 301.181C271.767 300.771 271.79 300.247 271.425 299.974C271.06 299.61 270.558 299.997 270.329 300.339ZM256.889 348.814C256.524 350.045 256.295 351.32 255.976 352.573C255.816 353.211 255.269 353.644 254.858 354.145C254.31 354.099 253.762 353.94 253.215 354.031C252.804 354.373 252.758 354.965 252.599 355.443C252.827 355.671 252.987 356.081 253.352 355.967C254.379 355.808 255.406 355.648 256.455 355.808C256.82 355.383 257.185 354.95 257.551 354.509C257.687 352.892 257.779 351.275 257.984 349.657C258.007 349.316 258.053 348.974 257.961 348.655C257.665 348.427 257.049 348.359 256.889 348.814ZM195.185 165.595C193.656 165.845 192.15 163.818 193.131 162.497C194.089 162.633 195.071 163.134 195.413 164.091C195.55 164.57 195.664 165.276 195.185 165.595ZM261.339 166.529C262 166.164 262.753 165.572 263.575 165.914C264.67 166.438 265.264 167.577 265.72 168.647C266.656 171.016 267.386 173.568 267.089 176.142C266.907 177.418 266.29 178.807 264.99 179.286C263.575 179.809 262.16 180.311 260.745 180.812C260.335 180.948 260.015 181.267 259.696 181.564C258.737 182.589 257.436 183.158 256.273 183.933C254.675 184.981 252.895 185.755 251.207 186.666C249.769 187.532 247.989 187.236 246.506 187.987C245.753 188.261 245 188.83 244.178 188.58C243.06 188.238 242.421 187.167 241.942 186.211C241.417 185.117 241.029 183.955 240.664 182.794C241.6 182.498 241.737 181.381 242.535 180.926C245.525 178.944 248.446 176.825 251.595 175.094C252.485 174.661 253.42 174.319 254.424 174.206C254.995 174.114 255.269 173.545 255.497 173.067C255.063 172.565 254.561 172.133 254.219 171.563C254.219 170.72 254.789 169.991 255.337 169.422C256.934 167.736 259.399 167.622 261.339 166.529ZM222.956 167.258C222.979 166.939 223.116 166.483 223.504 166.551C223.8 166.529 223.937 166.825 224.074 167.03C224.599 167.918 225.01 168.875 225.558 169.741C226.014 170.401 226.539 170.994 227.041 171.631C226.934 171.753 226.828 171.882 226.721 172.019C225.603 172.224 224.439 172.862 223.344 172.338C222.774 172.087 222.774 171.381 222.774 170.857C222.796 169.65 222.888 168.442 222.956 167.258ZM192.446 166.665C193.154 166.711 193.907 166.665 194.569 166.939C195.116 167.167 195.573 167.918 195.162 168.465C194.66 168.989 193.861 168.875 193.2 168.784C192.926 168.716 192.538 168.693 192.401 168.397C192.173 167.827 192.31 167.212 192.446 166.665ZM213.075 171.631C213.577 171.404 214.467 171.449 214.559 172.155C214.673 173.067 214.422 174.001 214.171 174.866C213.76 176.187 213.121 177.554 211.934 178.306C210.702 179.035 209.082 177.987 208.922 176.643C208.831 176.233 209.15 175.891 209.379 175.572C210.063 174.684 210.771 173.818 211.455 172.93C211.866 172.383 212.391 171.859 213.075 171.631ZM189.275 199.97C190.028 200.061 190.667 200.494 191.169 201.018C193.131 203 194.455 205.596 195.048 208.33C195.481 210.266 195.732 212.271 195.39 214.23C195.185 215.415 194.455 216.44 193.93 217.488C193.496 218.262 193.177 219.105 192.515 219.72C190.895 221.292 189.434 223 187.723 224.481C187.449 224.071 187.061 223.57 187.335 223.091C188.111 221.634 188.978 220.221 189.777 218.786C190.096 218.171 190.393 217.465 190.324 216.759C190.301 216.531 190.142 216.235 189.891 216.28C189.32 216.257 188.932 216.736 188.704 217.191C187.997 218.49 187.312 219.811 186.605 221.132C186.308 221.679 185.874 222.271 185.213 222.408C184.277 222.568 183.364 222.066 182.725 221.429C182.155 220.836 181.493 220.176 181.425 219.31C181.356 218.786 181.79 218.33 182.292 218.285C183.09 218.467 183.707 219.538 184.597 219.128C185.692 218.49 186.103 217.169 186.422 216.007C186.536 215.301 186.901 214.458 186.331 213.843C185.395 214.162 184.962 215.164 184.072 215.506C183.341 215.665 182.543 215.437 181.881 215.825C181.128 216.121 180.945 216.986 180.603 217.624C180.147 218.718 178.116 218.558 178.002 217.305C177.956 216.007 178.823 214.913 179.302 213.752C179.919 212.294 179.645 210.562 180.535 209.196C181.379 208.262 182.725 207.897 183.433 206.827C184.414 205.46 185.509 204.184 186.81 203.113C187.883 202.293 188.522 201.086 189.275 199.97ZM275.738 243.73C276.08 243.616 276.536 243.388 276.879 243.662C277.221 244.3 277.404 244.983 277.723 245.621C278.088 246.373 278.727 246.942 279.092 247.671C279.389 248.491 279.412 249.402 279.845 250.177C280.393 251.407 281.26 252.501 281.397 253.867C281.648 255.781 281.716 257.717 281.625 259.631C281.579 260.792 280.758 261.681 280.028 262.501C279.503 263.207 278.544 263.23 277.769 263.503C277.244 262.501 276.765 261.43 275.966 260.633C275.418 260.086 274.756 259.608 274.505 258.856C274.688 257.99 275.236 257.239 275.395 256.35C275.532 254.551 275.532 252.728 275.692 250.906C276.012 249.995 276.605 249.197 277.038 248.332C276.673 246.783 276.057 245.302 275.738 243.73ZM280.051 244.3C280.347 244.254 280.712 244.14 281.009 244.3C282.241 244.892 283.131 246.031 283.77 247.193C284.774 249.015 285.162 251.043 285.778 253.002C286.349 255.052 287.193 257.079 287.193 259.243C287.239 260.861 286.851 262.615 285.801 263.891C284.888 264.642 283.816 265.143 282.835 265.781C282.53 265.356 282.234 264.931 281.945 264.506C282.447 263.275 283.04 262.114 283.428 260.838C283.725 259.858 282.971 258.97 282.971 258.013C282.971 257.034 283.177 256.054 283.063 255.075C282.857 253.343 282.538 251.635 282.287 249.926C282.104 248.673 281.808 247.421 281.237 246.282C280.895 245.575 280.416 244.983 280.051 244.3ZM284.774 244.345C284.98 244.095 285.253 244.322 285.482 244.391C288.585 246.008 292.236 245.758 295.499 246.874C298.169 247.762 300.497 249.402 302.619 251.202C305.494 253.662 308.073 256.419 310.606 259.221C312.865 261.704 315.17 264.164 316.95 267.034C321.742 274.483 323.43 283.823 321.582 292.479C321.308 293.732 320.92 294.962 320.464 296.147C319.034 300.217 317.596 304.295 316.151 308.38C315.147 311.273 313.983 314.12 313.458 317.15C312.956 319.679 313.162 322.253 312.751 324.781C312.431 326.444 311.29 327.902 311.359 329.656C311.313 330.454 311.336 331.251 311.268 332.048C310.971 333.096 310.172 333.985 310.035 335.101C309.777 336.878 309.511 338.662 309.237 340.454C309.1 341.32 308.826 342.231 308.141 342.846C307.731 343.279 306.863 342.983 306.772 342.39C306.612 341.684 306.567 340.978 306.43 340.272C306.225 339.497 305.768 338.837 305.563 338.062C305.608 337.493 305.791 336.923 305.882 336.377C306.042 335.648 305.905 334.919 305.859 334.212C305.791 333.506 305.814 332.777 305.586 332.094C305.449 331.707 304.969 331.456 304.627 331.729C304.262 331.912 304.331 332.39 304.308 332.755C304.376 335.465 303.783 338.176 303.646 340.887C304.513 343.279 305.472 345.648 306.567 347.949C307.115 347.356 307.548 346.673 308.096 346.081C308.415 345.762 309.009 345.602 309.328 345.99C309.602 346.377 309.647 346.855 309.716 347.311C309.853 348.45 309.99 349.68 309.533 350.773C308.826 352.3 307.48 353.462 306.955 355.056C306.179 358.974 305.471 362.87 304.718 366.788C304.239 369.453 303.646 372.118 303.304 374.829C303.075 376.857 303.212 378.907 302.642 380.889C302.368 381.868 301.364 382.757 301.775 383.827C301.866 384.374 302.277 384.944 301.934 385.49C301.478 386.31 300.679 386.925 300.269 387.791C299.744 388.839 299.47 390.069 299.881 391.208C300.565 392.803 301.866 394.078 302.71 395.582C303.03 396.265 302.482 396.994 301.843 397.199C300.816 397.586 299.675 397.45 298.58 397.586C297.462 397.769 296.435 397.04 295.728 396.22C295.066 395.422 294.473 394.466 294.45 393.395C294.632 392.415 295.203 391.573 295.431 390.616C295.477 390.069 295.408 389.545 295.362 388.998C295.226 388.064 294.404 387.29 294.495 386.288C294.609 384.42 294.473 382.552 294.587 380.684C294.906 379.34 295.682 378.155 296.321 376.948C297.12 375.627 297.736 374.191 297.895 372.642C298.192 370.433 298.512 368.2 298.603 365.968C298.671 364.897 297.987 363.895 298.329 362.847C298.603 362.004 298.899 361.184 299.082 360.318C299.744 360.501 300.383 360.25 300.976 360.045C301.912 359.726 302.824 359.225 303.441 358.45C303.874 357.904 303.897 356.97 303.258 356.582C302.277 355.99 300.999 356.765 300.04 356.15C299.219 355.329 299.584 354.077 299.561 353.051C299.744 351.184 299.036 349.338 299.219 347.47C299.31 345.762 299.424 344.031 299.561 342.345C299.63 341.388 300.269 340.591 300.383 339.657C300.474 338.905 300.657 338.131 300.679 337.379C300.497 336.582 300.177 335.807 299.949 335.033C300.025 334.653 300.109 334.273 300.2 333.894C300.634 333.757 301.273 333.802 301.478 333.278C302.003 332.231 302.094 331.023 302.208 329.861C302.414 325.829 300.428 322.139 298.375 318.813C298.557 318.859 298.945 318.95 299.151 318.995C299.607 318.722 299.538 318.016 299.379 317.56C298.991 316.626 298.01 316.171 297.256 315.556C296.23 314.758 295.317 313.733 294.952 312.458C294.518 310.908 294.678 309.268 294.815 307.674C294.838 306.876 295.362 306.239 295.705 305.555C296.116 304.849 296.367 304.074 296.754 303.368C297.256 302.639 298.01 302.07 298.306 301.204C298.717 300.088 298.261 298.881 298.443 297.742C298.877 296.785 299.926 296.147 300.086 295.054C300.314 293.937 300.679 292.844 300.839 291.705C300.839 288.561 300.383 285.44 299.904 282.342C299.173 281.522 298.101 281.044 297.53 280.087C296.481 278.538 296.777 276.579 296.412 274.848C296.252 274.142 296.161 273.253 295.454 272.866C294.769 272.889 294.29 273.64 294.381 274.301C294.587 276.465 294.746 278.698 294.404 280.862C294.29 281.659 293.514 282.206 293.4 283.003C293.583 284.279 294.313 285.395 294.86 286.534C295.431 287.559 295.591 288.766 295.545 289.928C295.431 291.819 294.883 293.687 294.13 295.441C293.4 297.013 293.263 298.789 292.715 300.43C292.487 301.09 291.711 301.5 291.05 301.25C290.525 300.954 290.297 300.361 290.091 299.837C289.315 297.719 288.745 295.486 287.809 293.413C287.239 292.206 286.623 290.999 285.915 289.86C285.025 288.333 283.839 286.967 283.222 285.258C282.949 284.484 282.675 283.481 283.268 282.775C283.77 282.342 284.432 282.16 285.002 281.864C285.322 281.272 285.755 280.725 285.938 280.087C285.801 277.445 285.162 274.825 285.39 272.16C284.949 271.689 284.508 271.233 284.067 270.793C284.249 270.595 284.44 270.398 284.637 270.201C284.394 269.912 284.15 269.616 283.907 269.312C283.922 269.008 283.937 268.712 283.953 268.424C284.66 267.923 285.39 267.444 286.098 266.92C286.623 266.533 286.668 265.827 286.919 265.257C287.163 265.121 287.406 264.976 287.649 264.824C288.539 263.048 288.859 261.066 289.384 259.175C289.475 258.788 289.658 258.378 289.521 257.99C289.27 257.079 288.927 256.214 288.676 255.325C288.448 254.573 288.585 253.799 288.539 253.047C288.494 251.567 287.946 250.154 287.056 248.992C286.189 247.853 285.185 246.737 284.729 245.37C284.66 245.029 284.523 244.619 284.774 244.345ZM304.582 317.105C303.851 317.036 303.121 316.854 302.391 316.9C301.547 317.105 301.159 318.016 301.067 318.79C301.683 319.018 302.322 319.132 302.961 319.086C304.011 319.018 305.084 318.904 306.019 318.403C306.772 317.97 307.183 317.082 307.115 316.239C307.069 315.92 306.955 315.533 306.612 315.419C305.791 315.783 305.289 316.581 304.582 317.105ZM318.501 247.421C320.236 247.261 322.016 246.988 323.75 247.352C325.028 247.626 326.329 248.15 327.241 249.129C327.972 249.881 328.405 250.86 329.249 251.521C330.345 252.113 331.668 252.204 332.672 252.933C334.566 254.665 334.384 258.059 332.444 259.676C331.235 260.679 329.455 260.519 328.154 259.813C326.694 258.947 325.393 257.831 323.91 257.011C322.084 256.191 320.304 255.234 318.479 254.437C317.748 254.141 317.087 253.64 316.699 252.956C316.037 251.863 315.352 250.724 315.215 249.425C315.17 248.878 315.147 248.15 315.717 247.876C316.585 247.443 317.566 247.534 318.501 247.421ZM319.711 249.311C319.962 249.721 320.441 250.154 320.19 250.678C319.939 251.27 319.528 251.772 319.209 252.318C320.669 253.002 322.289 253.229 323.727 253.936C325.005 254.573 325.712 256.145 327.196 256.419C328.017 256.601 328.793 256.965 329.615 257.057C330.185 256.601 329.774 255.804 329.318 255.439C328.428 254.551 327.082 254.46 326.123 253.662C325.575 253.275 326.214 252.341 325.598 252.068C325.165 251.863 324.914 252.273 324.64 252.523C324.244 252.083 323.849 251.658 323.453 251.248L323.316 250.109C322.837 249.881 322.358 249.63 321.856 249.402C321.194 249.061 320.441 249.311 319.711 249.311ZM312.112 249.357C312.728 249.106 313.504 249.175 314.052 249.585C314.371 250.017 314.417 250.587 314.599 251.065C314.964 252.341 315.946 253.389 316.174 254.687C316.219 255.325 315.375 255.325 314.919 255.28C314.12 255.257 313.481 254.665 313.139 253.981C312.682 253.161 312.044 252.5 311.45 251.794C310.811 251.02 311.108 249.676 312.112 249.357ZM307.753 251.908C308.712 251.589 309.739 252.045 310.492 252.614C311.245 253.207 311.929 253.936 312.272 254.847C312.477 255.371 312.363 256.168 311.724 256.373C310.56 256.692 309.237 256.35 308.347 255.485C307.731 254.87 307.046 254.3 306.544 253.594C306.521 252.842 307.046 252.136 307.753 251.908ZM252.553 254.232C252.69 253.731 253.169 253.503 253.648 253.48C254.47 254.71 255.383 255.895 256.159 257.17C256.341 258.082 256.25 259.038 256.181 259.95C256.204 260.542 255.474 260.565 255.063 260.428C254.516 259.95 254.105 259.312 253.626 258.765C252.553 257.558 252.097 255.781 252.553 254.232ZM273.228 262.228C273.912 261.772 274.756 262.228 275.258 262.752C276.536 264.118 276.559 266.237 277.86 267.604C280.393 270.383 281.192 274.438 280.37 278.06C280.187 278.72 280.005 279.449 279.503 279.95C279.183 280.247 278.681 279.928 278.613 279.54C278.134 277.809 277.746 276.032 277.312 274.301C277.061 273.481 276.536 272.797 276.126 272.069C275.578 271.135 275.236 270.087 274.688 269.153C274.072 268.31 273.25 267.649 272.68 266.784C272.36 266.009 272.543 265.121 272.611 264.323C272.726 263.617 272.726 262.774 273.228 262.228ZM209.744 268.72C209.949 268.128 210.862 268.355 210.953 268.902C212.733 273.048 214.536 277.194 216.293 281.363C216.658 282.98 216.498 284.666 216.863 286.283C217.411 288.766 217.959 291.249 218.484 293.732C218.073 293.96 217.548 294.484 217.114 294.006C216.065 293.049 215.426 291.75 214.741 290.52C214.353 289.769 213.851 289.062 213.555 288.265C213.486 287.354 213.6 286.443 213.555 285.554C213.532 285.008 213.372 284.393 212.916 284.028C212.619 283.777 212.231 283.96 211.889 284.005C212.026 285.19 212.299 286.352 212.322 287.559C212.094 288.333 211.09 288.402 210.497 288.083C209.926 287.81 209.789 287.126 209.561 286.602C209.493 287.263 209.242 287.923 209.47 288.584C209.607 288.994 209.698 289.45 209.926 289.837C211.113 291.386 212.824 292.525 213.669 294.347C214.414 295.729 215.167 297.111 215.928 298.493C216.232 298.569 216.544 298.645 216.863 298.721C217.251 298.129 217.502 297.035 218.415 297.24C219.625 297.628 220.378 298.79 220.811 299.906C221.336 301.455 221.792 303.049 222.249 304.621C223.07 307.286 224.485 309.747 226.242 311.888C227.611 313.574 228.981 315.259 230.167 317.059C230.624 317.742 230.875 318.54 231.08 319.337C229.163 318.973 227.611 317.788 225.9 316.968C225.078 316.695 224.873 315.806 224.485 315.123C224.097 314.348 223.686 313.414 222.774 313.164C222.34 313.004 222.089 313.437 221.998 313.779C221.701 314.849 222.112 315.988 222.796 316.808C223.8 318.016 225.284 318.699 226.79 318.995C228.113 319.269 229.483 319.61 230.532 320.499C230.966 320.818 230.875 321.57 230.373 321.752C229.665 321.934 228.935 322.002 228.205 322.139C228.045 322.777 228.113 323.643 228.821 323.939C230.281 323.324 231.468 322.048 233.088 321.888C233.065 323.141 232.563 324.371 231.65 325.237C228.524 328.472 225.443 331.752 222.363 335.033C219.556 337.219 216.886 339.634 214.81 342.55C213.235 344.805 211.82 347.357 211.775 350.158C211.775 352.414 212.003 354.646 212.094 356.879C212.071 357.721 211.889 358.541 211.706 359.339C211.524 360.387 210.656 361.116 210.109 362.004C210.154 362.733 210.132 363.485 210.177 364.236C209.325 364.783 208.473 365.322 207.621 365.854C206.321 365.376 204.929 365.102 203.742 364.373C203.172 364.009 202.213 364.1 201.985 363.371C201.802 362.369 202.715 361.64 202.875 360.706C203.08 359.407 202.784 358.131 202.464 356.901C202.19 356.058 202.533 355.193 202.533 354.35C202.533 353.188 202.076 352.072 202.213 350.91C202.35 349.634 202.533 348.382 202.51 347.106C202.487 345.762 203.103 344.532 203.582 343.324C204.769 340.409 205.887 337.47 206.96 334.509C207.37 333.073 207.576 331.593 207.895 330.158C208.123 329.155 208.922 328.358 209.013 327.333C209.31 325.078 209.652 322.845 209.903 320.59C209.972 320.089 210.086 319.61 210.246 319.155C210.542 318.244 211.387 317.606 211.455 316.603C211.706 314.143 211.82 311.637 212.048 309.154C213.052 310.385 213.988 311.729 215.175 312.799C215.745 313.323 216.704 312.571 216.475 311.888C216.247 311.182 215.814 310.59 215.471 309.929C213.691 306.649 212.048 303.3 210.428 299.929C209.744 298.448 209.036 296.99 208.534 295.441C207.987 293.026 207.621 290.589 207.256 288.128C207.119 286.784 206.8 285.372 207.348 284.074C207.758 283.026 208.078 281.887 208.808 280.998C209.15 280.611 209.493 280.224 209.789 279.791C209.242 277.718 208.717 275.645 208.169 273.549C207.872 272.615 208.671 271.864 209.082 271.112C209.584 270.406 209.447 269.494 209.744 268.72ZM218.598 301.523C218.529 302.844 218.986 304.257 220.104 305.054C220.241 304.052 220.446 303.072 220.492 302.07C220.469 301.409 219.944 300.544 219.191 300.703C218.803 300.749 218.598 301.159 218.598 301.523ZM222.865 321.364C222.568 321.456 222.226 321.683 222.317 322.048C222.477 323.119 223.047 324.212 222.614 325.305C221.929 326.854 221.359 328.426 220.811 330.044C220.629 330.385 220.788 331.274 221.336 330.887C222.294 330.249 222.865 329.201 223.321 328.153C223.869 326.832 224.668 325.647 225.01 324.258C225.17 323.529 225.375 322.709 224.964 322.048C224.554 321.342 223.618 321.114 222.865 321.364ZM206.366 344.099C206.184 344.668 206.458 345.375 207.051 345.58C207.964 345.921 209.059 345.944 209.926 345.466C210.314 345.306 210.36 344.828 210.428 344.463C210.018 344.486 209.607 344.532 209.196 344.509C208.489 344.053 208.306 343.119 207.781 342.504C207.188 342.892 206.526 343.347 206.366 344.099ZM208.146 352.938C207.804 353.644 207.895 354.487 207.918 355.261C208.123 357.129 207.485 358.997 206.617 360.614C205.994 360.751 205.378 360.895 204.769 361.047C205.157 362.072 206.48 362.756 207.439 362.05C208.922 360.842 209.766 358.815 209.356 356.924C209.059 355.443 209.31 353.917 208.991 352.459C208.694 352.55 208.283 352.596 208.146 352.938ZM257.094 268.788C257.824 268.469 258.623 268.902 259.079 269.472C260.084 270.725 260.38 272.319 260.654 273.845C261.156 276.374 262.32 278.925 264.488 280.406C265.537 281.135 266.678 281.841 267.477 282.889C267.911 283.481 268.048 284.529 267.317 284.985C266.61 285.327 265.629 285.372 265.013 284.803C263.37 283.504 261.749 282.092 260.608 280.292C260.061 279.404 259.376 278.606 258.874 277.695C258.6 277.24 258.874 276.738 258.943 276.26C258.44 275.827 257.802 275.508 257.436 274.939C257.049 274.21 257.3 273.321 257.733 272.684C257.414 271.772 256.889 270.907 256.706 269.95C256.661 269.54 256.638 268.97 257.094 268.788ZM281.397 269.654C281.648 269.54 281.922 269.586 282.196 269.631C282.515 270.36 282.515 271.157 282.675 271.932C282.766 272.57 283.017 273.253 282.675 273.868C282.492 274.301 281.762 274.347 281.534 273.914C281.055 273.094 280.872 272.137 280.712 271.203C280.598 270.611 280.804 269.904 281.397 269.654ZM281.83 275.531C281.99 275.258 282.424 274.984 282.675 275.303C283.405 276.078 284.09 277.126 283.861 278.265C283.725 278.925 283.131 279.358 282.561 279.631C282.196 279.016 281.716 278.447 281.534 277.741C281.42 277.012 281.465 276.192 281.83 275.531ZM296.275 281.067C296.732 280.793 297.256 281.158 297.53 281.522C298.101 282.274 298.055 283.231 298.169 284.119C298.261 285.076 298.945 285.873 299.014 286.83C299.082 287.923 299.105 289.017 299.287 290.088C299.516 291.272 299.014 292.388 298.808 293.527C298.603 294.917 297.759 296.101 297.462 297.468C297.074 298.926 296.732 300.384 296.367 301.865C295.887 303.642 294.381 304.986 292.738 305.715C291.917 306.102 291.164 305.031 291.255 304.279C291.757 303.71 292.419 303.346 292.898 302.753C293.286 302.161 293.583 301.5 293.97 300.885C294.336 300.293 294.815 299.792 295.111 299.154C295.728 297.833 296.207 296.443 296.367 294.985C296.64 292.844 296.846 290.634 296.481 288.493C296.184 286.762 295.728 285.076 295.522 283.345C295.408 282.525 295.613 281.591 296.275 281.067ZM277.061 286.511C276.331 284.347 278.499 281.978 280.69 282.16C281.922 285.6 282.789 289.199 284.341 292.525C285.771 295.881 287.201 299.23 288.631 302.571C289.27 304.029 289.407 305.669 289.178 307.241C289.041 308.22 288.38 309.177 287.33 309.337C285.596 309.564 283.816 309.496 282.082 309.815C281.716 309.246 281.283 308.676 281.009 308.038C279.64 304.325 278.499 300.521 276.879 296.922C276.103 295.281 275.304 293.618 274.049 292.274C273.159 291.295 272.269 290.293 271.539 289.176C271.242 288.675 270.923 288.174 270.923 287.582C271.219 287.012 271.927 286.876 272.474 286.671C273.479 286.329 274.62 286.579 275.441 287.263C276.81 288.402 277.518 290.088 278.042 291.75C278.43 292.981 278.522 294.302 278.932 295.532C279.275 296.534 279.731 297.582 280.507 298.357C280.804 298.653 281.465 298.995 281.602 298.379C281.945 296.99 281.625 295.532 281.169 294.233C280.69 292.821 279.754 291.659 279.024 290.406C278.271 289.154 277.518 287.901 277.061 286.511ZM275.943 304.12C276.377 303.778 276.993 304.052 277.312 304.439C277.837 305.1 278.271 305.851 278.773 306.535C278.544 308.676 275.852 309.724 274.003 308.995C273.73 308.904 273.661 308.562 273.798 308.334C274.186 307.4 274.871 306.649 275.167 305.692C275.395 305.145 275.464 304.485 275.943 304.12ZM291.392 307.902C291.757 308.129 292.327 308.266 292.373 308.79C292.784 310.476 293.172 312.161 293.583 313.847C293.97 315.259 294.541 316.626 294.929 318.061C295.294 319.815 294.724 321.592 294.176 323.255C293.035 326.399 291.529 329.406 289.612 332.139C288.813 333.278 287.718 334.395 286.257 334.509C285.504 334.554 284.569 334.463 284.135 333.757C283.77 333.119 283.633 332.367 283.496 331.661C283.063 329.451 282.812 327.242 282.333 325.055C282.196 324.121 281.967 323.187 281.922 322.23C281.899 319.815 280.986 317.515 280.69 315.146C280.872 314.371 281.602 313.915 282.173 313.46C283.154 312.799 284.067 312.002 285.208 311.637C285.801 311.432 286.463 311.66 286.851 312.139C287.764 313.255 288.539 314.462 289.475 315.556C289.886 316.034 290.913 316.193 291.118 315.442C291.278 314.325 290.342 313.528 289.772 312.685C289.292 311.934 288.654 311.091 288.859 310.134C288.95 309.587 289.543 309.451 289.977 309.246C290.593 308.995 290.935 308.38 291.392 307.902ZM285.368 315.032C284.729 315.419 284.774 316.307 284.774 316.968C284.888 318.221 284.637 319.61 285.368 320.704C285.824 321.501 286.851 321.57 287.672 321.661C288.927 321.82 290.205 320.613 289.931 319.337C289.589 317.811 288.357 316.763 287.262 315.761C286.737 315.328 286.098 314.713 285.368 315.032ZM286.645 323.711C285.961 323.87 285.276 324.804 285.984 325.351C286.919 325.807 287.946 325.078 288.311 324.212C287.992 323.688 287.216 323.597 286.645 323.711ZM274.46 310.293C275.213 310.225 275.989 310.157 276.719 310.339C277.814 310.726 277.883 312.571 276.765 312.981C275.852 313.3 274.848 313.232 273.912 313.073C273.296 312.981 272.657 312.526 272.726 311.865C272.726 310.954 273.661 310.407 274.46 310.293ZM269.234 330.089C269.348 329.816 269.531 329.474 269.873 329.429C270.352 329.429 270.786 329.793 270.854 330.271C271.151 332.299 271.425 334.349 271.699 336.377C271.904 338.153 272.383 339.885 272.748 341.639L276.445 358.109C276.65 358.974 276.445 359.863 276.308 360.728C275.829 361.981 274.369 362.847 274.505 364.328C274.62 366.241 274.209 368.269 272.931 369.749C272.087 370.729 271.242 371.686 270.466 372.733C270.01 373.28 269.622 373.918 269.074 374.419C268.367 374.829 267.386 374.67 266.747 374.146C266.131 373.622 266.017 372.756 265.971 371.982C265.925 369.977 265.811 367.972 265.766 365.968C265.902 364.191 266.313 362.46 266.473 360.683C266.45 359.179 265.857 357.767 265.286 356.4C264.328 354.35 263.278 352.323 262.571 350.181C262.137 348.86 261.886 347.425 262.183 346.058C262.548 344.737 263.347 343.575 264.214 342.504C264.67 341.98 265.149 341.388 265.857 341.183C266.359 341.183 266.815 341.548 266.929 342.026C267.294 343.37 266.747 344.805 267.249 346.126C267.751 347.356 268.595 348.427 269.143 349.657C269.554 351.138 268.755 352.664 269.12 354.168C269.303 355.238 270.444 355.671 271.174 356.332C271.448 358.177 271.904 360.113 271.334 361.958C271.06 362.87 270.558 363.849 270.831 364.829C270.946 365.193 271.402 365.079 271.699 365.17C271.927 364.419 272.109 363.621 272.452 362.915C272.84 362.141 273.387 361.389 273.524 360.523C273.638 359.772 273.935 359.02 273.707 358.291C273.547 357.63 273.456 356.947 273.182 356.332C272.703 355.648 271.95 355.193 271.493 354.509C271.265 353.963 270.946 353.348 271.083 352.733C271.197 351.935 271.448 351.184 271.493 350.386C271.334 349.384 270.968 348.427 270.74 347.448C270.421 346.354 270.831 345.147 270.329 344.099C269.919 343.188 269.485 342.277 269.097 341.343C268.732 340.591 268.869 339.748 268.732 338.973C268.413 338.882 268.048 338.814 267.751 338.973C267.431 339.361 267.272 339.839 266.952 340.226C266.541 340.317 266.017 340.34 265.743 339.976C265.309 339.429 265.378 338.677 265.537 338.039C265.674 337.47 265.766 336.878 266.039 336.331C266.861 335.351 267.979 334.668 268.801 333.688C269.257 332.549 268.755 331.251 269.234 330.089ZM202.487 366.059C203.149 366.15 203.879 366.15 204.495 366.469C205.088 366.788 205.659 367.175 206.298 367.426C206.914 367.608 207.576 367.676 208.215 367.79L209.538 369.111C209.858 372.802 210.679 376.424 210.976 380.114C210.999 381.162 211.661 382.028 211.889 383.03C212.299 384.647 214.057 385.308 214.832 386.675C215.243 387.518 215.038 388.452 215.106 389.34C215.106 390.115 215.882 390.456 216.361 390.935C217.32 391.664 217.548 392.985 218.438 393.759C219.054 394.147 220.012 394.443 220.583 393.873C221.176 393.372 221.633 392.689 222.34 392.347C223.344 391.823 224.759 391.937 225.512 392.871C225.9 393.372 225.831 394.078 225.512 394.579C224.964 395.491 224.348 396.334 223.778 397.222C223.276 397.996 222.66 398.725 222.386 399.614C222.18 400.161 222.043 400.798 221.541 401.186C220.56 401.983 219.122 401.983 218.027 401.413C216.133 400.297 214.33 398.999 212.687 397.541C212.596 396.288 212.961 394.785 212.048 393.782C211.592 393.258 210.862 393.532 210.291 393.646C209.493 393.805 208.717 394.101 207.918 394.147C207.211 394.169 206.709 393.532 206.526 392.917C206.047 391.208 206.526 389.454 206.458 387.745C206.389 384.328 205.271 381.048 204.906 377.654C204.678 375.33 203.742 373.166 203.354 370.865C203.286 369.225 202.533 367.699 202.487 366.059ZM273.456 371.526C273.981 371.276 274.62 371.481 275.076 371.822C275.943 372.551 276.331 373.645 276.833 374.601C277.198 375.376 277.746 376.15 277.7 377.039C277.655 377.95 277.381 378.884 276.719 379.522C276.034 380.228 274.779 380.205 274.095 379.545C273.593 378.52 274.072 377.13 273.205 376.264C272.84 375.832 272.36 375.399 272.315 374.806C272.292 374.328 272.178 373.85 271.995 373.417C272.406 372.711 272.84 372.027 273.456 371.526ZM269.576 376.857C270.375 376.902 271.242 376.765 271.995 377.084C273.091 378.132 272.383 379.795 272.954 381.048C273.501 381.481 274.209 381.572 274.825 381.823C274.893 382.324 275.03 382.871 274.711 383.326C274.049 384.442 273.113 385.354 272.292 386.356C271.63 387.199 270.626 387.837 269.508 387.837C268.915 387.882 268.23 387.723 267.911 387.199C267.568 386.698 267.865 386.083 268.139 385.627C268.504 384.966 269.143 384.465 269.394 383.759C269.439 383.212 269.348 382.666 269.348 382.119C269.325 380.98 270.284 380 269.987 378.838C269.873 378.178 269.713 377.517 269.576 376.857ZM261.727 383.964C262.069 383.873 262.48 383.896 262.731 384.169C263.666 385.035 264.351 386.219 265.537 386.812C266.245 387.176 267.089 387.745 266.952 388.657C266.541 390.388 265.446 391.869 264.67 393.44C264.054 394.762 263.94 396.265 263.963 397.723C263.986 399.363 264.396 401.049 263.894 402.666C263.666 403.373 262.867 403.578 262.32 403.965C260.791 404.808 259.65 406.493 259.832 408.247C260.175 409.546 260.951 410.685 261.453 411.915C261.818 412.803 261.772 413.874 261.247 414.671C260.928 415.173 260.426 415.469 259.947 415.765C257.391 417.428 254.835 419.114 252.256 420.754C251.481 421.346 250.18 420.799 250.02 419.865C249.883 419.159 250.043 418.476 250.134 417.792C250.385 416.494 250.591 415.195 250.842 413.897C251.024 412.986 252.051 412.416 252.941 412.53C253.854 412.986 254.31 414.079 255.36 414.375C256.387 414.671 257.391 413.783 257.596 412.803C257.208 412.052 256.204 412.211 255.497 412.052C254.287 411.983 253.489 410.958 252.758 410.115C252.485 409.842 252.644 409.432 252.804 409.159C253.58 407.86 255.018 407.086 255.748 405.764C256.341 403.897 255.474 401.96 255.314 400.092C255.177 399.249 255.634 398.498 255.885 397.723C256.204 396.971 256.044 396.106 256.25 395.331C256.706 394.716 257.436 394.374 257.824 393.691C258.555 392.279 258.669 390.661 259.399 389.249C259.81 388.452 260.312 387.7 260.631 386.857C260.882 386.083 260.905 385.262 261.224 384.533C261.339 384.306 261.475 384.055 261.727 383.964ZM258.463 397.951C258.098 398.156 258.212 398.703 258.463 398.953C258.965 399.454 259.604 399.751 260.175 400.138C260.814 399.728 261.567 399.272 261.704 398.452C261.749 398.042 261.658 397.473 261.224 397.336C260.266 397.04 259.239 397.404 258.463 397.951ZM226.699 396.356C227.383 396.151 228.113 396.539 228.547 397.085C229.414 398.179 229.665 399.637 229.756 401.003C229.802 402.53 229.734 404.124 229.209 405.559C228.981 406.243 228.273 406.721 227.566 406.653C226.174 406.539 224.896 405.969 223.686 405.377C222.888 404.967 222.021 404.489 221.655 403.646C221.359 402.963 221.701 402.256 222.066 401.687C222.523 401.049 223.002 400.434 223.413 399.773C223.96 398.885 224.759 398.224 225.421 397.427C225.786 397.017 226.151 396.561 226.699 396.356ZM293.925 397.791C294.244 397.495 294.746 397.655 295.134 397.7C295.956 397.814 296.503 398.52 297.234 398.862C298.375 399.204 299.584 398.657 300.725 399.044C301.022 399.158 301.204 399.432 301.181 399.751C301.227 400.776 301.045 401.937 300.2 402.621C299.31 403.327 298.169 403.646 297.097 404.01C296.093 404.284 295.111 404.739 294.062 404.694C293.354 404.694 292.715 404.079 292.784 403.35C292.852 402.188 293.491 401.117 293.628 399.956C293.742 399.249 293.583 398.452 293.925 397.791Z" fill="#585858"/>
</svg>
