<svg width="512" height="512" viewBox="0 0 512 512" fill="none" xmlns="http://www.w3.org/2000/svg">
<circle cx="256" cy="256" r="256" fill="#CFCFC9"/>
<path fill-rule="evenodd" clip-rule="evenodd" d="M204.093 223.376H192.762V178.728H176.359V169.136H220.496V178.728H204.093V223.376Z" fill="#585858"/>
<path fill-rule="evenodd" clip-rule="evenodd" d="M234.77 199.045V223.376H223.438V169.136H234.77V189.693H255.909V169.136H267.249V223.376H255.909V199.045H234.77Z" fill="#585858"/>
<path fill-rule="evenodd" clip-rule="evenodd" d="M312.591 178.728H284.086V190.139H309.187V199.73H284.086V213.784H312.655V223.376H273.53V169.136H312.591V178.728Z" fill="#585858"/>
<path fill-rule="evenodd" clip-rule="evenodd" d="M99.6126 228.735H110.206V282.971H98.866L76.7351 244.297H76.574V282.971H66V228.735H77.9259L99.4609 266.502H99.6126V228.735Z" fill="#585858"/>
<path fill-rule="evenodd" clip-rule="evenodd" d="M141.828 274.814C147.943 274.814 156.543 271.037 156.543 255.852C156.543 240.677 147.942 236.885 141.828 236.885C135.713 236.885 127.083 240.677 127.083 255.852C127.085 271.037 135.713 274.816 141.828 274.814ZM141.828 227.294C148.999 227.294 167.873 230.396 167.873 255.852C167.874 281.304 148.998 284.407 141.828 284.407C134.638 284.407 115.753 281.304 115.753 255.852C115.754 230.396 134.638 227.294 141.828 227.294Z" fill="#585858"/>
<path fill-rule="evenodd" clip-rule="evenodd" d="M248.31 282.971H236.97V238.321H220.576V228.735H264.684V238.321H248.31V282.971Z" fill="#585858"/>
<path fill-rule="evenodd" clip-rule="evenodd" d="M280.082 258.657V282.971H268.761V228.735H280.082V249.273H301.231V228.735H312.591V282.971H301.231V258.657H280.082Z" fill="#585858"/>
<path fill-rule="evenodd" clip-rule="evenodd" d="M150.853 342.563H139.522V288.323H178.116V297.924H150.853V310.16H174.732V319.761H150.853V342.563Z" fill="#585858"/>
<path fill-rule="evenodd" clip-rule="evenodd" d="M190.078 322.019H203.885L197.168 300.563H197.024L190.078 322.019ZM183.267 342.563H171.332L190.682 288.323H203.752L222.853 342.563H210.531L207.058 331.382H187.054L183.267 342.563Z" fill="#585858"/>
<path fill-rule="evenodd" clip-rule="evenodd" d="M257.657 306.079C256.768 302.833 255.009 296.713 245.634 296.713C240.201 296.713 232.187 300.338 232.187 315.667C232.187 325.419 236.042 334.188 245.634 334.188C251.921 334.188 256.296 330.63 257.657 323.988H268.978C266.718 335.768 259.025 344 245.417 344C230.988 344 220.63 334.268 220.63 315.522C220.63 296.564 231.583 286.891 245.578 286.891C261.816 286.891 268.373 298.078 268.977 306.079H257.657Z" fill="#585858"/>
<path fill-rule="evenodd" clip-rule="evenodd" d="M312.591 297.924H284.086V309.32H309.187V318.918H284.086V332.97H312.655V342.563H273.53V288.323H312.591V297.924Z" fill="#585858"/>
<path fill-rule="evenodd" clip-rule="evenodd" d="M197.789 252.528C203.669 252.528 206.532 250.488 206.532 245.134C206.532 242.279 205.246 238.06 198.614 238.06H184.521V252.528H197.789ZM173.431 228.707H200.805C215.198 228.707 217.825 239.329 217.825 244.018C217.827 249.961 214.809 255.09 209.46 256.901C213.911 258.86 216.331 260.512 216.331 270.612C216.332 278.529 216.331 280.487 218.739 281.397L218.74 282.82H206.209C205.463 280.263 205.02 277.467 205.02 271.896C205.02 264.511 204.576 261.643 196.193 261.643H184.521V282.82H173.431V228.707Z" fill="#585858"/>
<path d="M320.064 169.001C389.797 169.001 446.012 225.559 446.013 295.312V342.555L394.393 342.55L394.392 293.529L394.304 289.997L394.039 286.507L393.604 283.065L392.997 279.679L392.229 276.355L391.306 273.095L390.226 269.899L388.993 266.776L387.618 263.729L386.099 260.766L384.445 257.89L382.66 255.098L380.745 252.403L378.704 249.81L376.544 247.312L374.271 244.929L371.884 242.65L369.388 240.49L366.795 238.452L364.101 236.531L361.31 234.747L358.435 233.092L355.473 231.572L352.427 230.196L349.309 228.964L346.115 227.884L342.851 226.959L339.527 226.19L336.142 225.583L332.701 225.148L329.212 224.883L325.681 224.79V224.795L320.009 224.786H320.006V169L320.064 169.001ZM347.577 304.582L347.586 342.546L320.006 342.545V286.684L329.642 286.653L330.57 286.679L331.481 286.748L332.378 286.864L333.26 287.019L334.129 287.219L334.981 287.462L335.81 287.744L336.627 288.063L337.418 288.423L338.192 288.818L338.946 289.25L339.671 289.72L340.374 290.221L341.054 290.751L341.701 291.314L342.323 291.91L342.919 292.532L343.482 293.18L344.014 293.86L344.514 294.562L344.982 295.287L345.415 296.041L345.81 296.814L346.169 297.605L346.487 298.422L346.769 299.254L347.013 300.101L347.213 300.969L347.366 301.85L347.483 302.745L347.553 303.654L347.573 304.582H347.577ZM349.848 303.547L349.77 302.52L349.644 301.507L349.463 300.51L349.236 299.533L348.966 298.569L348.648 297.629L348.284 296.714L347.88 295.814L347.432 294.943L346.945 294.099L346.422 293.275L345.858 292.483L345.257 291.722L344.62 290.984L343.953 290.281L343.25 289.613L342.513 288.978L341.751 288.375L340.958 287.812L340.135 287.288L339.29 286.802L338.418 286.354L337.518 285.948L336.602 285.584L335.656 285.266L334.696 284.995L333.719 284.769L332.721 284.587L331.706 284.461L330.678 284.383L329.642 284.358L320.006 284.389V227.081H320.009L325.681 227.091V227.095L329.103 227.179L332.477 227.435L335.8 227.86L339.068 228.441L342.283 229.183L345.431 230.079L348.517 231.124L351.535 232.312L354.474 233.643L357.338 235.108L360.122 236.709L362.813 238.44L365.417 240.288L367.929 242.264L370.336 244.352L372.642 246.549L374.843 248.86L376.93 251.268L378.9 253.78L380.752 256.385L382.482 259.078L384.082 261.863L385.547 264.728L386.877 267.668L388.064 270.683L389.108 273.77L390.006 276.922L390.746 280.139L391.327 283.408L391.752 286.731L392.009 290.105L392.097 293.529V342.55L349.882 342.547L349.873 304.582H349.878L349.848 303.547Z" fill="#585858"/>
</svg>
