<svg width="512" height="512" viewBox="0 0 512 512" fill="none" xmlns="http://www.w3.org/2000/svg">
<circle cx="256" cy="256" r="256" fill="#CFCFC9"/>
<path d="M272.553 148.127L280.695 146.405C280.695 146.405 268.348 118.715 263.137 104.646C267.592 104.364 271.804 104.646 275.76 105.619C281.95 116.078 293.062 136.753 293.062 136.753C293.062 136.753 312.347 125.897 322.211 120.712C325.181 121.199 328.164 123.176 330.359 125.391L300.768 151.635L309.435 176.086C309.435 176.086 330.359 146.661 340.761 132.56C344.473 133.053 347.45 136.273 349.671 138.98C345.453 146.661 339.02 153.792 335.813 161.153C348.41 162.158 361.026 161.652 373.392 162.644C376.606 166.363 380.312 170.549 381.79 175.241L350.394 177.737L335.448 203.59L355.777 199.097C355.777 199.097 371.632 192.517 388.236 186.122C391.168 190.085 392.921 194.264 394.157 198.982L360.283 212.584L330.122 219.004C325.693 223.945 323.21 229.636 319.759 234.82C346.701 229.872 372.899 221.225 400.084 215.784C412.201 256.583 405.269 302.554 383.288 336.991C309.857 355.515 232.016 332.024 156.224 342.176L134.237 344.896C118.657 325.808 110.752 302.554 106.54 278.327C102.841 251.878 105.804 223.209 115.444 199.705C117.652 199.391 151.129 196.415 151.129 196.415L130.531 171.548C131.267 167.33 134.986 164.136 137.687 160.666C148.434 171.893 168.584 194.77 168.584 194.77L179.958 193.778L144.619 153.548C148.063 148.127 154.009 142.449 159.2 138.737L189.092 144.19C189.092 144.19 188.849 128.124 189.348 119.227C195.436 115.751 202.342 112.8 209.018 111.559C214.952 122.178 219.388 133.565 225.833 144.19C233.489 131.824 240.158 117.979 247.071 104.646C247.814 104.134 249.299 103.641 250.291 104.364L272.553 148.127ZM250.291 133.808L234.41 163.822L243.871 194.77L257.722 185.047L261.416 159.188C257.703 150.617 254.247 141.713 250.291 133.808ZM204.077 135.53V150.617L211.489 152.319C209.754 146.405 206.791 140.977 204.077 135.53ZM165.383 153.548V154.521C173.282 162.388 189.124 180.074 189.124 180.074V160.154L165.383 153.548ZM285.758 160.551L278.839 165.14L280.305 170.28L286.629 164.43L285.758 160.551ZM204.826 167.118L205.792 195.039L216.424 170.812L204.826 167.118ZM333.957 178.755L323.946 179.946L308.257 204.775L318.415 204.493L333.957 178.755ZM272.284 197.004L273.52 225.68L295.039 198.239C296.96 196.204 297.6 192.498 297.6 192.498L293.516 179.568L272.284 197.004ZM225.833 193.285L219.144 206.65L232.016 221.225C230.256 211.579 228.291 202.438 225.833 193.285ZM255.962 205.402L247.731 209.434L248.23 220.873L254.996 223.209L255.962 205.402ZM170.255 206.874L158.707 224.688L182.218 233.79L201.6 216.776L194.207 208.871L170.255 206.874ZM121.947 210.401L142.353 219.868L148.735 209.268L121.947 210.401ZM297.51 223.683L286.629 241.49L298.989 240.363L310.049 222.127L297.51 223.683ZM214.459 227.421L177.494 257.812L159.687 258.554C159.687 258.554 166.881 250.49 169.365 246.028C162.945 243.065 155.725 240.018 149.055 238.027L135.952 255.585C131.753 256.077 127.062 255.585 123.848 257.076C122.869 271.651 126.057 285.24 128.79 298.842C130.019 302.305 131.011 308.225 136.202 307.745C172.789 307.745 207.04 313.436 243.122 317.135V261.761C241.394 258.055 236.6 251.392 234.122 248.435L217.416 258.299L186.878 258.554C186.634 258.055 211.969 243.986 223.593 236.318C220.38 233.111 218.395 229.373 214.459 227.421ZM125.826 228.144C123.605 233.111 123.848 240.261 124.341 245.433C127.305 240.754 134.384 231.376 134.384 231.376L125.826 228.144ZM386.732 235.569L373.636 239.269C377.098 246.182 385.003 260.027 385.003 260.027L369.187 260.539L355.099 243.724C348.173 245.202 332.472 248.742 332.472 248.742L338.776 260.539L327.383 261.87L318.524 250.393C318.524 250.393 286.136 259.803 270.306 264.744L269.314 266.21C269.57 284.017 270.806 301.562 272.784 318.614L274.269 322.326C304.417 328.049 334.827 329.579 366.703 331.294L369.673 330.059C378.327 317.635 383.288 303.802 387.967 289.714C392.921 273.392 394.157 250.886 386.732 235.569Z" fill="#585858"/>
<path d="M377.597 346.144C368.444 358.497 356.583 371.101 343.237 379.992C274.018 379.006 210.503 360.206 143.14 357.012C140.9 355.028 138.679 352.807 137.942 349.85C190.564 340.671 243.864 345.875 296.031 349.107C323.209 350.323 351.885 348.595 377.84 343.654L377.597 346.144Z" fill="#585858"/>
<path d="M274.02 379.001C294.036 381.229 314.294 382.963 334.329 385.447C292.557 414.603 226.065 415.095 182.93 389.639C171.069 382.227 158.453 374.309 149.05 363.191C149.555 361.7 152.02 362.922 153.511 362.199L182.174 364.682L274.02 379.001Z" fill="#585858"/>
</svg>
