<svg width="512" height="512" viewBox="0 0 512 512" fill="none" xmlns="http://www.w3.org/2000/svg">
<circle cx="256" cy="256" r="256" fill="#CFCFC9"/>
<path d="M167.099 201C152.378 201 142.809 211.605 142.809 224.126C142.809 236.351 152.083 247.399 166.952 247.399C182.262 247.399 191.389 236.351 191.389 224.126C191.389 211.605 181.967 201 167.099 201ZM314.017 263.601C300.179 263.601 289.727 273.765 289.727 287.022C289.727 300.278 299.884 310 313.87 310C320.2 310 325.058 308.969 331.093 306.318V287.169H315.931V293.061H324.616V302.341C321.525 303.372 318.286 304.108 314.753 304.108C304.006 304.108 296.499 297.038 296.499 286.874C296.499 277.005 304.154 269.493 313.87 269.493C319.316 269.493 324.763 271.114 330.063 273.912V267.431C322.997 264.485 319.316 263.601 314.017 263.601ZM81.2744 201.589V207.481H96.8788V246.957H103.356V207.481H118.961V201.589H81.2744ZM221.862 201.589V246.809H228.339V211.605H228.487L242.472 229.134H243.502L257.34 211.605H257.487V246.809H263.965V201.589H257.929L243.061 220.149L228.045 201.589H221.862ZM300.768 201.589V246.809H307.245V211.605H307.392L321.377 229.134H322.408L336.393 211.605H336.54V246.809H343.018V201.589H336.982L321.966 220.149L306.951 201.589H300.768ZM371.135 201.589L387.917 222.947V246.809H394.395V222.947L411.177 201.589H403.375L391.156 217.203L379.085 201.589H371.135ZM72 264.191V309.411H78.4773V289.673H103.798V309.411H110.275V264.191H103.798V283.928H78.4773V264.191H72ZM137.215 264.191V309.411H143.692V264.191H137.215ZM170.338 264.191V309.411H197.278V303.519H176.815V264.191H170.338ZM215.826 264.191V309.411H222.304V288.347H239.969V282.455H222.304V270.082H239.969V264.191H215.826ZM262.787 264.191V309.411H269.264V264.191H262.787ZM355.825 264.191V309.411H382.029V303.519H362.302V289.526H380.851V283.634H362.302V270.082H381.44V264.191H355.825ZM404.258 264.191V309.411H410.735V289.82H413.385C416.771 289.82 419.421 290.851 425.309 300.131L431.198 309.411H439C435.909 305.139 434.731 303.519 432.817 300.426C429.431 294.828 426.929 290.557 422.807 287.905C427.665 285.991 430.315 282.014 430.315 276.858C430.315 269.051 424.573 264.191 415.446 264.191H404.258ZM167.099 206.892C177.257 206.892 184.765 214.257 184.765 224.126C184.765 233.995 177.257 241.359 167.099 241.359C157.089 241.359 149.581 233.995 149.581 224.126C149.581 214.257 157.089 206.892 167.099 206.892ZM410.735 269.788H414.857C421.187 269.788 423.69 272.439 423.69 276.564C423.69 280.393 421.776 283.928 414.857 283.928H410.735V269.788Z" fill="#585858"/>
</svg>
